<svg width="351" height="196" viewBox="0 0 351 196" fill="none" xmlns="http://www.w3.org/2000/svg">
<g clip-path="url(#clip0_3046_102600)">
<path d="M151.556 65.4378C151.35 65.4378 151.167 65.5396 151.167 65.6515C151.167 65.7634 151.323 65.8109 151.559 65.7397L151.62 65.431C151.599 65.4368 151.578 65.4391 151.556 65.4378ZM151.556 65.4378C151.35 65.4378 151.167 65.5396 151.167 65.6515C151.167 65.7634 151.323 65.8109 151.559 65.7397L151.62 65.431C151.599 65.4368 151.578 65.4391 151.556 65.4378ZM151.556 65.4378C151.35 65.4378 151.167 65.5396 151.167 65.6515C151.167 65.7634 151.323 65.8109 151.559 65.7397L151.62 65.431C151.599 65.4368 151.578 65.4391 151.556 65.4378ZM120.03 95.6225C119.848 95.6971 119.652 95.514 119.493 95.124C118.817 93.4621 117.752 93.011 117.096 94.1065C116.65 94.8459 116.359 94.7339 115.43 93.357L115.055 95.3614C115.52 95.8477 116.136 96.162 116.802 96.2533C117.519 96.3517 117.816 96.311 117.979 96.0973C118.141 95.8837 118.286 95.9718 118.655 96.6095C119.239 97.6269 120.007 97.8881 120.558 97.2233C120.761 96.9845 120.892 96.6929 120.936 96.3822C120.93 95.9176 120.412 95.5038 120.047 95.6395L120.03 95.6225ZM137.189 179.638C135.999 175.168 135.161 171.159 134.921 168.917C134.806 168.086 134.873 167.24 135.117 166.438C135.476 165.217 135.411 164.403 134.701 161.066C133.86 157.111 131.963 145.638 131.963 144.505C131.963 143.213 131.223 142.68 130.652 143.562C130.381 143.982 130.422 144.545 131.051 148.829C131.879 154.486 132.673 159.244 133.079 161.005C133.755 163.935 133.843 165.108 133.491 166.479C133.109 167.954 133.153 168.385 134.012 173.038C134.478 175.548 135.631 180.16 136.581 183.307C136.645 183.528 136.473 183.721 136.047 183.901C135.659 184.071 135.313 184.323 135.033 184.64C134.671 185.105 134.664 185.071 134.556 182.507C134.421 179.343 134.052 177.793 131.683 170.372C130.726 167.381 129.654 164.01 129.316 162.87L128.674 160.801L128.89 155.799C129.306 146.285 129.597 142.534 130.155 139.519C130.52 137.552 130.543 137.057 130.337 135.626C129.999 133.33 129.766 132.519 129.367 132.36C129.257 132.329 129.141 132.327 129.03 132.355C128.919 132.383 128.817 132.44 128.735 132.519C128.488 132.773 128.485 133.062 128.698 134.537C128.968 136.416 128.887 138.247 128.424 140.75C128.258 141.652 128.018 143.538 127.893 144.952C127.579 148.48 127.068 159.79 127.065 163.399C127.065 165.817 126.981 166.621 126.629 167.703C126.22 168.982 126.206 169.344 126.325 176.314C126.463 184.735 126.615 185.939 126.619 185.939C126.717 187.272 125.625 187.537 124.428 188.483C124.946 188.778 125.47 189.059 126.004 189.334C126.947 188.741 127.927 187.903 128.062 187.526C128.15 187.279 128.137 183.046 128.029 178.128C127.893 169.405 127.724 169.548 127.985 168.69C128.245 167.832 128.776 166.085 128.776 166.085L129.736 169.202C130.266 170.921 131.023 173.37 131.426 174.673C132.565 178.342 132.981 180.676 132.981 183.426C132.981 186.278 132.829 186.706 130.662 189.904C130.324 190.43 130.047 190.826 129.861 191.135C130.314 191.328 130.77 191.512 131.233 191.691L131.466 191.779C132.301 192.119 133.157 192.4 134.008 192.682C135.476 192.387 136.114 192.037 136.408 191.379C136.746 190.613 136.747 190.457 136.027 188.941C135.151 187.055 135.448 185.96 137.068 185.125C138.447 184.437 138.447 184.389 137.189 179.655V179.638ZM149.075 78.6919L149.944 74.1575C149.758 74.5984 149.386 76.6299 149.075 78.7089V78.6919ZM136.865 110.864C136.865 106.035 135.996 107.133 131.933 102.348L131.003 101.252L130.584 101.785C128.64 104.264 128.674 107.452 130.662 109.677C131.818 110.969 132.288 111.227 134.455 111.743C136.926 112.353 136.865 112.373 136.865 110.881V110.864ZM134.921 88.3816C133.941 88.5444 132.592 89.4804 132.592 89.9993C132.592 90.3385 132.734 90.3385 134.82 90.0502C136.128 89.8738 137.02 89.6636 136.983 89.5381C136.588 88.2018 137.034 88.0221 134.921 88.3816ZM136.652 114.276C136.635 114.28 136.618 114.289 136.605 114.3C136.433 114.428 136.294 114.595 136.199 114.788C136.181 114.818 136.17 114.853 136.168 114.888C136.165 114.923 136.17 114.958 136.183 114.991C136.196 115.024 136.217 115.053 136.243 115.077C136.269 115.1 136.3 115.118 136.334 115.127C136.455 115.178 136.586 115.202 136.717 115.198C136.848 115.194 136.977 115.162 137.095 115.104C137.159 115.056 137.409 113.642 136.635 114.273L136.652 114.276ZM140.151 124.271C139.66 124.271 139.66 124.271 139.136 126.73C138.409 130.01 138.021 133.357 137.977 136.718L140.343 124.325C140.282 124.283 140.208 124.263 140.134 124.267L140.151 124.271ZM140.019 110.508C139.548 109.774 138.949 109.132 138.251 108.612L138.383 110.433C138.41 111.074 138.482 111.712 138.599 112.343C138.741 112.482 140.12 111.953 140.36 111.665C140.509 111.461 140.428 111.179 139.992 110.505L140.019 110.508ZM149.092 78.7123L149.96 74.1778C149.758 74.5984 149.386 76.6299 149.075 78.7089L149.092 78.7123ZM151.573 65.4412C151.367 65.4412 151.184 65.5429 151.184 65.6549C151.184 65.7668 151.34 65.8143 151.576 65.743L151.637 65.4344C151.611 65.4412 151.583 65.4424 151.556 65.4378L151.573 65.4412ZM151.573 65.4412C151.367 65.4412 151.184 65.5429 151.184 65.6549C151.184 65.7668 151.34 65.8143 151.576 65.743L151.637 65.4344C151.611 65.4412 151.583 65.4424 151.556 65.4378L151.573 65.4412ZM151.573 65.4412C151.367 65.4412 151.184 65.5429 151.184 65.6549C151.184 65.7668 151.34 65.8143 151.576 65.743L151.637 65.4344C151.611 65.4412 151.583 65.4424 151.556 65.4378L151.573 65.4412ZM215.996 157.013C216.004 157.037 216.013 157.061 216.023 157.084L216.054 156.982L215.996 157.013ZM151.573 65.4412C151.367 65.4412 151.184 65.5429 151.184 65.6549C151.184 65.7668 151.34 65.8143 151.576 65.743L151.637 65.4344C151.611 65.4412 151.583 65.4424 151.556 65.4378L151.573 65.4412ZM151.573 65.4412C151.367 65.4412 151.184 65.5429 151.184 65.6549C151.184 65.7668 151.34 65.8143 151.576 65.743L151.637 65.4344C151.611 65.4412 151.583 65.4424 151.556 65.4378L151.573 65.4412ZM187.111 0.50339C160.615 0.50339 128.6 14.8903 123.965 47.8696L116.64 86.9843C119.243 88.5851 121.734 90.0367 124.053 91.3356L127.261 93.1128L127.937 92.387C128.489 91.8642 129.133 91.45 129.837 91.166C131.003 90.698 131.067 90.6336 131.189 89.8332C131.429 88.1374 133.238 87.0046 136.162 86.7536C137.303 86.6445 138.434 86.4403 139.542 86.1432C140.631 85.8244 141.891 85.6616 143.893 85.5802C146.201 85.4886 146.695 85.4174 146.597 85.18C145.022 81.0592 144.231 74.327 144.924 71.0779C145.214 69.7451 145.211 69.6298 144.89 69.4364C143.409 68.5479 142.186 66.2823 142.186 64.417C142.186 63.6369 142.111 63.3995 141.878 63.3995C141.286 63.3995 140.347 62.7687 140.347 62.382C140.347 61.7546 140.685 61.7037 142.551 62.0836C145.519 62.6771 148.108 62.3345 151.542 60.8965C152.043 60.6863 152.374 60.5574 152.59 60.4285L152.82 59.2279L153.314 56.6469L154.865 48.5479C157.073 35.9314 170.98 30.6169 182.906 30.6169C194.605 30.6169 207.41 35.9314 206.085 48.5479L196.387 99.1836L196.086 100.757C197.438 101.32 198.608 101.955 198.875 102.314C199.101 102.616 199.784 103.42 200.369 104.078C201.636 105.495 202.529 107.296 203.658 110.698C204.848 114.283 205.176 116.518 205.051 120.167C204.811 127.174 202.231 130.728 198.053 136.382C191.81 144.834 191.137 146.39 193.574 156.616C194.473 160.377 194.118 159.421 192.334 165.502C189.629 174.723 188.659 176.307 188.162 180.906C187.865 183.694 187.763 183.86 186.11 184.352C185.339 184.587 184.604 184.93 183.927 185.369C182.845 186.156 181.797 187.825 181.672 188.954C181.574 189.856 181.574 189.856 180.996 189.633C180.781 189.58 180.579 189.483 180.404 189.348C180.705 188.876 181.034 188.423 181.388 187.991C188.108 179.295 190.076 168.283 189.105 157.366C188.72 153.004 188.321 150.382 187.307 146.641L187.057 147.951C186.942 148.751 186.781 149.543 186.573 150.325C187.385 154.205 187.638 157.681 187.638 162.704C187.638 168.174 187.51 169.195 186.141 174.591C185.16 178.464 184.322 180.598 182.743 183.223C181.008 185.986 179.04 188.596 176.862 191.023C175.949 192.007 175.695 192.414 175.8 192.719C175.83 192.823 175.883 192.92 175.956 193C177.132 192.663 178.301 192.296 179.461 191.898C180.056 191.695 180.648 191.484 181.236 191.261C181.964 190.991 182.686 190.71 183.403 190.416C183.213 189.158 183.294 188.534 183.66 187.944C184.336 186.838 185.1 186.299 186.671 185.804C188.967 185.078 189.433 184.335 189.795 180.852C190.204 176.948 190.988 175.402 193.067 168.449C194.94 162.181 195.724 160.258 195.724 159.461C195.724 158.383 194.189 153.611 194.034 151.339C193.615 145.2 194.294 144.769 196.228 141.72C196.982 140.527 197.79 139.346 198.638 138.237C202.907 132.56 195.934 141.361 202.695 153.977L203.354 155.202C204.03 156.467 203.614 156.375 203.78 169.843L203.8 177.104C204.352 176.55 204.892 175.985 205.419 175.408C205.419 173.784 205.419 171.881 205.419 169.643C205.22 156.585 205.727 156.341 204.882 154.768L204.334 153.75C202.388 150.242 201.285 146.326 201.113 142.314C201.008 140.042 201.055 139.455 201.535 137.118C202.323 133.286 201.505 134.344 202.887 132.248C206.805 126.296 207.931 118.868 205.328 110.952C204.905 109.66 204.577 108.578 204.604 108.531C204.94 109.018 205.234 109.533 205.483 110.07C207.02 113.095 207.971 116.384 208.286 119.764C208.451 121.554 208.144 124.152 207.174 129.094C206.011 135.015 205.862 136.168 205.875 139.238C205.896 143.592 206.67 145.983 210.02 152.071C212.508 156.582 212.957 159.818 211.906 166.533C212.643 165.237 213.329 163.894 213.955 162.507C213.975 162.022 213.985 161.517 213.988 160.967C214.009 157.216 213.596 155.598 211.693 151.949C207.752 144.383 207.535 143.732 207.512 139.238C207.512 135.982 207.623 134.975 208.816 128.887C209.259 126.631 209.709 123.928 209.814 122.88C210.3 118.064 208.664 112 205.673 107.568C204.692 106.113 203.134 104.393 202.796 104.393C202.661 104.393 202.211 103.983 201.782 103.471L201.014 102.548C201.16 102.629 207.292 103.033 213.742 111.895C215.858 114.802 217.426 118.76 218.231 123.23C218.789 126.309 218.832 132.495 218.339 137.372C217.954 141.164 217.9 144.986 218.2 147.154L219.799 138.702L237.009 47.8662C241.403 14.8869 213.806 0.5 187.094 0.5L187.111 0.50339ZM151.167 65.6583C151.167 65.7837 151.323 65.8177 151.559 65.7464L151.62 65.4378C151.599 65.4414 151.577 65.4414 151.556 65.4378C151.35 65.4378 151.167 65.5396 151.167 65.6583ZM201.515 164.651C199.916 159.224 196.951 152.18 196.055 151.637C195.788 151.478 195.626 151.512 195.359 151.776C195.021 152.115 195.092 152.288 196.268 154.751C197.725 157.803 199.936 164.281 200.724 167.828C201.4 170.82 201.599 174.666 201.231 177.175C201.092 178.138 200.893 179.09 200.636 180.028C201.312 179.448 201.988 178.848 202.63 178.234C203.431 173.964 203.043 169.816 201.515 164.651ZM151.556 65.4378C151.35 65.4378 151.167 65.5396 151.167 65.6515C151.167 65.7634 151.323 65.8109 151.559 65.7397L151.62 65.431C151.599 65.4368 151.578 65.4391 151.556 65.4378ZM151.556 65.4378C151.35 65.4378 151.167 65.5396 151.167 65.6515C151.167 65.7634 151.323 65.8109 151.559 65.7397L151.62 65.431C151.599 65.4368 151.578 65.4391 151.556 65.4378ZM151.556 65.4378C151.35 65.4378 151.167 65.5396 151.167 65.6515C151.167 65.7634 151.323 65.8109 151.559 65.7397L151.62 65.431C151.599 65.4368 151.578 65.4391 151.556 65.4378ZM151.556 65.4378C151.35 65.4378 151.167 65.5396 151.167 65.6515C151.167 65.7634 151.323 65.8109 151.559 65.7397L151.62 65.431C151.599 65.4368 151.578 65.4391 151.556 65.4378ZM149.075 78.7089L149.944 74.1744C149.758 74.5984 149.386 76.6299 149.075 78.7089ZM151.556 65.4378C151.35 65.4378 151.167 65.5396 151.167 65.6515C151.167 65.7634 151.323 65.8109 151.559 65.7397L151.62 65.431C151.599 65.4368 151.578 65.4391 151.556 65.4378ZM151.556 65.4378C151.35 65.4378 151.167 65.5396 151.167 65.6515C151.167 65.7634 151.323 65.8109 151.559 65.7397L151.62 65.431C151.599 65.4368 151.578 65.4391 151.556 65.4378ZM151.556 65.4378C151.35 65.4378 151.167 65.5396 151.167 65.6515C151.167 65.7634 151.323 65.8109 151.559 65.7397L151.62 65.431C151.599 65.4368 151.578 65.4391 151.556 65.4378ZM151.556 65.4378C151.35 65.4378 151.167 65.5396 151.167 65.6515C151.167 65.7634 151.323 65.8109 151.559 65.7397L151.62 65.431C151.599 65.4368 151.578 65.4391 151.556 65.4378Z" fill="url(#paint0_linear_3046_102600)"/>
<path d="M45.929 83.4402L46.3549 81.2595L47.8998 73.0452L48.2817 71.0103L48.7043 68.7786H54.4678C55.7697 68.5807 57.094 68.5807 58.3959 68.7786H110.92L116.417 41.1206H28.4389L24.3385 62.4161L23.8652 64.8885L22.5299 71.8242L20.8736 80.4252L20.0048 84.919L19.6194 86.9234L19.3287 88.4563L18.9535 90.4031L17.2261 99.35L16.8002 101.582L12.5849 123.484L26.3802 123.281C32.1775 119.275 37.8499 116.498 43.5019 114.826C47.1593 113.742 50.9351 113.112 54.7451 112.95C55.4042 112.923 56.06 112.909 56.7158 112.909C69.6863 112.909 80.3143 119.014 77.7688 132.838L76.6702 138.329C74.2093 150.538 61.09 157.24 48.9173 157.444C39.5942 157.444 30.3251 152.563 26.6067 142.395L0.506744 157.037C7.56499 177.169 25.4877 187.133 43.5289 187.133C74.3377 187.133 99.4979 167.205 105.221 139.143L106.316 133.652C107.384 128.249 107.553 123.281 106.959 118.773C105.677 109.026 100.84 101.419 93.8291 96.1721C90.6954 96.9759 89.5596 95.3547 88.7585 95.66C88.3596 95.8092 88.3663 96.3824 88.7585 96.8334C89.1506 97.2845 89.4515 97.0403 83.982 99.4178C83.9482 99.35 83.1167 97.5796 83.0626 97.471C84.9657 95.3208 86.2976 93.893 87.6058 92.3837C87.1416 92.1576 86.6717 91.9394 86.1962 91.7292C85.7027 92.3159 85.2463 92.845 84.7189 93.4962C83.8197 92.5533 81.9977 90.8168 81.3013 89.9045C79.9086 89.4772 78.481 89.1098 77.0184 88.8023C73.5056 88.0752 69.9298 87.6981 66.3431 87.6763C63.5497 87.6068 60.755 87.7508 57.9834 88.107C57.082 88.2178 56.1873 88.3489 55.2994 88.5004C51.7194 89.1193 48.1837 89.9735 44.7154 91.0577L44.4754 91.1323L44.4957 91.0237L45.929 83.4402ZM77.8804 93.7268C78.1339 93.7268 79.9086 95.5887 80.5475 96.4197L81.1087 97.1692C79.236 98.9294 79.2055 98.7327 79.361 99.8553C79.413 100.313 79.5642 100.754 79.8038 101.147C80.2906 101.697 79.3509 102.816 78.1475 103.121C76.819 103.461 75.0443 103.423 74.6724 103.054C74.2431 102.619 73.9625 101.619 73.8949 100.266L73.8578 99.4958C73.8437 99.2376 73.9189 98.9824 74.0707 98.7734L75.7778 96.3993C76.8426 94.9342 77.7925 93.7268 77.8804 93.7268ZM80.4765 99.7943C80.5982 99.6688 81.7678 98.4376 81.8287 98.4376C81.8895 98.4376 82.6096 99.8689 82.7076 100.055C81.2202 100.835 81.6461 100.876 80.4765 99.7943ZM83.573 101.782C84.3471 101.819 84.4519 101.782 84.5634 101.31C84.675 100.839 85.0637 100.632 86.8215 99.8757C90.9524 98.0883 89.7794 97.9391 92.3248 97.9052C94.184 97.878 95.1238 97.7627 95.3671 97.5389C95.6105 97.315 97.6996 99.6688 98.9233 101.514C100.147 103.359 101.935 106.601 101.942 106.967C101.949 107.334 97.8855 108.507 95.9587 108.633C93.5755 108.789 92.1186 108.382 89.536 106.842C87.2475 105.485 82.9104 102.351 82.7921 101.985C82.7279 101.819 82.9781 101.755 83.573 101.782ZM77.4545 90.4879C77.6718 90.1674 77.9311 89.8777 78.2252 89.6264C78.5851 89.8348 78.9246 90.0767 79.2393 90.3488C80.507 91.3459 83.529 94.3746 83.529 94.6493C83.3705 94.9892 83.1398 95.2902 82.8529 95.5311L82.1769 96.1857C81.0411 94.9071 80.1858 93.4487 78.4787 92.5398C76.7717 91.6308 76.6804 91.4952 77.4545 90.4879Z" fill="#005F73"/>
<path d="M225.256 148.018L237.001 87.8071C241.625 54.9076 273.574 40.5557 300.013 40.5557C326.671 40.5557 354.212 54.9076 349.806 87.8071L337.843 148.026C333.438 180.483 301.711 195.5 275.053 195.5C248.395 195.5 220.632 180.476 225.256 148.018ZM306.998 147.576L318.958 88.4649C320.282 75.8781 307.504 70.5788 295.827 70.5788C283.927 70.5788 270.048 75.8781 267.845 88.4649L255.882 147.576C254.12 160.605 266.899 166.124 279.017 166.124C290.694 166.124 305.018 161.49 306.998 147.576Z" fill="url(#paint1_linear_3046_102600)"/>
<path d="M141.07 62.1342C141.07 62.1342 141.945 55.2765 144.45 54.6728C146.955 54.0691 150.001 53.2993 151.921 56.2194C153.841 59.1395 153.885 60.6284 152.739 61.0862C151.593 61.5441 144.248 63.2399 141.07 62.1342Z" fill="white"/>
<path d="M113.601 103.121L113.736 103.053C118.989 100.391 123.877 97.9184 124.608 97.5555C125.997 96.8772 126.362 96.3108 125.73 95.8597C125.219 95.4867 124.55 95.7783 113.973 101.154L113.391 101.449C107.983 104.193 103.568 106.404 103.47 106.404C103.443 106.37 103.024 105.604 102.537 104.708C100.823 101.53 97.9396 97.508 97.0269 97.0163C96.6314 96.8026 96.645 96.7551 97.4157 95.6291C98.3149 94.3166 99.5994 91.0777 99.4169 90.5859C99.3521 90.4764 99.2585 90.3868 99.1464 90.327C99.0343 90.2672 98.9081 90.2395 98.7814 90.2467C98.2067 90.2467 97.9362 90.6571 97.1993 92.6446C96.7125 93.9571 95.9689 95.2493 95.5531 95.5002C95.3537 95.6189 95.3537 95.5782 95.5531 95.3307C96.023 94.7541 96.3745 86.3465 96.1142 83.8774C96.0169 82.9861 96.2116 82.0873 96.6687 81.3168C96.912 80.9098 97.223 80.4723 97.6422 79.6923C97.9983 78.9711 98.4144 78.2813 98.8861 77.6302C98.9977 77.5556 99.5082 77.7455 100.039 78.0609C100.918 78.5832 100.955 78.6375 100.539 78.7901C99.9307 79.0174 99.9544 79.3226 100.901 83.1754C101.553 85.8411 101.8 86.5398 102.216 86.9061C102.821 87.4385 103.443 87.3402 103.906 86.6415C104.082 86.377 104.302 86.1498 104.389 86.1498C104.477 86.1498 104.947 87.0926 105.424 88.2423C106.506 90.8437 106.752 91.2371 107.415 91.41C107.824 91.5152 108.047 91.41 108.527 90.8776C108.865 90.5079 109.203 90.2874 109.284 90.3824C109.574 90.9886 109.818 91.6155 110.014 92.2579C110.907 94.883 111.603 95.3408 112.736 94.0419C112.944 93.7778 113.181 93.5378 113.442 93.3263C113.667 93.5537 113.863 93.8077 114.027 94.0826C114.325 94.5512 114.673 94.9856 115.065 95.3781L115.44 93.3737L115.311 93.1804C114.99 92.6671 114.623 92.1835 114.216 91.7356C113.716 91.3117 112.976 91.4406 112.371 92.0544L111.806 92.6276L111.356 91.2337C110.572 88.7952 109.328 87.9439 108.148 89.0495L107.679 89.4938L107.097 88.1813C106.779 87.4623 106.394 86.5703 106.252 86.2108C105.681 84.7965 104.271 84.203 103.389 85.0034C102.929 85.4206 103.027 85.658 102.037 81.6424C101.743 80.452 101.465 79.3701 101.415 79.2208C101.293 78.8817 100.854 78.6002 107.962 83.2907C111.16 85.3968 113.871 87.1333 116.322 88.6425L116.63 87.001C114.564 85.7292 112.425 84.3692 110.251 82.9312C101.425 77.1283 97.9836 75.1103 97.338 75.3613C97.1081 75.4494 97.0912 75.3613 97.2467 74.9577C97.5239 74.2319 98.0681 70.3011 98.1425 68.7749H95.7762C95.2624 69.7483 94.8297 71.071 94.3937 72.1088C94.3937 71.712 94.4274 69.8636 94.2787 68.7749H92.3282C91.9708 70.0747 91.7288 71.4038 91.6048 72.7464C91.5791 73.6501 91.2744 74.5235 90.7327 75.246C89.776 76.6602 89.5833 76.8095 89.0762 76.5347C88.2413 76.0769 87.6025 76.8434 88.1366 77.6641C88.3259 77.9524 88.363 78.183 88.2413 78.2576C88.1196 78.3323 86.1455 80.6792 83.8164 83.5078C80.6118 87.4012 79.5199 88.5951 79.2698 88.4899C78.3301 88.0863 77.7114 88.1508 77.0252 88.8291C78.4855 89.1343 79.9131 89.5017 81.3081 89.9313C81.0951 89.6498 80.9701 89.4497 81.0478 89.3717C81.1256 89.2937 83.0152 86.9434 85.1955 84.2573C87.3759 81.5712 89.252 79.2514 89.3534 79.092C89.6475 78.6545 89.7929 78.6952 91.3817 79.6346C92.1794 80.1094 93.1124 80.686 93.4877 80.937L94.1637 81.388L93.2071 82.7006C89.1304 88.2864 87.528 90.223 86.2232 91.756C86.6987 91.964 87.1686 92.1822 87.6329 92.4105C89.0628 90.7758 90.4622 89.0563 92.5479 86.204L94.6945 83.2737L94.7688 84.1555C94.806 84.6405 94.735 87.2927 94.6032 90.0602C94.37 95.0593 94.37 95.0831 94.7993 95.429C95.2286 95.775 95.2083 95.7682 94.1637 96.1073C94.0556 96.1412 93.9474 96.1684 93.8426 96.1955C100.854 101.442 105.674 109.049 106.972 118.797C108.486 122.002 109.024 122.412 109.338 124.393C109.382 124.674 109.433 124.952 109.487 125.227C109.812 126.892 110.292 128.522 110.92 130.097C112.124 133.184 112.972 134.462 117.742 140.367L120.159 143.358L120.443 145.244C120.892 148.242 121.917 156.623 122.363 160.967C122.589 163.161 122.887 166.027 123.019 167.323C123.151 168.618 123.269 172.59 123.276 176.341C123.276 181.73 123.215 183.463 122.917 185.451C122.718 186.434 122.752 186.909 122.596 187.414C123.047 187.706 123.511 187.985 123.989 188.252V188.228C124.56 187.15 124.881 182.778 124.875 176.239C124.875 169.555 124.712 167.384 123.462 156.355C122.786 150.43 120.673 136.385 120.382 135.917C120.186 135.602 119.5 135.754 119.283 136.165C119.121 136.467 119.145 137.003 119.381 138.234C119.557 139.156 119.696 139.987 119.696 140.099C119.696 140.411 115.7 135.446 114.547 133.703C111.961 129.792 110.809 126.058 110.434 120.011C110.386 119.312 110.352 118.583 110.329 117.817C110.204 113.923 110.177 113.716 109.788 113.655C109.668 113.638 109.545 113.647 109.429 113.681C109.312 113.715 109.204 113.773 109.112 113.852C108.926 114.035 108.51 115.097 108.855 117.511C109.281 120.506 105.525 111.23 104.359 108.354C104.207 107.917 104.684 107.645 113.601 103.121ZM91.855 78.2068C91.3243 77.9151 90.8949 77.6099 90.8949 77.5285C90.8949 77.2944 91.8853 76.26 92.389 75.4461C92.5783 75.1408 94.255 73.2449 94.37 73.2449C94.4849 73.2449 94.5727 73.4281 94.5727 73.6757C94.5727 74.527 95.2657 74.0148 95.6883 72.8346C96.1852 71.4542 96.3103 71.8917 95.9317 73.696C95.4009 75.9005 97.01 76.6094 97.2298 76.6874C97.6117 76.823 97.5678 76.9553 96.5232 78.7799C95.3164 80.8556 93.6331 79.17 91.855 78.2068Z" fill="#005F73"/>
<path d="M149.075 78.7087L149.944 74.1742C149.758 74.5981 149.386 76.6297 149.075 78.7087ZM149.075 78.7087L149.944 74.1742C149.758 74.5981 149.386 76.6297 149.075 78.7087ZM149.075 78.7087L149.944 74.1742C149.758 74.5981 149.386 76.6297 149.075 78.7087ZM149.075 78.7087L149.944 74.1742C149.758 74.5981 149.386 76.6297 149.075 78.7087ZM149.075 78.7087L149.944 74.1742C149.758 74.5981 149.386 76.6297 149.075 78.7087ZM149.075 78.7087L149.944 74.1742C149.758 74.5981 149.386 76.6297 149.075 78.7087ZM149.075 78.7087L149.944 74.1742C149.758 74.5981 149.386 76.6297 149.075 78.7087ZM221.266 154.055C221.199 153.763 221.124 153.462 221.05 153.15C219.982 148.741 219.211 145.688 219.782 138.695C219.82 138.244 219.863 137.772 219.911 137.284C220.381 132.536 220.482 129.253 220.249 126.665C219.404 117.749 216.838 112.142 211.085 106.631C207.589 103.284 204.459 101.544 201.258 101.174C200.682 101.12 200.12 100.96 199.601 100.703C198.592 100.073 197.516 99.5561 196.393 99.1631L196.093 100.737C197.445 101.3 198.614 101.934 198.881 102.293C199.108 102.595 199.791 103.399 200.376 104.057C201.643 105.475 202.536 107.276 203.665 110.677C204.855 114.262 205.182 116.497 205.057 120.147C204.817 127.153 202.238 130.708 198.06 136.361C191.816 144.813 191.144 146.37 193.581 156.595C194.48 160.357 194.125 159.4 192.34 165.481C189.636 174.703 188.666 176.287 188.169 180.886C187.872 183.673 187.77 183.84 186.117 184.331C185.345 184.567 184.61 184.909 183.933 185.349C182.852 186.136 181.804 187.804 181.679 188.934C181.581 189.836 181.581 189.836 181.003 189.612C180.788 189.56 180.586 189.463 180.411 189.327C180.712 188.856 181.04 188.403 181.395 187.971C188.115 179.275 190.082 168.262 189.112 157.345C188.727 152.983 188.328 150.362 187.314 146.621L187.064 147.93C186.949 148.73 186.788 149.523 186.58 150.304C187.392 154.184 187.645 157.66 187.645 162.683C187.645 168.154 187.517 169.175 186.148 174.571C185.167 178.444 184.329 180.577 182.75 183.202C181.015 185.966 179.047 188.576 176.868 191.003C175.956 191.986 175.702 192.393 175.807 192.698C175.837 192.803 175.89 192.899 175.962 192.98C176.267 193.292 177.041 193.35 179.654 193.39L181.51 193.421C181.806 193.425 182.101 193.367 182.374 193.25C182.647 193.133 182.893 192.96 183.095 192.742C183.477 192.332 183.714 192.017 183.595 191.42C183.518 191.033 183.457 190.694 183.413 190.402C183.223 189.144 183.305 188.52 183.67 187.93C184.346 186.824 185.11 186.285 186.682 185.79C188.977 185.064 189.443 184.321 189.805 180.838C190.214 176.934 190.998 175.388 193.077 168.435C194.95 162.168 195.734 160.245 195.734 159.448C195.734 158.369 194.2 153.597 194.044 151.325C193.625 145.186 194.304 144.756 196.238 141.707C196.992 140.513 197.8 139.332 198.648 138.223C202.918 132.546 195.944 141.347 202.705 153.964L203.364 155.188C204.04 156.453 203.624 156.361 203.79 169.829L203.81 177.09L203.83 183.748C202.373 184.386 201.863 184.396 200.727 185.518L200.01 186.227L200.835 184.192C201.64 182.269 202.246 180.267 202.644 178.22C203.445 173.95 203.056 169.802 201.528 164.654C199.929 159.227 196.965 152.183 196.069 151.64C195.802 151.481 195.64 151.515 195.373 151.779C195.035 152.119 195.106 152.292 196.282 154.754C197.739 157.806 199.95 164.284 200.737 167.832C201.413 170.823 201.613 174.669 201.244 177.179C201.105 178.141 200.907 179.094 200.649 180.031C198.78 186.987 194.494 190.86 194.494 192.614C194.494 193.316 195.312 193.506 197.702 193.353C202.309 193.065 198.733 191.956 200.426 188.635C201.292 186.939 201.88 186.353 203.445 185.634C204.648 185.078 204.986 184.82 205.199 184.277C205.368 183.853 205.433 181.842 205.429 175.401C205.429 173.777 205.429 171.874 205.429 169.636C205.23 156.578 205.737 156.334 204.892 154.761L204.344 153.743C202.398 150.235 201.295 146.319 201.123 142.307C201.018 140.035 201.065 139.448 201.545 137.111C202.333 133.279 201.515 134.337 202.897 132.241C206.815 126.289 207.941 118.861 205.338 110.945C204.915 109.653 204.587 108.571 204.615 108.524C204.95 109.011 205.244 109.526 205.493 110.063C207.03 113.088 207.981 116.377 208.296 119.757C208.461 121.547 208.154 124.145 207.184 129.087C206.021 135.008 205.872 136.161 205.886 139.231C205.906 143.585 206.68 145.976 210.03 152.064C212.518 156.575 212.968 159.811 211.916 166.526C211.866 166.865 211.811 167.18 211.754 167.52C211.047 171.701 211 174.801 211.622 176.171C212.104 177.236 212.768 177.575 213.613 177.189C214.083 176.975 214.11 177.006 214.232 177.928C214.431 179.448 214.732 180.221 215.246 180.557C215.662 180.825 215.797 180.828 216.409 180.557C217.176 180.241 218.91 176.826 219.255 175.89C219.715 174.635 220.269 172.743 220.979 170.148C221.189 169.368 221.375 168.656 221.54 167.991C222.879 162.544 222.781 160.458 221.266 154.055ZM181.908 191.728C181.81 191.884 180.367 191.942 179.444 191.891C179.181 191.906 178.918 191.857 178.677 191.749C178.518 191.494 179.12 190.684 179.468 190.684C180.071 190.809 180.658 191 181.219 191.254C181.648 191.44 181.969 191.627 181.908 191.728ZM196.63 191.84C196.322 191.959 196.316 191.922 196.559 191.532L196.833 191.094L197.651 191.389L198.469 191.688C198.209 191.701 197.086 191.664 196.627 191.84H196.63ZM198.019 190.067C197.877 190.067 197.752 190.012 197.752 189.944C197.988 189.404 198.29 188.894 198.652 188.428C198.712 188.432 198.384 190.067 198.016 190.067H198.019ZM220.33 166.204C219.955 168.096 219.336 170.273 218.467 173.197C218.068 174.53 217.555 176.029 217.325 176.538C216.649 178.013 216.236 178.824 216.088 178.912C216.02 178.956 215.868 178.335 215.75 177.535C215.445 175.446 214.945 175.035 213.285 175.52C212.471 175.754 212.511 172.39 213.387 167.204C213.668 165.647 213.846 164.074 213.921 162.493C213.941 162.008 213.951 161.503 213.955 160.954C213.975 157.202 213.562 155.585 211.659 151.935C207.718 144.369 207.501 143.718 207.478 139.224C207.478 135.968 207.589 134.961 208.783 128.873C209.225 126.618 209.675 123.915 209.78 122.867C210.267 118.051 208.63 111.986 205.639 107.554C204.658 106.099 203.1 104.379 202.762 104.379C202.627 104.379 202.177 103.969 201.748 103.457L200.981 102.534C201.126 102.616 207.258 103.019 213.708 111.881C215.824 114.788 217.392 118.746 218.197 123.216C218.755 126.295 218.799 132.482 218.305 137.359C217.92 141.15 217.866 144.973 218.167 147.14L218.187 147.282C218.309 148.093 218.812 150.477 219.306 152.59C219.495 153.397 219.666 154.151 219.82 154.852C220.901 159.726 221.121 162.317 220.34 166.204H220.33ZM162.052 74.8152C160.93 72.0477 158.381 68.8732 155.988 67.2724C154.663 66.3804 152.225 65.5393 151.576 65.7462H151.559L151.326 66.9706C151.556 67.071 151.798 67.1395 152.046 67.1741C154.497 67.5437 157.729 70.1383 159.534 73.194C161.437 76.4058 162.336 80.8996 162.126 86.1463C162.018 88.9342 161.484 92.4614 161.112 92.8311C161.055 92.8887 160.747 92.7971 160.399 92.6174C159.622 92.2206 159.131 92.3732 159.131 93.0142C159.131 93.3533 159.328 93.6077 159.808 93.8553C160.173 94.0486 160.504 94.2318 160.541 94.2657C160.418 94.6083 160.238 94.9273 160.007 95.2085C158.026 98.0778 154.974 99.4547 150.582 99.4649C148.78 99.4658 146.985 99.2263 145.245 98.7527L144.954 100.265C145.208 100.337 145.444 100.398 145.657 100.452C147.235 100.826 148.85 101.014 150.471 101.011C154.767 101.059 158.479 99.9736 161.089 96.2938C164.618 91.2981 164.408 80.6113 162.052 74.8152ZM157.164 91.1624C156.796 90.206 154.267 90.5045 153.233 90.4468C153.679 89.253 156.035 85.0407 156.681 78.3119C156.914 75.8496 156.799 75.073 156.194 75.073C155.643 75.073 155.481 75.6258 155.156 78.6171C154.892 81.598 154.138 84.5146 152.925 87.2486C152.367 88.3101 152.364 89.2835 151.492 89.3547L149.514 89.4802C148.838 89.5243 147.966 89.5447 146.999 89.548L146.624 91.5185C148.159 91.6101 149.46 91.7119 150.342 91.7831C156.522 92.2647 157.57 92.1731 157.164 91.1624ZM153.307 56.6264C152.671 55.2935 151.647 53.9471 150.004 53.2687C146.401 52.041 141.141 54.2862 141.07 59.6788C141.07 60.8251 141.107 61.0354 141.442 61.0896C142.02 61.2117 142.199 60.8861 142.493 59.187C142.611 58.352 142.884 57.5467 143.298 56.8129C145.12 54.059 151.235 52.5192 152.813 59.2141C152.844 59.3464 152.874 59.4821 152.901 59.6211C152.982 60.0349 153.003 60.1841 152.584 60.4147L151.62 65.4376C152.009 65.3765 152.229 64.7355 152.486 62.9855C152.607 62.1444 152.695 62.0257 153.476 61.6526C153.731 61.5303 153.947 61.3379 154.097 61.0979C154.248 60.8578 154.328 60.5798 154.328 60.296C154.194 59.0243 153.849 57.7839 153.307 56.6264ZM150.968 74.1369C150.917 74.0527 150.847 73.9824 150.763 73.9323C150.678 73.8822 150.583 73.8539 150.485 73.8498C150.387 73.8458 150.29 73.8662 150.202 73.9092C150.114 73.9522 150.038 74.0165 149.981 74.0962C149.966 74.1162 149.954 74.1378 149.944 74.1606C149.758 74.5846 149.386 76.6161 149.075 78.6951C148.862 80.1264 148.683 81.5813 148.618 82.5411C148.443 85.1051 148.311 85.1797 148.247 85.6139C148.169 85.2747 148.071 84.9118 147.963 84.5184L147.489 86.9773L149.18 86.9535C150.021 86.9535 150.086 81.3676 150.792 77.0468C151.113 75.0085 151.147 74.3743 150.968 74.1369ZM94.1097 68.0898C93.7716 67.3911 93.0584 67.3131 92.6595 67.9236C92.5131 68.1843 92.3995 68.4623 92.3214 68.7511H94.2685C94.2462 68.5288 94.1928 68.3107 94.1097 68.1033V68.0898ZM98.1289 68.1915C97.943 67.4318 97.3278 67.1741 96.699 67.5675C96.2978 67.8794 95.9796 68.286 95.7728 68.7511H98.1391C98.1559 68.5693 98.1524 68.3862 98.1289 68.2051V68.1915ZM93.8223 96.1446C90.6887 96.9484 89.5529 95.3272 88.7517 95.6325C88.3528 95.7817 88.3596 96.3549 88.7517 96.806C89.1439 97.257 89.4447 97.0128 83.9753 99.3903C83.9415 99.3225 83.1099 97.5521 83.0558 97.4435C84.959 95.2933 86.2908 93.8655 87.599 92.3562C87.1348 92.1301 86.665 91.9119 86.1895 91.7017C85.6959 92.2884 85.2395 92.8175 84.7122 93.4687C83.813 92.5258 81.991 90.7893 81.2947 89.877C79.9019 89.4497 78.4742 89.0823 77.0116 88.7748C76.6943 89.108 76.4101 89.4715 76.1632 89.8601C75.2336 91.254 75.1491 91.895 75.8454 92.5224L76.3356 92.9769L74.3073 95.7342C73.6482 96.633 73.1343 97.4062 72.7794 97.9794C72.4273 98.5515 72.2962 99.2332 72.411 99.8956C72.6544 101.303 73.1817 103.474 73.4251 103.82C74.544 105.539 80.1453 105.095 80.9431 102.856C81.0513 102.555 80.8822 102.446 84.2119 104.959C91.6893 110.603 94.4105 111.295 100.776 109.165L102.777 108.486C103.223 109.636 102.368 107.425 104.467 112.855C105.508 115.524 106.316 117.372 106.952 118.722C105.671 109.012 100.833 101.405 93.8223 96.1582V96.1446ZM77.4545 90.4875C77.6719 90.1671 77.9311 89.8773 78.2252 89.626C78.5851 89.8344 78.9246 90.0763 79.2394 90.3484C80.507 91.3456 83.529 94.3742 83.529 94.6489C83.3705 94.9888 83.1398 95.2898 82.853 95.5307L82.1769 96.1853C81.0411 94.9067 80.1859 93.4483 78.4788 92.5394C76.7717 91.6305 76.6804 91.4948 77.4545 90.4875ZM79.3678 99.8549C79.4198 100.313 79.571 100.754 79.8106 101.147C80.2974 101.697 79.3577 102.816 78.1543 103.121C76.8258 103.46 75.0511 103.423 74.6792 103.053C74.2499 102.619 73.9693 101.619 73.9017 100.265L73.8645 99.4954C73.8504 99.2372 73.9257 98.982 74.0775 98.773L75.7846 96.399C76.8494 94.9236 77.8128 93.7162 77.8872 93.7162C78.1407 93.7162 79.9154 95.5782 80.5543 96.4091L81.1155 97.1587C79.236 98.9291 79.2055 98.7323 79.361 99.8549H79.3678ZM80.4833 99.7939C80.605 99.6684 81.7746 98.4373 81.8355 98.4373C81.8963 98.4373 82.6164 99.8685 82.7144 100.055C81.2203 100.835 81.6462 100.876 80.4765 99.7939H80.4833ZM95.9486 108.632C93.5654 108.788 92.1085 108.381 89.5259 106.842C87.2373 105.485 82.9003 102.351 82.782 101.985C82.7279 101.819 82.9781 101.754 83.573 101.781C84.3471 101.819 84.4519 101.781 84.5635 101.31C84.675 100.838 85.0637 100.632 86.8215 99.8753C90.9524 98.088 89.7794 97.9387 92.3248 97.9048C94.184 97.8777 95.1238 97.7624 95.3672 97.5385C95.6106 97.3147 97.6996 99.6684 98.9233 101.513C100.147 103.358 101.935 106.601 101.942 106.967C101.949 107.333 97.8619 108.507 95.9418 108.632H95.9486ZM120.047 95.6393C119.865 95.7139 119.669 95.5307 119.51 95.1407C118.834 93.4788 117.769 93.0278 117.113 94.1232C116.667 94.8626 116.376 94.7507 115.447 93.3737L115.071 95.3781C115.537 95.8644 116.153 96.1787 116.819 96.2701C117.536 96.3684 117.833 96.3277 117.995 96.1141C118.158 95.9004 118.303 95.9886 118.672 96.6262C119.256 97.6437 120.024 97.9048 120.575 97.2401C120.778 97.0013 120.909 96.7096 120.953 96.399C120.93 95.9174 120.412 95.5036 120.047 95.6393ZM137.206 179.654C136.016 175.184 135.178 171.176 134.938 168.934C134.823 168.103 134.89 167.257 135.134 166.455C135.492 165.234 135.428 164.42 134.718 161.082C133.877 157.128 131.98 145.654 131.98 144.522C131.98 143.229 131.24 142.697 130.669 143.579C130.398 143.999 130.439 144.562 131.067 148.846C131.896 154.503 132.69 159.261 133.096 161.021C133.772 163.952 133.86 165.125 133.508 166.495C133.126 167.971 133.17 168.401 134.029 173.055C134.495 175.564 135.648 180.177 136.598 183.324C136.662 183.545 136.49 183.738 136.064 183.918C135.676 184.088 135.33 184.34 135.05 184.657C134.688 185.122 134.681 185.088 134.573 182.524C134.438 179.359 134.069 177.809 131.7 170.389C130.743 167.397 129.671 164.026 129.333 162.887L128.691 160.818L128.907 155.815C129.323 146.302 129.614 142.551 130.172 139.536C130.537 137.569 130.56 137.074 130.354 135.642C130.016 133.346 129.783 132.536 129.384 132.376C129.274 132.345 129.158 132.344 129.047 132.372C128.936 132.4 128.834 132.456 128.752 132.536C128.505 132.79 128.502 133.078 128.715 134.554C128.985 136.433 128.904 138.264 128.441 140.767C128.275 141.669 128.035 143.555 127.91 144.969C127.596 148.496 127.085 159.807 127.082 163.416C127.082 165.834 126.997 166.638 126.646 167.72C126.237 168.998 126.223 169.361 126.342 176.331C126.48 184.752 126.632 185.956 126.636 185.956C126.734 187.289 125.642 187.553 124.445 188.5C123.751 189.043 123.181 189.73 122.775 190.514C122.337 191.414 122.262 192.449 122.566 193.404C122.718 193.794 122.691 193.946 122.458 194.038C121.927 194.245 119.344 194.18 119.209 193.96C119.047 193.685 120.223 192.725 120.396 192.546L120.967 192.976C122.184 193.889 122.529 192.637 121.781 191.827C121.376 191.396 121.376 191.396 122.593 190.002C123.094 189.443 123.564 188.855 123.999 188.242C123.526 187.973 123.062 187.694 122.606 187.404C122.356 188.211 121.619 189.1 118.651 192.257C117.299 193.712 117.174 194.33 118.148 195.066C118.641 195.439 119.006 195.496 120.805 195.496C122.684 195.496 122.955 195.449 123.573 195.005C124.192 194.56 124.249 194.452 124.114 193.672C123.746 191.498 123.746 191.498 124.242 190.762C124.531 190.348 124.905 190.002 125.338 189.744C125.57 189.626 125.795 189.496 126.014 189.354C126.957 188.761 127.937 187.923 128.072 187.547C128.16 187.299 128.147 183.066 128.039 178.149C127.903 169.426 127.734 169.568 127.995 168.71C128.255 167.852 128.786 166.105 128.786 166.105L129.746 169.222C130.276 170.942 131.034 173.39 131.436 174.693C132.575 178.362 132.991 180.696 132.991 183.446C132.991 186.299 132.839 186.726 130.672 189.924C130.334 190.45 130.057 190.847 129.871 191.155C129.448 191.85 129.404 192.101 129.533 192.342C129.871 192.966 130.358 192.803 131.247 191.711C131.419 191.505 131.602 191.264 131.801 190.989C132.584 189.976 133.271 188.892 133.853 187.75C135.286 191.04 135.239 190.802 134.015 191.07C133.538 191.182 133.053 191.258 132.565 191.298C132.357 191.282 132.148 191.32 131.958 191.408C131.768 191.496 131.604 191.631 131.48 191.8C131.27 192.139 131.362 192.536 131.869 192.766C132.257 192.943 132.707 192.939 133.728 192.766L134.022 192.712C135.489 192.417 136.128 192.068 136.422 191.41C136.76 190.643 136.76 190.487 136.04 188.971C135.165 187.085 135.462 185.99 137.081 185.156C138.447 184.437 138.447 184.389 137.189 179.654H137.206ZM149.092 78.7087L149.96 74.1742C149.758 74.5981 149.386 76.6297 149.075 78.7087H149.092ZM149.092 78.7087L149.96 74.1742C149.758 74.5981 149.386 76.6297 149.075 78.7087H149.092ZM149.092 78.7087L149.96 74.1742C149.758 74.5981 149.386 76.6297 149.075 78.7087H149.092ZM149.092 78.7087L149.96 74.1742C149.758 74.5981 149.386 76.6297 149.075 78.7087H149.092ZM149.092 78.7087L149.96 74.1742C149.758 74.5981 149.386 76.6297 149.075 78.7087H149.092ZM149.092 78.7087L149.96 74.1742C149.758 74.5981 149.386 76.6297 149.075 78.7087H149.092Z" fill="#005F73"/>
<path d="M189.883 97.4936C183.021 96.4456 172.474 97.7852 166.163 100.502L165.243 100.899L164.773 100.346C164.32 99.8134 164.32 99.7761 164.689 99.3826C164.802 99.2794 164.892 99.1536 164.953 99.0135C165.015 98.8734 165.047 98.7218 165.047 98.5687C165.047 98.4155 165.015 98.264 164.953 98.1239C164.892 97.9837 164.802 97.858 164.689 97.7547C164.013 97.1375 163.421 97.2697 158.969 99.0604C158.357 99.308 158.182 99.8235 158.58 100.224C158.858 100.502 159 100.492 160.081 100.129C160.737 99.9117 161.464 99.6574 161.687 99.5658C162.096 99.403 162.096 99.403 161.687 99.7354C161.065 100.241 153.206 103.127 147.385 102.825C146.861 102.825 146.752 102.947 146.627 103.564C146.55 103.954 146.384 104.792 146.259 105.409C146.146 105.998 145.985 106.577 145.779 107.139L145.525 107.746L144.329 105.84L143.991 105.294C142.679 103.296 140.631 100.59 139.958 99.9897C139.711 99.7727 138.477 98.3482 138.396 98.2126C138.315 98.0769 138.342 98.0091 138.629 98.1244C140.404 98.8332 143.125 99.7489 144.954 100.258L145.245 98.745C143.937 98.4059 142.446 97.9446 140.61 97.3104C138.508 96.5812 134.374 94.5802 134.113 94.6786C132.822 95.1704 135.012 96.744 137.098 98.9926C136.611 99.2198 134.549 99.9762 133.684 100.736L133.031 101.309L132.109 100.224C130.756 98.6229 129.066 96.1946 128.62 95.2009C128.231 94.3191 128.231 94.3191 128.62 93.7663C130.686 90.9581 140.495 91.148 146.614 91.5177L146.989 89.5472C144.413 89.5472 141.188 89.4386 139.512 89.2419C138.43 89.1164 138.389 89.0893 138.389 88.4958C138.389 87.9023 138.45 87.8684 139.921 87.4987C141.138 87.1935 143.112 87.0544 147.479 86.99L147.953 84.5311C147.101 81.455 145.542 76.7509 146.286 71.4431L146.519 69.7474L147.56 69.4387C148.767 69.0792 150.163 67.9566 150.545 67.0409C150.751 66.5491 150.85 66.4779 150.985 66.7018C151.071 66.8121 151.189 66.8936 151.323 66.9358L151.556 65.7114C151.319 65.7827 151.164 65.7487 151.164 65.6233C151.164 65.4978 151.346 65.4096 151.553 65.4096C151.574 65.4131 151.596 65.4131 151.617 65.4096L152.58 60.3867C152.364 60.5054 152.033 60.6445 151.532 60.8548C148.098 62.2928 145.509 62.6353 142.541 62.0418C140.661 61.6687 140.337 61.7026 140.337 62.3402C140.337 62.7371 141.276 63.3577 141.868 63.3577C142.101 63.3577 142.175 63.6019 142.175 64.3752C142.175 66.2405 143.392 68.5061 144.88 69.3946C145.218 69.588 145.218 69.7033 144.914 71.0362C144.214 74.2785 145.012 81.0175 146.587 85.1382C146.678 85.3756 146.185 85.4468 143.883 85.5384C141.881 85.6198 140.62 85.7826 139.532 86.1014C138.424 86.3985 137.293 86.6027 136.152 86.7119C133.228 86.9628 131.419 88.0854 131.179 89.7914C131.067 90.5918 131.003 90.6562 129.827 91.1243C129.123 91.4082 128.479 91.8224 127.927 92.3452L127.251 93.071L124.043 91.2938C121.724 90.0084 119.233 88.5433 116.63 86.9425L116.322 88.584C119.027 90.2492 121.41 91.6364 123.796 92.9455L126.761 94.5701L127.312 95.7673C127.856 96.9577 127.86 96.9713 127.488 97.6224C127.001 98.4703 125.524 104.304 125.121 106.929C124.013 114.288 125.939 119.556 130.631 121.997C134.035 123.768 136.956 123.815 138.251 124.032C136.919 128.998 136.247 134.118 136.25 139.26V141.495L133.309 141.343C130.425 141.194 130.361 141.197 130.124 141.641C129.685 142.455 130.101 142.594 133.738 142.852C134.952 142.937 135.935 143.008 136.733 143.059C139.802 143.266 140.113 143.252 140.201 143.117C140.499 142.632 147.206 143.273 158.793 139.237C161.143 138.419 176.29 131.501 179.728 129.72C179.813 129.675 179.906 129.65 180.002 129.646C180.098 129.642 180.193 129.659 180.281 129.697C180.369 129.734 180.448 129.79 180.512 129.862C180.576 129.933 180.624 130.018 180.651 130.11C181.266 132.145 182.967 137.755 184.552 142.869C185.431 145.708 186.073 148.058 186.536 150.273C186.744 149.492 186.905 148.699 187.02 147.899L187.27 146.59C186.864 145.084 186.36 143.398 185.715 141.346C185.039 139.193 184.16 136.306 183.747 134.902C181.381 126.763 179.323 121.641 177.206 112.559C176.287 108.625 176.209 108.421 175.628 108.489C175.479 108.5 175.341 108.569 175.242 108.68C175.144 108.791 175.091 108.937 175.097 109.086C175.033 109.679 176.29 115.316 177.406 119.416C178.319 122.774 178.312 122.666 179.833 127.485C179.894 127.674 179.881 127.879 179.796 128.059C179.711 128.239 179.561 128.379 179.377 128.452C177.507 129.167 172.339 131.538 168.221 133.461C160.744 136.954 157.654 138.155 152.979 139.369C148.842 140.45 144.617 141.154 140.353 141.472C140.353 138.945 139.745 135.577 141.128 128.435C142.703 120.295 139.322 127.902 162.478 119.827C166.893 118.287 167.255 118.131 167.43 117.49C167.87 115.94 167.072 108.204 166.044 104.043C165.568 102.099 165.483 102.215 168.073 101.268C175.263 98.6433 186.502 97.9684 193.344 99.7523C194.266 100.007 195.17 100.324 196.049 100.702L196.35 99.1283C194.252 98.3723 192.087 97.8248 189.883 97.4936ZM145.062 67.7667C144.44 67.3326 143.612 65.5181 143.612 64.5956V63.8597C144.819 63.7715 147.963 63.7749 149.639 63.2424C150.315 63.0287 150.897 62.9338 150.937 63.0287C150.966 63.3169 150.948 63.6078 150.883 63.8902C150.806 64.3413 150.623 64.6092 150.353 64.677C149.639 64.8568 149.413 66.929 147.554 67.882C146.898 68.2178 145.613 68.1567 145.062 67.7667ZM134.921 88.3805C137.051 88.0413 136.611 88.2041 136.983 89.537C137.02 89.6625 136.128 89.8762 134.82 90.0491C132.734 90.3272 132.592 90.3239 132.592 89.9983C132.575 89.476 133.924 88.5399 134.921 88.3805ZM138.089 100.346C138.258 100.37 138.93 101.024 139.606 101.825C141.097 103.621 142.421 105.551 143.561 107.59C144.651 109.505 145.605 111.495 146.414 113.546C146.56 113.885 146.499 114.526 146.124 114.685C145.89 114.784 143.173 114.916 142.118 114.96L138.694 115.102V114.495C138.694 113.956 138.795 113.861 139.654 113.607C140.84 113.268 142.02 112.22 142.02 111.535C142.02 110.71 140.566 108.547 139.343 107.512C137.524 105.979 134.215 102.676 134.215 102.391C134.211 101.825 137.233 100.217 138.072 100.342L138.089 100.346ZM138.599 112.342C138.482 111.711 138.41 111.073 138.383 110.432L138.251 108.611C138.949 109.131 139.548 109.773 140.019 110.507C140.445 111.185 140.526 111.463 140.357 111.663C140.103 111.948 138.724 112.477 138.582 112.338L138.599 112.342ZM137.095 115.099C136.977 115.157 136.848 115.189 136.717 115.194C136.586 115.198 136.455 115.174 136.334 115.123C136.3 115.113 136.269 115.096 136.243 115.072C136.217 115.049 136.196 115.019 136.183 114.987C136.17 114.954 136.165 114.918 136.168 114.883C136.17 114.848 136.181 114.814 136.199 114.784C136.294 114.591 136.433 114.424 136.605 114.295C136.618 114.284 136.635 114.276 136.652 114.272C137.409 113.641 137.159 115.055 137.078 115.096L137.095 115.099ZM131.01 101.272L131.94 102.367C135.996 107.163 136.872 106.054 136.872 110.883C136.872 112.376 136.932 112.355 134.461 111.762C132.295 111.246 131.825 110.988 130.669 109.696C128.681 107.471 128.64 104.27 130.591 101.804L131.01 101.272ZM138.711 137.778C138.711 142.045 138.761 141.445 137.832 141.489L137.957 137.124C137.957 136.988 137.957 136.852 137.957 136.72C138.001 133.36 138.389 130.013 139.116 126.732C139.637 124.273 139.637 124.273 140.13 124.273C140.202 124.269 140.273 124.288 140.333 124.327C140.982 124.789 138.704 128.377 138.704 137.775L138.711 137.778ZM166.044 114.553L166.136 115.994C166.149 116.266 166.071 116.535 165.914 116.757C165.757 116.979 165.53 117.142 165.27 117.219C155.403 120.729 151.11 121.845 145.269 122.425C142.409 122.71 142.591 122.764 142.645 121.872C142.689 121.194 142.645 121.092 142.186 121.092C141.804 121.092 141.577 121.289 141.297 121.862C141.182 122.173 140.961 122.433 140.675 122.598C140.622 122.621 140.566 122.632 140.509 122.632C140.222 122.632 140.137 122.537 140.218 122.323C140.58 121.38 139.292 121.007 138.866 121.933C138.626 122.459 138.602 122.465 137.176 122.323C133.069 121.916 129.861 120.353 128.208 117.958C127.079 116.32 126.612 114.594 126.517 111.663C126.458 110.158 126.506 108.651 126.659 107.153C127.079 104.467 127.67 101.81 128.427 99.1995L128.749 98.216L129.425 99.169L130.101 100.122L129.445 100.983C127.346 103.751 127.143 107.146 128.918 109.9C130.162 111.84 131.794 112.82 134.901 113.491C135.452 113.61 135.452 113.61 135.043 114.021C133.937 115.133 135.381 116.276 136.523 116.276C136.718 116.287 136.909 116.338 137.084 116.426C137.258 116.514 137.413 116.637 137.538 116.788C138.078 117.402 138.41 117.436 138.775 116.91C138.974 116.625 139.363 116.547 141.868 116.449L143.098 116.408C148.081 116.242 148.243 116.184 148.196 114.658C148.194 114.138 148.11 113.622 147.949 113.129C147.831 112.888 147.452 111.992 147.111 111.151C146.769 110.31 146.411 109.489 146.316 109.337C146.222 109.184 146.316 108.896 146.611 108.591C147.145 108.055 147.685 106.437 147.861 104.86C147.976 103.843 148 103.795 148.51 103.9C154.257 104.439 160.463 102.048 161.504 101.526L163.404 100.573L163.742 101.251C164.564 103.039 165.733 109.747 166.038 114.55L166.044 114.553Z" fill="#005F73"/>
<path d="M89.6239 84.4402C89.6426 84.5652 89.6232 84.693 89.5683 84.8067C89.5135 84.9205 89.4256 85.015 89.3163 85.0778C88.7045 85.3899 86.7573 85.5255 86.4564 85.2745C86.1556 85.0236 86.0948 84.2571 86.3348 84.0095C86.4125 83.9281 87.1596 83.8942 88.025 83.9281C89.4346 83.9722 89.5732 84.0265 89.6239 84.4402Z" fill="#005F73"/>
<path d="M74.3851 100.018C74.2908 99.8725 74.2379 99.7041 74.2319 99.5308C74.226 99.3575 74.2673 99.1858 74.3514 99.0343C74.6657 98.4408 75.4128 98.6036 75.6595 99.3226C76.0618 100.469 74.9023 101.103 74.3851 100.018Z" fill="#005F73"/>
<path d="M74.3851 100.018C74.2908 99.8725 74.2379 99.7041 74.2319 99.5308C74.226 99.3575 74.2673 99.1858 74.3514 99.0343C74.6657 98.4408 75.4128 98.6036 75.6595 99.3226C76.0618 100.469 74.9023 101.103 74.3851 100.018Z" fill="#005F73"/>
<path d="M215.979 157.023L216.037 156.992L216.006 157.093C215.996 157.07 215.987 157.047 215.979 157.023Z" fill="#005F73"/>
</g>
<defs>
<linearGradient id="paint0_linear_3046_102600" x1="136.057" y1="191.118" x2="202.896" y2="14.0587" gradientUnits="userSpaceOnUse">
<stop offset="0.5" stop-color="#005F73" stop-opacity="0"/>
<stop offset="1" stop-color="#005F73"/>
</linearGradient>
<linearGradient id="paint1_linear_3046_102600" x1="269.277" y1="195.618" x2="335.935" y2="18.9744" gradientUnits="userSpaceOnUse">
<stop offset="0.143904" stop-color="#005F73"/>
<stop offset="1" stop-color="#005F73" stop-opacity="0"/>
</linearGradient>
<clipPath id="clip0_3046_102600">
<rect width="350" height="195" fill="white" transform="translate(0.5 0.5)"/>
</clipPath>
</defs>
</svg>
