<svg width="24" height="24" viewBox="0 0 24 24" fill="none" xmlns="http://www.w3.org/2000/svg">
<path d="M7.82509 13.0008L12.7251 17.9008C12.9251 18.1008 13.0211 18.3341 13.0131 18.6008C13.0051 18.8674 12.9008 19.1008 12.7001 19.3008C12.5001 19.4841 12.2668 19.5801 12.0001 19.5888C11.7334 19.5974 11.5001 19.5014 11.3001 19.3008L4.70009 12.7008C4.60009 12.6008 4.52909 12.4924 4.48709 12.3758C4.44509 12.2591 4.42475 12.1341 4.42609 12.0008C4.42742 11.8674 4.44842 11.7424 4.48909 11.6258C4.52975 11.5091 4.60042 11.4008 4.70109 11.3008L11.3011 4.70078C11.4844 4.51745 11.7138 4.42578 11.9891 4.42578C12.2644 4.42578 12.5018 4.51745 12.7011 4.70078C12.9011 4.90078 13.0011 5.13845 13.0011 5.41378C13.0011 5.68911 12.9011 5.92645 12.7011 6.12578L7.82509 11.0008H19.0001C19.2834 11.0008 19.5211 11.0968 19.7131 11.2888C19.9051 11.4808 20.0008 11.7181 20.0001 12.0008C19.9994 12.2834 19.9034 12.5211 19.7121 12.7138C19.5208 12.9064 19.2834 13.0021 19.0001 13.0008H7.82509Z" fill="white"/>
</svg>
