<svg width="27" height="28" viewBox="0 0 27 28" fill="none" xmlns="http://www.w3.org/2000/svg">
<path fill-rule="evenodd" clip-rule="evenodd" d="M2.84318 10.2686C2.84318 7.54522 3.92505 4.93336 5.8508 3.00761C7.77654 1.08187 10.3884 0 13.1118 0C15.8352 0 18.4471 1.08187 20.3728 3.00761C22.2986 4.93336 23.3805 7.54522 23.3805 10.2686V15.7902L26.0532 21.1358C26.1763 21.3818 26.2344 21.6552 26.222 21.93C26.2096 22.2048 26.1272 22.4719 25.9826 22.7059C25.838 22.9399 25.6359 23.1331 25.3957 23.267C25.1554 23.4009 24.8848 23.4712 24.6098 23.4712H18.7948C18.4685 24.7302 17.7333 25.8452 16.7048 26.6411C15.6762 27.4371 14.4124 27.869 13.1118 27.869C11.8112 27.869 10.5475 27.4371 9.51888 26.6411C8.4903 25.8452 7.75517 24.7302 7.42886 23.4712H1.61388C1.3388 23.4712 1.06827 23.4009 0.827989 23.267C0.587711 23.1331 0.385662 22.9399 0.241031 22.7059C0.0964006 22.4719 0.0139913 22.2048 0.0016302 21.93C-0.0107309 21.6552 0.0473666 21.3818 0.170405 21.1358L2.84318 15.7902V10.2686ZM10.5711 23.4712C10.8286 23.9171 11.1989 24.2875 11.6449 24.545C12.0909 24.8024 12.5968 24.938 13.1118 24.938C13.6268 24.938 14.1327 24.8024 14.5787 24.545C15.0247 24.2875 15.3951 23.9171 15.6526 23.4712H10.5711ZM13.1118 2.9339C11.1665 2.9339 9.30091 3.70666 7.92537 5.08219C6.54984 6.45772 5.77708 8.32334 5.77708 10.2686V15.7902C5.77705 16.2455 5.67108 16.6945 5.46755 17.1017L3.75122 20.5373H22.4739L20.7576 17.1017C20.5535 16.6946 20.447 16.2456 20.4466 15.7902V10.2686C20.4466 8.32334 19.6738 6.45772 18.2983 5.08219C16.9227 3.70666 15.0571 2.9339 13.1118 2.9339Z" fill="white"/>
</svg>
