<svg width="106" height="73" viewBox="0 0 106 73" fill="none" xmlns="http://www.w3.org/2000/svg">
<path d="M96.6681 63.7959C93.2814 67.4912 88.7552 69.9035 84.3232 72.245C84.8287 71.978 62.0141 51.7528 72.6646 51.9797C75.5364 52.041 79.4549 57.1244 81.8613 58.5972C86.3539 61.3457 91.4359 63.1525 96.6681 63.7959Z" fill="url(#paint0_linear_12318_17712)"/>
<path d="M76.5063 62.212C77.6151 62.1981 78.6217 61.2513 78.7092 60.1462L77.9068 60.0842C77.8536 60.7787 77.1942 61.3972 76.4976 61.4052L76.5063 62.212Z" fill="#A6BAF7"/>
<rect width="4.21542" height="0.807487" transform="matrix(0.703516 -0.71068 0.710674 0.703522 79.1094 65.259)" fill="#A6BAF7"/>
<rect width="7.44902" height="0.806758" transform="matrix(0.716177 -0.697918 0.697913 0.716183 82.1133 70.0625)" fill="#A6BAF7"/>
<path d="M102.302 41.1831C103.359 44.6582 103.196 48.3717 103.023 52C103.043 51.5864 82.0151 58.3651 86.0809 51.8038C87.1751 50.0349 91.7939 49.4637 93.5999 48.5052C96.9893 46.7125 99.9563 44.216 102.302 41.1831V41.1831Z" fill="url(#paint1_linear_12318_17712)"/>
<path d="M93.8829 53.1819C94.2819 52.4846 94.0638 51.5042 93.4059 51.0454L93.0703 51.5247C93.4839 51.8164 93.6261 52.4532 93.3752 52.8909L93.8829 53.1819Z" fill="#A6BAF7"/>
<rect width="0.585007" height="3.0549" transform="matrix(0.967223 -0.253929 0.253925 0.967224 95.9707 49.7312)" fill="#A6BAF7"/>
<rect width="0.585007" height="5.39786" transform="matrix(0.971631 -0.236501 0.236497 0.971632 99.5688 47.3438)" fill="#A6BAF7"/>
<path d="M50.0538 20.1167C48.9648 22.9841 48.8867 26.1215 48.8276 29.1888C48.8349 28.8386 66.1627 35.7537 63.1114 29.9911C62.2886 28.4374 58.4328 27.6927 56.9659 26.7816C54.2133 25.0778 51.8567 22.8055 50.0538 20.1167Z" fill="url(#paint2_linear_12318_17712)"/>
<path d="M56.4577 30.7049C56.1616 30.0951 56.4016 29.2832 56.9822 28.9331L57.2368 29.3555C56.8645 29.6017 56.7233 30.08 56.9019 30.489L56.4577 30.7049Z" fill="#A6BAF7"/>
<rect width="2.5793" height="0.493828" transform="matrix(0.318957 -0.947769 0.947768 0.318962 53.6094 29.9673)" fill="#A6BAF7"/>
<rect width="4.55827" height="0.493828" transform="matrix(0.301868 -0.95335 0.953348 0.301873 50.1558 29.6499)" fill="#A6BAF7"/>
<g opacity="0.79">
<path opacity="0.7" d="M38.6442 21.5526C39.1548 27.186 46.5498 26.2822 50.472 25.8161C55.1316 25.2625 61.0262 23.0771 64.8345 27.3356C67.9937 30.8668 68.6371 35.9984 71.8874 39.426C77.9841 45.8553 88.717 47.153 95.5109 41.0308C107.67 30.0688 97.584 11.9852 86.1377 5.05187C70.8779 -4.19452 48.5871 1.19459 39.9667 16.9658C39.8799 17.1227 39.7945 17.2802 39.7121 17.4392C39.0694 18.6654 38.5508 20.0134 38.6325 21.3957C38.6354 21.4453 38.6391 21.4986 38.6442 21.5526Z" fill="url(#paint3_linear_12318_17712)"/>
</g>
<rect width="29.1769" height="31.3519" transform="matrix(0.308517 -0.951219 0.951217 0.308521 0.350586 41.3157)" fill="url(#paint4_linear_12318_17712)"/>
<rect x="3.33984" y="48.8162" width="28.2167" height="22.593" rx="11.2965" fill="url(#paint5_linear_12318_17712)"/>
<path d="M9.17978 54.5034H25.7204C26.0153 54.5034 26.298 54.6205 26.5065 54.829C26.715 55.0375 26.8321 55.3203 26.8321 55.6151V64.8848C26.8321 65.4984 26.3347 65.9958 25.7212 65.9958H9.17978C8.56623 65.9958 8.06885 65.4984 8.06885 64.8848V55.6144C8.06885 55.0008 8.56623 54.5034 9.17978 54.5034V54.5034Z" fill="white"/>
<path fill-rule="evenodd" clip-rule="evenodd" d="M17.5069 60.2035L8.76025 55.6926L17.5069 59.2465L26.3907 55.6926L17.5069 60.2035Z" fill="#AECDFF"/>
<path d="M52.5341 56.4628C53.0535 56.8889 53.8011 56.8907 54.3226 56.4672L75.6097 39.6091C74.7876 38.5054 73.5316 37.7986 72.123 37.7986H33.9444C32.7671 37.7986 31.7196 38.3982 31.042 39.3304C31.0673 39.341 31.0917 39.3537 31.1149 39.3683L52.5341 56.4628Z" fill="url(#paint6_linear_12318_17712)"/>
<path d="M55.0764 57.5958C54.1124 58.3806 52.729 58.3775 51.7684 57.5885L48.518 54.9939L32.0992 70.8658C32.0868 70.8775 32.0715 70.8811 32.0591 70.8921C32.4194 71.0579 32.8113 71.1438 33.2079 71.1437H73.6456C73.8701 71.1416 74.0935 71.1119 74.3109 71.0555L57.9628 55.3149L55.0764 57.5958Z" fill="url(#paint7_linear_12318_17712)"/>
<path d="M47.4603 54.1483L30.4309 40.5552C30.3055 40.9651 30.2416 41.3914 30.2413 41.82V67.9238C30.2371 68.7385 30.5298 69.5268 31.0648 70.1413C31.0943 70.0208 31.1552 69.9104 31.2413 69.8211L47.4603 54.1483Z" fill="url(#paint8_linear_12318_17712)"/>
<path d="M75.4357 70.2729C75.4688 70.3103 75.4974 70.3515 75.5211 70.3955C76.2185 69.7636 76.6138 68.8645 76.6079 67.9234V42.6709C76.6086 42.0368 76.4936 41.408 76.2687 40.8152L59.0249 54.471L75.4357 70.2729Z" fill="url(#paint9_linear_12318_17712)"/>
<path d="M94.676 15.4211C94.5325 15.4209 94.4032 15.3343 94.3483 15.2017C94.2934 15.0691 94.3237 14.9165 94.4251 14.8149L97.4099 11.8293C97.4989 11.7358 97.6316 11.698 97.7565 11.7304C97.8814 11.7628 97.9789 11.8605 98.0112 11.9855C98.0435 12.1104 98.0054 12.2431 97.9118 12.3319L94.9269 15.3168C94.8605 15.3835 94.7702 15.421 94.676 15.4211Z" fill="#00E8EA"/>
<path d="M85.7211 24.3767C85.5776 24.3761 85.4485 24.2894 85.3937 24.1568C85.3389 24.0242 85.369 23.8716 85.4702 23.7698L91.4399 17.8001C91.5795 17.6672 91.7995 17.6699 91.9358 17.806C92.0722 17.9422 92.0751 18.1622 91.9425 18.3019L85.972 24.2724C85.9056 24.3392 85.8153 24.3767 85.7211 24.3767Z" fill="#00E8EA"/>
<path d="M102.312 16.1042C102.169 16.1042 102.039 16.0178 101.984 15.8851C101.929 15.7525 101.959 15.5997 102.061 15.498L105.044 12.516C105.183 12.3775 105.407 12.3775 105.546 12.516C105.685 12.6546 105.685 12.8793 105.546 13.0179L102.564 15.9999C102.497 16.0668 102.407 16.1043 102.312 16.1042Z" fill="#00E8EA"/>
<path d="M93.3579 25.0631C93.2142 25.0631 93.0847 24.9767 93.0296 24.844C92.9745 24.7114 93.0048 24.5586 93.1062 24.4569L99.0767 18.4864C99.1664 18.3966 99.2973 18.3616 99.4199 18.3944C99.5426 18.4273 99.6384 18.5231 99.6712 18.6457C99.7041 18.7684 99.669 18.8992 99.5792 18.989L93.6088 24.9587C93.5423 25.0255 93.4521 25.063 93.3579 25.0631Z" fill="#00E8EA"/>
<path d="M92.9734 35.6844C92.8299 35.6842 92.7006 35.5977 92.6457 35.4651C92.5908 35.3325 92.6211 35.1799 92.7224 35.0783L101.694 26.1061C101.784 26.0165 101.915 25.9815 102.037 26.0143C102.16 26.0471 102.255 26.1428 102.288 26.2652C102.321 26.3877 102.286 26.5184 102.196 26.608L93.2243 35.5801C93.1579 35.6469 93.0676 35.6845 92.9734 35.6844Z" fill="#00E8EA"/>
<path d="M77.6014 50.2228C70.6295 50.2228 63.4285 41.3236 67.258 34.6587C68.4696 32.5499 70.3063 30.8357 72.437 29.673C76.7407 27.3213 82.2844 27.4081 85.6638 31.3091C87.5553 33.4975 88.559 36.3875 88.559 39.2673C88.5582 45.2925 83.6273 50.2228 77.6014 50.2228Z" fill="#03BCE1"/>
<rect x="65.5435" y="26.8438" width="21.91" height="21.9102" rx="10.955" fill="#00E8EA"/>
<path d="M75.3615 41.8778C75.0916 41.8777 74.8329 41.7698 74.643 41.578L71.8551 38.7624C71.477 38.363 71.4873 37.7347 71.8781 37.3478C72.269 36.9609 72.8973 36.9571 73.2928 37.3392L75.2929 39.3598L79.6426 34.0874C80.0023 33.6724 80.6274 33.6201 81.051 33.9697C81.4746 34.3192 81.542 34.9429 81.2028 35.3748L76.1413 41.5094C75.9589 41.7292 75.6921 41.8617 75.4067 41.8742L75.3615 41.8778Z" fill="white"/>
<defs>
<linearGradient id="paint0_linear_12318_17712" x1="103.764" y1="60.8146" x2="86.1392" y2="40.332" gradientUnits="userSpaceOnUse">
<stop stop-color="#CDDBFF"/>
<stop offset="1" stop-color="white"/>
</linearGradient>
<linearGradient id="paint1_linear_12318_17712" x1="98.3654" y1="38.1938" x2="82.978" y2="50.6833" gradientUnits="userSpaceOnUse">
<stop stop-color="#CDDBFF"/>
<stop offset="1" stop-color="white"/>
</linearGradient>
<linearGradient id="paint2_linear_12318_17712" x1="42.8277" y1="30.0406" x2="55.9585" y2="40.8429" gradientUnits="userSpaceOnUse">
<stop stop-color="#CDDBFF"/>
<stop offset="1" stop-color="white"/>
</linearGradient>
<linearGradient id="paint3_linear_12318_17712" x1="97.349" y1="63.6841" x2="108.382" y2="6.23327" gradientUnits="userSpaceOnUse">
<stop stop-color="#CDDBFF"/>
<stop offset="1" stop-color="white"/>
</linearGradient>
<linearGradient id="paint4_linear_12318_17712" x1="6.72745" y1="7.0427" x2="6.72745" y2="24.3527" gradientUnits="userSpaceOnUse">
<stop stop-color="#CDDBFF"/>
<stop offset="0.89" stop-color="#FAFBFF"/>
<stop offset="1" stop-color="white"/>
</linearGradient>
<linearGradient id="paint5_linear_12318_17712" x1="52.0137" y1="75.8631" x2="52.0137" y2="20.5109" gradientUnits="userSpaceOnUse">
<stop stop-color="#CDDBFF"/>
<stop offset="1" stop-color="white"/>
</linearGradient>
<linearGradient id="paint6_linear_12318_17712" x1="31.042" y1="56.784" x2="75.6097" y2="56.784" gradientUnits="userSpaceOnUse">
<stop stop-color="#934DE6"/>
<stop offset="1" stop-color="#6229CE"/>
</linearGradient>
<linearGradient id="paint7_linear_12318_17712" x1="32.0562" y1="71.1437" x2="74.3079" y2="71.1437" gradientUnits="userSpaceOnUse">
<stop stop-color="#934DE6"/>
<stop offset="1" stop-color="#6229CE"/>
</linearGradient>
<linearGradient id="paint8_linear_12318_17712" x1="30.2413" y1="70.1413" x2="47.4603" y2="70.1413" gradientUnits="userSpaceOnUse">
<stop stop-color="#934DE6"/>
<stop offset="1" stop-color="#6229CE"/>
</linearGradient>
<linearGradient id="paint9_linear_12318_17712" x1="59.0249" y1="70.3954" x2="76.6079" y2="70.3954" gradientUnits="userSpaceOnUse">
<stop stop-color="#934DE6"/>
<stop offset="1" stop-color="#6229CE"/>
</linearGradient>
</defs>
</svg>
