<svg width="16" height="15" viewBox="0 0 16 15" fill="none" xmlns="http://www.w3.org/2000/svg">
<path d="M7.52441 1.08203C7.67409 0.621375 8.32591 0.621376 8.47559 1.08203L9.54492 4.37305C9.74573 4.99108 10.3218 5.41016 10.9717 5.41016H14.4326C14.917 5.41016 15.1184 6.02975 14.7266 6.31445L11.9268 8.34863C11.4011 8.73052 11.1812 9.40745 11.3818 10.0254L12.4512 13.3174C12.6008 13.778 12.0735 14.1616 11.6816 13.877L8.88184 11.8418C8.35614 11.4599 7.64386 11.4599 7.11816 11.8418L4.31836 13.877C3.9265 14.1616 3.39915 13.778 3.54883 13.3174L4.61816 10.0254C4.81877 9.40745 4.59887 8.73052 4.07324 8.34863L1.27344 6.31445C0.881582 6.02975 1.08302 5.41016 1.56738 5.41016H5.02832C5.67816 5.41016 6.25427 4.99108 6.45508 4.37305L7.52441 1.08203Z" fill="white" stroke="#FFC300"/>
</svg>
