<svg width="118" height="118" viewBox="0 0 118 118" fill="none" xmlns="http://www.w3.org/2000/svg">
<path d="M61.2079 99.4462C36.8669 99.4462 11.7263 68.8239 25.0962 45.8899C29.3262 38.6334 35.7387 32.7349 43.1775 28.7339C58.2028 20.6416 77.5574 20.9403 89.3561 34.3639C95.9595 41.8939 99.4637 51.8386 99.4637 61.7482C99.4612 82.4809 82.2458 99.4462 61.2079 99.4462Z" fill="#F5776C" fill-opacity="0.2"/>
<rect x="18.5363" y="19.0967" width="76.6681" height="76.1205" rx="38.0602" fill="#F5776C"/>
<path fill-rule="evenodd" clip-rule="evenodd" d="M56.8703 60.9594L66.4449 70.4658C67.5025 71.5158 69.2173 71.5158 70.2749 70.4658C71.3325 69.4157 71.3325 67.7133 70.2749 66.6633L60.7002 57.157L70.2749 47.6506C71.3325 46.6006 71.3325 44.8981 70.2749 43.8481C69.2173 42.7981 67.5025 42.7981 66.4449 43.8481L56.8703 53.3544L47.2956 43.8481C46.238 42.798 44.5233 42.798 43.4657 43.8481C42.4081 44.8981 42.4081 46.6006 43.4657 47.6506L53.0404 57.157L43.4657 66.6633C42.4081 67.7133 42.4081 69.4157 43.4657 70.4658C44.5233 71.5158 46.238 71.5158 47.2956 70.4658L56.8703 60.9594Z" fill="white"/>
</svg>
