<svg width="22" height="22" viewBox="0 0 22 22" fill="none" xmlns="http://www.w3.org/2000/svg">
<path d="M2.66667 10.9998C2.66667 10.9998 5.69667 5.1665 11 5.1665C16.3033 5.1665 19.3333 10.9998 19.3333 10.9998C19.3333 10.9998 16.3033 16.8332 11 16.8332C5.69667 16.8332 2.66667 10.9998 2.66667 10.9998Z" stroke="#999999" stroke-width="1.5" stroke-linecap="round" stroke-linejoin="round"/>
<path d="M11 13.5C11.663 13.5 12.2989 13.2366 12.7678 12.7678C13.2366 12.2989 13.5 11.663 13.5 11C13.5 10.337 13.2366 9.70107 12.7678 9.23223C12.2989 8.76339 11.663 8.5 11 8.5C10.337 8.5 9.70107 8.76339 9.23223 9.23223C8.76339 9.70107 8.5 10.337 8.5 11C8.5 11.663 8.76339 12.2989 9.23223 12.7678C9.70107 13.2366 10.337 13.5 11 13.5V13.5Z" stroke="#999999" stroke-width="1.5" stroke-linecap="round" stroke-linejoin="round"/>
</svg>
