<svg width="76" height="76" viewBox="0 0 76 76" fill="none" xmlns="http://www.w3.org/2000/svg">
<path d="M3.18449 33.1703C2.30401 34.0506 1.60555 35.0957 1.12902 36.2459C0.652495 37.3961 0.407227 38.629 0.407227 39.874C0.407227 41.119 0.652495 42.3519 1.12902 43.5021C1.60555 44.6523 2.30401 45.6974 3.18449 46.5777L13.9111 57.3005C15.4511 58.8404 17.4743 59.8032 19.6406 60.0268C21.8069 60.2504 23.9841 59.7213 25.8061 58.5284C27.6282 57.3355 28.9839 55.5516 29.6453 53.4767C30.3067 51.4017 30.2335 49.1623 29.438 47.135L32.4372 44.1358L56.7304 72.1638C57.6831 73.262 58.8517 74.1523 60.1635 74.7791C61.4752 75.406 62.902 75.7561 64.3549 75.8076C65.8079 75.859 67.2558 75.6108 68.6086 75.0783C69.9614 74.5458 71.1901 73.7404 72.2181 72.7124C73.2462 71.6844 74.0515 70.4557 74.584 69.1029C75.1165 67.7501 75.3648 66.3021 75.3133 64.8492C75.2618 63.3963 74.9118 61.9695 74.2849 60.6577C73.658 59.346 72.7677 58.1774 71.6696 57.2247L43.6416 32.9315L46.6408 29.936C48.6688 30.7335 50.9096 30.8079 52.986 30.1467C55.0624 29.4855 56.8475 28.129 58.041 26.3057C59.2344 24.4825 59.7632 22.3037 59.5383 20.1362C59.3134 17.9687 58.3486 15.9448 56.8062 14.4054L46.0834 3.67875C44.5435 2.13881 42.5202 1.17609 40.354 0.952464C38.1877 0.728842 36.0104 1.25797 34.1884 2.45086C32.3664 3.64375 31.0106 5.42765 30.3492 7.50258C29.6878 9.57751 29.761 11.8169 30.5565 13.8442L13.3537 31.047C11.636 30.3727 9.75876 30.2144 7.95234 30.5915C6.14592 30.9687 4.48888 31.865 3.18449 33.1703Z" fill="#005F73"/>
</svg>
