<svg width="20" height="20" viewBox="0 0 20 20" fill="none" xmlns="http://www.w3.org/2000/svg">
<path d="M2.23832 8.71687C2.0448 8.91033 1.8913 9.14002 1.78657 9.39282C1.68183 9.64561 1.62793 9.91657 1.62793 10.1902C1.62793 10.4638 1.68183 10.7348 1.78657 10.9876C1.8913 11.2404 2.0448 11.4701 2.23832 11.6635L4.59582 14.0202C4.93427 14.3586 5.37893 14.5702 5.85504 14.6194C6.33115 14.6685 6.80966 14.5522 7.21011 14.2901C7.61055 14.0279 7.90851 13.6358 8.05388 13.1798C8.19925 12.7238 8.18316 12.2316 8.00832 11.786L8.66748 11.1269L14.0067 17.2869C14.216 17.5282 14.4729 17.7239 14.7612 17.8617C15.0495 17.9994 15.363 18.0764 15.6824 18.0877C16.0017 18.099 16.3199 18.0444 16.6173 17.9274C16.9146 17.8104 17.1846 17.6334 17.4106 17.4074C17.6365 17.1815 17.8135 16.9115 17.9305 16.6141C18.0476 16.3168 18.1021 15.9986 18.0908 15.6793C18.0795 15.3599 18.0026 15.0464 17.8648 14.7581C17.727 14.4698 17.5313 14.2129 17.29 14.0035L11.13 8.66437L11.7892 8.00603C12.2349 8.1813 12.7273 8.19765 13.1837 8.05233C13.6401 7.90701 14.0324 7.60889 14.2947 7.20817C14.557 6.80744 14.6732 6.32859 14.6238 5.85221C14.5743 5.37584 14.3623 4.93104 14.0233 4.5927L11.6667 2.2352C11.3282 1.89675 10.8835 1.68516 10.4074 1.63602C9.93132 1.58687 9.45281 1.70316 9.05236 1.96533C8.65192 2.22751 8.35395 2.61957 8.20859 3.0756C8.06322 3.53163 8.07931 4.02381 8.25415 4.46937L4.47332 8.2502C4.09579 8.10199 3.68321 8.0672 3.2862 8.1501C2.88918 8.23299 2.525 8.42997 2.23832 8.71687Z" fill="#005F73"/>
</svg>
