<svg width="33" height="33" viewBox="0 0 33 33" fill="none" xmlns="http://www.w3.org/2000/svg">
<path d="M16.4313 24.75C16.9125 24.75 17.3195 24.5836 17.6523 24.2509C17.985 23.9181 18.1509 23.5116 18.15 23.0312C18.1491 22.5509 17.9832 22.1439 17.6523 21.8103C17.3213 21.4766 16.9143 21.3107 16.4313 21.3125C15.9482 21.3143 15.5416 21.4807 15.2116 21.8116C14.8816 22.1425 14.7153 22.5491 14.7125 23.0312C14.7098 23.5134 14.8761 23.9204 15.2116 24.2523C15.5471 24.5841 15.9537 24.75 16.4313 24.75ZM16.5 30.25C14.5979 30.25 12.8104 29.8888 11.1375 29.1665C9.46459 28.4442 8.00938 27.4647 6.77188 26.2281C5.53438 24.9915 4.55492 23.5363 3.8335 21.8625C3.11209 20.1887 2.75092 18.4012 2.75 16.5C2.74909 14.5988 3.11025 12.8113 3.8335 11.1375C4.55675 9.46367 5.53621 8.00846 6.77188 6.77188C8.00754 5.53529 9.46275 4.55583 11.1375 3.8335C12.8123 3.11117 14.5998 2.75 16.5 2.75C18.4003 2.75 20.1877 3.11117 21.8625 3.8335C23.5373 4.55583 24.9925 5.53529 26.2281 6.77188C27.4638 8.00846 28.4437 9.46367 29.1679 11.1375C29.892 12.8113 30.2528 14.5988 30.25 16.5C30.2473 18.4012 29.8861 20.1887 29.1665 21.8625C28.4469 23.5363 27.4675 24.9915 26.2281 26.2281C24.9888 27.4647 23.5336 28.4446 21.8625 29.1679C20.1914 29.8911 18.4039 30.2518 16.5 30.25ZM16.5 27.5C19.5708 27.5 22.1719 26.4344 24.3031 24.3031C26.4344 22.1719 27.5 19.5708 27.5 16.5C27.5 13.4292 26.4344 10.8281 24.3031 8.69687C22.1719 6.56562 19.5708 5.5 16.5 5.5C13.4292 5.5 10.8281 6.56562 8.69688 8.69687C6.56563 10.8281 5.5 13.4292 5.5 16.5C5.5 19.5708 6.56563 22.1719 8.69688 24.3031C10.8281 26.4344 13.4292 27.5 16.5 27.5ZM16.6375 10.5875C17.2104 10.5875 17.7091 10.7708 18.1335 11.1375C18.5579 11.5042 18.7697 11.9625 18.7688 12.5125C18.7688 13.0167 18.6143 13.4635 18.3054 13.8531C17.9965 14.2427 17.6468 14.6094 17.2563 14.9531C16.7292 15.4115 16.2653 15.9156 15.8648 16.4656C15.4642 17.0156 15.2634 17.6344 15.2625 18.3219C15.2625 18.6427 15.383 18.9122 15.6241 19.1304C15.8652 19.3485 16.1457 19.4572 16.4656 19.4562C16.8094 19.4562 17.1018 19.3417 17.3429 19.1125C17.584 18.8833 17.7384 18.5969 17.8063 18.2531C17.8979 17.7719 18.1042 17.3424 18.425 16.9648C18.7458 16.5871 19.0896 16.2259 19.4563 15.8813C19.9833 15.3771 20.4362 14.8271 20.8148 14.2313C21.1933 13.6354 21.3822 12.9708 21.3813 12.2375C21.3813 11.0687 20.906 10.1122 19.9554 9.36788C19.0048 8.62354 17.8988 8.25092 16.6375 8.25C15.7667 8.25 14.9362 8.43333 14.146 8.8C13.3558 9.16667 12.754 9.72813 12.3406 10.4844C12.1802 10.7594 12.1289 11.0518 12.1866 11.3616C12.2444 11.6715 12.3988 11.9061 12.65 12.0656C12.9708 12.249 13.3031 12.3062 13.6469 12.2375C13.9906 12.1687 14.2771 11.974 14.5063 11.6531C14.7583 11.3094 15.0737 11.0458 15.4523 10.8625C15.8308 10.6792 16.2259 10.5875 16.6375 10.5875Z" fill="#FFC300"/>
</svg>