<svg width="81" height="81" viewBox="0 0 81 81" fill="none" xmlns="http://www.w3.org/2000/svg">
<path d="M78.0019 3.03361C77.265 2.28826 76.3872 1.69698 75.4196 1.29419C74.452 0.891411 73.414 0.685182 72.3659 0.68752H50.517C49.0838 0.690192 47.7094 1.25795 46.6922 2.26758L3.01395 45.9369C1.52356 47.4304 0.686523 49.4541 0.686523 51.564C0.686523 53.6739 1.52356 55.6976 3.01395 57.1911L23.8089 77.986C25.3027 79.477 27.3271 80.3144 29.4377 80.3144C31.5483 80.3144 33.5727 79.477 35.0666 77.986L78.727 34.3344C79.7387 33.3188 80.3084 31.9448 80.3124 30.5113V8.65002C80.3189 7.60742 80.1179 6.57395 79.7213 5.60974C79.3246 4.64553 78.7401 3.76984 78.0019 3.03361ZM63.2499 23.4375C62.125 23.4375 61.0254 23.104 60.0901 22.479C59.1548 21.8541 58.4258 20.9658 57.9953 19.9265C57.5649 18.8873 57.4522 17.7437 57.6717 16.6404C57.8911 15.5372 58.4328 14.5238 59.2282 13.7283C60.0237 12.9329 61.0371 12.3913 62.1403 12.1718C63.2436 11.9523 64.3872 12.065 65.4264 12.4955C66.4657 12.9259 67.3539 13.6549 67.9789 14.5902C68.6038 15.5255 68.9374 16.6251 68.9374 17.75C68.9374 19.2584 68.3382 20.7051 67.2716 21.7717C66.205 22.8383 64.7583 23.4375 63.2499 23.4375Z" fill="#005F73"/>
</svg>
