<svg width="24" height="24" viewBox="0 0 24 24" fill="none" xmlns="http://www.w3.org/2000/svg">
<path d="M17 5H15C15 4.7 15 4.5 14.9 4.3C14.6 2.9 13.4 2 12 2C10.6 2 9.4 2.9 9.1 4.2C9 4.5 9 4.7 9 5H7C7 4.5 7.1 4.1 7.2 3.7C7.7 1.5 9.7 0 12 0C14.3 0 16.3 1.5 16.8 3.8C16.9 4.1 17 4.5 17 5ZM12 16C9.2 16 7 13.8 7 11H9C9 12.7 10.3 14 12 14C13.7 14 15 12.7 15 11H17C17 13.8 14.8 16 12 16Z" fill="#949589"/>
<path d="M9 4.99922H7C7 4.49922 7.1 4.09922 7.2 3.69922L9.1 4.19922C9 4.49922 9 4.69922 9 4.99922ZM12 19.9992C7 19.9992 3 15.9992 3 10.9992C3 10.3992 3.4 9.99922 4 9.99922C4.6 9.99922 5 10.3992 5 10.9992C5 14.8992 8.1 17.9992 12 17.9992C15.9 17.9992 19 14.8992 19 10.9992C19 10.3992 19.4 9.99922 20 9.99922C20.6 9.99922 21 10.3992 21 10.9992C21 15.9992 17 19.9992 12 19.9992ZM16 23.9992H8C7.4 23.9992 7 23.5992 7 22.9992C7 22.3992 7.4 21.9992 8 21.9992H16C16.6 21.9992 17 22.3992 17 22.9992C17 23.5992 16.6 23.9992 16 23.9992Z" fill="#949589"/>
<path d="M12 24C11.4 24 11 23.6 11 23V19C11 18.4 11.4 18 12 18C12.6 18 13 18.4 13 19V23C13 23.6 12.6 24 12 24ZM8 12C7.4 12 7 11.6 7 11V5C7 4.4 7.4 4 8 4C8.6 4 9 4.4 9 5V11C9 11.6 8.6 12 8 12ZM16 12C15.4 12 15 11.6 15 11V5C15 4.4 15.4 4 16 4C16.6 4 17 4.4 17 5V11C17 11.6 16.6 12 16 12Z" fill="#949589"/>
</svg>
