<svg width="46" height="43" viewBox="0 0 46 43" fill="none" xmlns="http://www.w3.org/2000/svg">
<rect width="46" height="42.979" rx="21.4895" fill="white"/>
<path d="M23 28L18.8 29.8C18.1333 30.0833 17.5 30.0293 16.9 29.638C16.3 29.2467 16 28.6923 16 27.975V15C16 14.45 16.196 13.9793 16.588 13.588C16.98 13.1967 17.4507 13.0007 18 13H28C28.55 13 29.021 13.196 29.413 13.588C29.805 13.98 30.0007 14.4507 30 15V27.975C30 28.6917 29.7 29.246 29.1 29.638C28.5 30.03 27.8667 30.084 27.2 29.8L23 28ZM23 25.8L28 27.95V15H18V27.95L23 25.8ZM23 15H18H28H23Z" fill="#005F73"/>
</svg>
