<svg width="33" height="33" viewBox="0 0 33 33" fill="none" xmlns="http://www.w3.org/2000/svg">
<path d="M16.5 24.75L10.725 27.225C9.80833 27.6146 8.9375 27.5403 8.1125 27.0023C7.2875 26.4642 6.875 25.702 6.875 24.7156V6.875C6.875 6.11875 7.1445 5.47158 7.6835 4.9335C8.2225 4.39542 8.86967 4.12592 9.625 4.125H23.375C24.1313 4.125 24.7789 4.3945 25.3179 4.9335C25.8569 5.4725 26.1259 6.11967 26.125 6.875V24.7156C26.125 25.701 25.7125 26.4633 24.8875 27.0023C24.0625 27.5413 23.1917 27.6155 22.275 27.225L16.5 24.75ZM16.5 21.725L23.375 24.6813V6.875H9.625V24.6813L16.5 21.725ZM16.5 6.875H9.625H23.375H16.5Z" fill="#FFC300"/>
</svg>