<svg width="24" height="24" viewBox="0 0 24 24" fill="none" xmlns="http://www.w3.org/2000/svg">
<path fill-rule="evenodd" clip-rule="evenodd" d="M10.5 5.5C9.17392 5.5 7.90215 6.02678 6.96447 6.96447C6.02678 7.90215 5.5 9.17392 5.5 10.5C5.5 11.8261 6.02678 13.0979 6.96447 14.0355C7.90215 14.9732 9.17392 15.5 10.5 15.5C11.8261 15.5 13.0979 14.9732 14.0355 14.0355C14.9732 13.0979 15.5 11.8261 15.5 10.5C15.5 9.17392 14.9732 7.90215 14.0355 6.96447C13.0979 6.02678 11.8261 5.5 10.5 5.5ZM4 10.5C4 8.77609 4.68482 7.12279 5.90381 5.90381C7.12279 4.68482 8.77609 4 10.5 4C12.2239 4 13.8772 4.68482 15.0962 5.90381C16.3152 7.12279 17 8.77609 17 10.5C17 12.2239 16.3152 13.8772 15.0962 15.0962C13.8772 16.3152 12.2239 17 10.5 17C8.77609 17 7.12279 16.3152 5.90381 15.0962C4.68482 13.8772 4 12.2239 4 10.5Z" fill="#999999"/>
<path fill-rule="evenodd" clip-rule="evenodd" d="M14.4701 14.4698C14.6107 14.3294 14.8013 14.2505 15.0001 14.2505C15.1988 14.2505 15.3894 14.3294 15.5301 14.4698L19.5301 18.4698C19.6038 18.5385 19.6629 18.6213 19.7039 18.7133C19.7448 18.8053 19.7669 18.9046 19.7687 19.0053C19.7704 19.106 19.7519 19.206 19.7142 19.2994C19.6765 19.3928 19.6203 19.4776 19.5491 19.5489C19.4779 19.6201 19.3931 19.6762 19.2997 19.714C19.2063 19.7517 19.1063 19.7702 19.0056 19.7684C18.9048 19.7666 18.8055 19.7446 18.7135 19.7036C18.6215 19.6626 18.5387 19.6035 18.4701 19.5298L14.4701 15.5298C14.3296 15.3892 14.2507 15.1986 14.2507 14.9998C14.2507 14.8011 14.3296 14.6105 14.4701 14.4698Z" fill="#999999"/>
</svg>
