<svg width="64" height="64" viewBox="0 0 64 64" fill="none" xmlns="http://www.w3.org/2000/svg">
<rect x="0.5" y="0.5" width="63" height="63" rx="5.5" fill="#005F73" fill-opacity="0.06"/>
<rect x="0.5" y="0.5" width="63" height="63" rx="5.5" stroke="#005F73" stroke-linejoin="round" stroke-dasharray="10 4"/>
<path fill-rule="evenodd" clip-rule="evenodd" d="M32.0287 24.8965C32.4084 24.897 32.7158 25.2052 32.7153 25.5849L32.6985 38.4182C32.698 38.7979 32.3898 39.1053 32.0101 39.1048C31.6304 39.1043 31.323 38.7961 31.3235 38.4164L31.3403 25.5831C31.3408 25.2034 31.649 24.896 32.0287 24.8965Z" fill="#005F73"/>
<path fill-rule="evenodd" clip-rule="evenodd" d="M24.8958 32C24.8958 31.6203 25.2036 31.3125 25.5833 31.3125H38.4166C38.7963 31.3125 39.1041 31.6203 39.1041 32C39.1041 32.3797 38.7963 32.6875 38.4166 32.6875H25.5833C25.2036 32.6875 24.8958 32.3797 24.8958 32Z" fill="#005F73"/>
</svg>
