<svg width="42" height="42" viewBox="0 0 42 42" fill="none" xmlns="http://www.w3.org/2000/svg">
<rect width="42" height="42" rx="21" fill="#005F73"/>
<path fill-rule="evenodd" clip-rule="evenodd" d="M27.687 14.3125C27.8228 14.4483 27.8688 14.6499 27.8053 14.8312L23.372 27.4979C23.3043 27.6914 23.1253 27.8239 22.9205 27.8323C22.7156 27.8406 22.5264 27.7231 22.4432 27.5358L19.9879 22.0115L14.4637 19.5563C14.2763 19.473 14.1588 19.2838 14.1672 19.079C14.1755 18.8741 14.3081 18.6952 14.5016 18.6274L27.1682 14.1941C27.3495 14.1306 27.5512 14.1767 27.687 14.3125ZM16.0223 19.1547L20.5698 21.1758C20.6829 21.2261 20.7734 21.3165 20.8237 21.4296L22.8448 25.9772L26.5184 15.481L16.0223 19.1547Z" fill="white"/>
<path fill-rule="evenodd" clip-rule="evenodd" d="M27.6869 14.3125C27.8822 14.5077 27.8822 14.8243 27.6869 15.0196L20.7203 21.9862C20.525 22.1815 20.2084 22.1815 20.0131 21.9862C19.8179 21.791 19.8179 21.4744 20.0131 21.2791L26.9798 14.3125C27.1751 14.1172 27.4917 14.1172 27.6869 14.3125Z" fill="white"/>
</svg>
