<svg width="87" height="39" viewBox="0 0 87 39" fill="none" xmlns="http://www.w3.org/2000/svg">
<rect width="87" height="39" rx="8" fill="#005F73"/>
<path fill-rule="evenodd" clip-rule="evenodd" d="M25.9449 13.6805C26.0435 13.8349 26.0214 14.0371 25.8918 14.1667L19.2648 20.7938C19.1435 20.915 18.9574 20.9429 18.8059 20.8627L14.1117 18.3776C13.9754 18.3054 13.8943 18.1598 13.9048 18.0059C13.9153 17.852 14.0154 17.7187 14.1603 17.6658L25.4815 13.5238C25.6536 13.4609 25.8463 13.526 25.9449 13.6805ZM15.2524 18.0978L18.9164 20.0376L24.0891 14.8649L15.2524 18.0978Z" fill="#F8F8F7"/>
<path fill-rule="evenodd" clip-rule="evenodd" d="M25.8258 13.5613C25.9803 13.6599 26.0454 13.8526 25.9825 14.0247L21.8406 25.3459C21.7876 25.4908 21.6543 25.5909 21.5004 25.6014C21.3465 25.6119 21.2009 25.5308 21.1287 25.3945L18.6435 20.7003C18.5633 20.5488 18.5913 20.3627 18.7125 20.2415L25.3396 13.6144C25.4692 13.4848 25.6714 13.4628 25.8258 13.5613ZM24.6414 15.4171L19.4687 20.5898L21.4085 24.2538L24.6414 15.4171Z" fill="#F8F8F7"/>
<path d="M47.648 24.084C47.088 24.084 46.584 23.988 46.136 23.796C45.688 23.596 45.336 23.316 45.08 22.956C44.824 22.596 44.696 22.176 44.696 21.696H46.16C46.192 22.056 46.332 22.352 46.58 22.584C46.836 22.816 47.192 22.932 47.648 22.932C48.12 22.932 48.488 22.82 48.752 22.596C49.016 22.364 49.148 22.068 49.148 21.708C49.148 21.428 49.064 21.2 48.896 21.024C48.736 20.848 48.532 20.712 48.284 20.616C48.044 20.52 47.708 20.416 47.276 20.304C46.732 20.16 46.288 20.016 45.944 19.872C45.608 19.72 45.32 19.488 45.08 19.176C44.84 18.864 44.72 18.448 44.72 17.928C44.72 17.448 44.84 17.028 45.08 16.668C45.32 16.308 45.656 16.032 46.088 15.84C46.52 15.648 47.02 15.552 47.588 15.552C48.396 15.552 49.056 15.756 49.568 16.164C50.088 16.564 50.376 17.116 50.432 17.82H48.92C48.896 17.516 48.752 17.256 48.488 17.04C48.224 16.824 47.876 16.716 47.444 16.716C47.052 16.716 46.732 16.816 46.484 17.016C46.236 17.216 46.112 17.504 46.112 17.88C46.112 18.136 46.188 18.348 46.34 18.516C46.5 18.676 46.7 18.804 46.94 18.9C47.18 18.996 47.508 19.1 47.924 19.212C48.476 19.364 48.924 19.516 49.268 19.668C49.62 19.82 49.916 20.056 50.156 20.376C50.404 20.688 50.528 21.108 50.528 21.636C50.528 22.06 50.412 22.46 50.18 22.836C49.956 23.212 49.624 23.516 49.184 23.748C48.752 23.972 48.24 24.084 47.648 24.084ZM58.2022 20.532C58.2022 20.78 58.1862 21.004 58.1542 21.204H53.1022C53.1422 21.732 53.3382 22.156 53.6902 22.476C54.0422 22.796 54.4742 22.956 54.9862 22.956C55.7222 22.956 56.2422 22.648 56.5462 22.032H58.0222C57.8222 22.64 57.4582 23.14 56.9302 23.532C56.4102 23.916 55.7622 24.108 54.9862 24.108C54.3542 24.108 53.7862 23.968 53.2822 23.688C52.7862 23.4 52.3942 23 52.1062 22.488C51.8262 21.968 51.6862 21.368 51.6862 20.688C51.6862 20.008 51.8222 19.412 52.0942 18.9C52.3742 18.38 52.7622 17.98 53.2582 17.7C53.7622 17.42 54.3382 17.28 54.9862 17.28C55.6102 17.28 56.1662 17.416 56.6542 17.688C57.1422 17.96 57.5222 18.344 57.7942 18.84C58.0662 19.328 58.2022 19.892 58.2022 20.532ZM56.7742 20.1C56.7662 19.596 56.5862 19.192 56.2342 18.888C55.8822 18.584 55.4462 18.432 54.9262 18.432C54.4542 18.432 54.0502 18.584 53.7142 18.888C53.3782 19.184 53.1782 19.588 53.1142 20.1H56.7742ZM62.8844 17.28C63.4044 17.28 63.8684 17.388 64.2764 17.604C64.6924 17.82 65.0164 18.14 65.2484 18.564C65.4804 18.988 65.5964 19.5 65.5964 20.1V24H64.2404V20.304C64.2404 19.712 64.0924 19.26 63.7964 18.948C63.5004 18.628 63.0964 18.468 62.5844 18.468C62.0724 18.468 61.6644 18.628 61.3604 18.948C61.0644 19.26 60.9164 19.712 60.9164 20.304V24H59.5484V17.388H60.9164V18.144C61.1404 17.872 61.4244 17.66 61.7684 17.508C62.1204 17.356 62.4924 17.28 62.8844 17.28ZM66.8854 20.664C66.8854 20 67.0214 19.412 67.2934 18.9C67.5734 18.388 67.9494 17.992 68.4214 17.712C68.9014 17.424 69.4334 17.28 70.0174 17.28C70.4494 17.28 70.8734 17.376 71.2894 17.568C71.7134 17.752 72.0494 18 72.2974 18.312V15.12H73.6774V24H72.2974V23.004C72.0734 23.324 71.7614 23.588 71.3614 23.796C70.9694 24.004 70.5174 24.108 70.0054 24.108C69.4294 24.108 68.9014 23.964 68.4214 23.676C67.9494 23.38 67.5734 22.972 67.2934 22.452C67.0214 21.924 66.8854 21.328 66.8854 20.664ZM72.2974 20.688C72.2974 20.232 72.2014 19.836 72.0094 19.5C71.8254 19.164 71.5814 18.908 71.2774 18.732C70.9734 18.556 70.6454 18.468 70.2934 18.468C69.9414 18.468 69.6134 18.556 69.3094 18.732C69.0054 18.9 68.7574 19.152 68.5654 19.488C68.3814 19.816 68.2894 20.208 68.2894 20.664C68.2894 21.12 68.3814 21.52 68.5654 21.864C68.7574 22.208 69.0054 22.472 69.3094 22.656C69.6214 22.832 69.9494 22.92 70.2934 22.92C70.6454 22.92 70.9734 22.832 71.2774 22.656C71.5814 22.48 71.8254 22.224 72.0094 21.888C72.2014 21.544 72.2974 21.144 72.2974 20.688Z" fill="#F8F8F7"/>
</svg>
