<svg width="20" height="20" viewBox="0 0 20 20" fill="none" xmlns="http://www.w3.org/2000/svg">
<path d="M4.16675 3.3335H15.8334C16.0695 3.3335 16.2676 3.4135 16.4276 3.5735C16.5876 3.7335 16.6673 3.93127 16.6667 4.16683C16.6662 4.40238 16.5862 4.60044 16.4267 4.761C16.2673 4.92155 16.0695 5.00127 15.8334 5.00016H4.16675C3.93064 5.00016 3.73286 4.92016 3.57341 4.76016C3.41397 4.60016 3.33397 4.40238 3.33341 4.16683C3.33286 3.93127 3.41286 3.7335 3.57341 3.5735C3.73397 3.4135 3.93175 3.3335 4.16675 3.3335ZM4.16675 16.6668C3.93064 16.6668 3.73286 16.5868 3.57341 16.4268C3.41397 16.2668 3.33397 16.0691 3.33341 15.8335V11.6668H3.18758C2.92369 11.6668 2.70841 11.566 2.54175 11.3643C2.37508 11.1627 2.31953 10.9302 2.37508 10.6668L3.20841 6.50016C3.25008 6.30572 3.3473 6.146 3.50008 6.021C3.65286 5.896 3.82647 5.8335 4.02091 5.8335H15.9792C16.1737 5.8335 16.3473 5.896 16.5001 6.021C16.6529 6.146 16.7501 6.30572 16.7917 6.50016L17.6251 10.6668C17.6806 10.9307 17.6251 11.1632 17.4584 11.3643C17.2917 11.5654 17.0765 11.6663 16.8126 11.6668H16.6667V15.8335C16.6667 16.0696 16.5867 16.2677 16.4267 16.4277C16.2667 16.5877 16.069 16.6674 15.8334 16.6668C15.5979 16.6663 15.4001 16.5863 15.2401 16.4268C15.0801 16.2674 15.0001 16.0696 15.0001 15.8335V11.6668H11.6667V15.8335C11.6667 16.0696 11.5867 16.2677 11.4267 16.4277C11.2667 16.5877 11.069 16.6674 10.8334 16.6668H4.16675ZM5.00008 15.0002H10.0001V11.6668H5.00008V15.0002ZM4.20842 10.0002H15.7917L15.2917 7.50016H4.70841L4.20842 10.0002Z" fill="#005F73"/>
</svg>
