<svg width="24" height="24" viewBox="0 0 24 24" fill="none" xmlns="http://www.w3.org/2000/svg">
<path fill-rule="evenodd" clip-rule="evenodd" d="M19.0001 4.74141V8.00041C19.394 8.00041 19.7841 8.078 20.1481 8.22877C20.5121 8.37953 20.8428 8.60051 21.1214 8.87909C21.4 9.15766 21.6209 9.48838 21.7717 9.85236C21.9225 10.2163 22.0001 10.6064 22.0001 11.0004C22.0001 11.3944 21.9225 11.7845 21.7717 12.1485C21.6209 12.5124 21.4 12.8432 21.1214 13.1217C20.8428 13.4003 20.5121 13.6213 20.1481 13.772C19.7841 13.9228 19.394 14.0004 19.0001 14.0004V17.0004C19.0001 18.6484 17.1191 19.5894 15.8001 18.6004L13.7401 17.0544C12.6389 16.2288 11.3568 15.6776 10.0001 15.4464V18.2904C10.0002 18.9442 9.76395 19.5759 9.33495 20.0692C8.90596 20.5625 8.3131 20.8841 7.66567 20.9747C7.01824 21.0653 6.35987 20.9188 5.81193 20.5623C5.26399 20.2057 4.86342 19.6631 4.68405 19.0344L3.11405 13.5384C2.54907 12.8712 2.18139 12.0596 2.05234 11.1949C1.92329 10.3302 2.03799 9.44664 2.38354 8.64354C2.72909 7.84044 3.29179 7.14965 4.0084 6.6488C4.72501 6.14796 5.56711 5.85692 6.44005 5.80841L9.45805 5.64041C10.9347 5.55839 12.3708 5.12688 13.6481 4.38141L15.9921 3.01341C17.3261 2.23641 19.0001 3.19741 19.0001 4.74141ZM5.63405 15.0784L6.60705 18.4854C6.65388 18.6503 6.75879 18.7927 6.90243 18.8863C7.04606 18.9799 7.2187 19.0184 7.38848 18.9946C7.55826 18.9708 7.71371 18.8865 7.82612 18.757C7.93853 18.6276 8.00031 18.4618 8.00005 18.2904V15.2804L6.44005 15.1934C6.16871 15.177 5.89915 15.1386 5.63405 15.0784ZM17.0001 4.74141L14.6551 6.11041C13.231 6.94212 11.6421 7.45205 10.0001 7.60441V13.4234C11.7871 13.6694 13.4881 14.3664 14.9401 15.4544L17.0001 17.0004V4.74141ZM8.00005 7.72441L6.55005 7.80441C5.8755 7.84165 5.23942 8.13043 4.76737 8.61373C4.29532 9.09703 4.0216 9.73973 4.00026 10.415C3.97891 11.0902 4.21148 11.7489 4.65205 12.2611C5.09263 12.7732 5.7092 13.1016 6.38005 13.1814L6.55005 13.1964L8.00005 13.2764V7.72441ZM19.0001 10.0004V12.0004C19.2549 12.0001 19.5001 11.9025 19.6854 11.7276C19.8708 11.5526 19.9823 11.3135 19.9972 11.059C20.0122 10.8046 19.9294 10.554 19.7658 10.3586C19.6022 10.1631 19.3701 10.0375 19.1171 10.0074L19.0001 10.0004Z" fill="#333333"/>
</svg>
