<svg width="118" height="118" viewBox="0 0 118 118" fill="none" xmlns="http://www.w3.org/2000/svg">
<path d="M61.2077 99.5604C36.8668 99.5604 11.7262 68.9382 25.0961 46.0041C29.3261 38.7477 35.7386 32.8491 43.1774 28.8481C58.2027 20.7558 77.5573 21.0545 89.3559 34.4781C95.9594 42.0082 99.4636 51.9529 99.4636 61.8624C99.4611 82.5952 82.2457 99.5604 61.2077 99.5604Z" fill="#03E17D" fill-opacity="0.2"/>
<rect x="18.5361" y="19.2109" width="76.6681" height="76.1205" rx="38.0602" fill="#00EA94"/>
<path d="M52.9334 71.3676C51.9989 71.3672 51.1032 70.9934 50.4456 70.3292L40.7921 60.5766C39.483 59.1932 39.5183 57.0171 40.8717 55.677C42.2252 54.337 44.4008 54.3238 45.7704 55.6473L52.696 62.6459L67.7572 44.3839C69.0027 42.9465 71.1672 42.7656 72.634 43.9763C74.1008 45.187 74.3342 47.3471 73.1598 48.8433L55.6335 70.0917C55.0019 70.853 54.0781 71.3119 53.09 71.3549L52.9334 71.3676Z" fill="white"/>
</svg>
