<svg width="500" height="700" viewBox="0 0 500 700" fill="none" xmlns="http://www.w3.org/2000/svg">
<g clip-path="url(#clip0_2456_6209)">
<path d="M500 0H0V700H500V0Z" fill="#025F73"/>
<path fill-rule="evenodd" clip-rule="evenodd" d="M365.113 432.008C357.842 435.989 349.43 441.963 348.65 452.839C358.527 442.2 370.729 435.851 383.173 434.876C374.576 450.038 363.721 462.68 351.507 471.754C340.538 479.903 326.651 488.594 325.71 505.929C337.49 486.29 355.603 474.4 373.921 474.282C362.201 498.312 343.409 515.358 322.954 520.511C323.656 527.895 346.336 543.712 352.942 546.755C357.647 575.051 359.685 611.746 364.389 640.042C365.547 647.005 366.566 655.006 363.521 660.745C360.499 666.437 354.793 667.417 349.74 667.92C329.824 669.902 302.575 671.884 282.659 673.866C280.275 658.742 277.891 643.618 275.506 628.494C241.912 632.861 97.8941 679.065 71.4647 654.826C-30.5612 561.255 99.54 529.381 102.336 415.459C102.977 389.338 46.8793 343.678 47.77 316.986C48.3516 299.557 50.2788 282.532 56.4382 267.566C62.5976 252.601 72.358 241.073 82.966 232.255C68.3607 226.999 57.2986 206.617 57.5945 185.509C57.8905 164.402 69.516 144.643 84.2567 140.195C77.3067 128.599 66.363 123.285 58.3694 113.093C49.0574 101.22 44.378 82.0681 47.77 65.0866C51.162 48.105 63.1048 34.7443 75.6887 35.4971C86.0247 36.1155 95.1207 45.268 102.336 55.6485C113.525 71.7475 121.847 91.7241 126.347 113.286C129.345 127.658 140.336 134.969 149.618 142.406C158.899 149.844 168.539 162.8 165.923 177.317C162.466 157.451 213.851 181.113 260.454 186.907C266.642 187.676 273.301 188.795 277.875 194.679C284.448 203.135 294.317 206.22 302.834 202.48C305.544 211.885 307.538 222.45 305.234 232.065C302.931 241.68 294.771 249.019 288.248 244.608C289.951 256.871 291.653 269.135 293.356 281.398C310.033 281.679 326.709 282.156 343.381 282.829C352.217 283.186 361.452 283.748 369.132 289.877C376.811 296.006 387.09 287.323 394.679 265.015C389.767 301.415 395.586 315.96 405.621 319.914C405.641 319.639 406.421 319.769 406.444 319.495C409.431 283.524 426.866 251.587 451.13 238.952C448.984 245.874 433.632 259.546 422.971 277.006C412.558 294.061 407.574 316.893 407.058 320.993C423.592 314.924 429.105 332.169 457.157 316.986C444.338 338.562 419.637 343.875 402.783 328.68C394.833 341.094 395.277 354.84 389.645 369.532C399.213 352.884 411.917 367.644 401.839 378.434C407.188 379.153 412.972 380.14 416.852 385.345C420.732 390.551 420.829 401.506 415.824 404.246C398.921 413.5 382.017 422.754 365.113 432.008Z" fill="white"/>
<path fill-rule="evenodd" clip-rule="evenodd" d="M337.674 349.969C338.287 348.341 338.951 346.633 340.077 345.684C341.203 344.734 342.931 344.93 343.537 346.564C344.182 348.301 343.222 350.395 342.095 351.555C340.968 352.715 339.582 353.533 338.85 355.201C342.808 358.853 346.766 362.504 350.724 366.155C353.824 369.015 357.332 373.099 356.697 378.221C356.325 381.223 354.507 383.557 352.482 384.677C350.458 385.798 348.232 385.915 346.056 386.003C331.433 386.593 316.795 386.488 302.176 385.691C301.162 385.636 300.031 385.503 299.356 384.443C298.832 383.622 298.724 382.45 298.64 381.356C297.798 370.463 296.956 359.569 296.115 348.676C296.084 348.274 296.054 347.854 296.158 347.475C296.59 345.885 298.29 346.864 299.24 347.926C305.97 355.446 316.728 354.562 322.783 345.993C324.246 343.922 326.737 344.19 328.617 345.438C330.496 346.687 332.069 348.718 333.955 349.948C333.754 348.422 334.715 346.811 335.824 346.818C336.932 346.824 337.884 348.445 337.674 349.969Z" fill="#025F73"/>
<path fill-rule="evenodd" clip-rule="evenodd" d="M102.185 229.745C102.185 229.745 100.551 202.352 104.663 193.546C108.775 184.74 124.437 182.089 124.437 182.089C124.437 182.089 167.364 181.303 190.558 182.545C213.751 183.786 260.137 189.35 260.137 189.35C260.137 189.35 266.165 191.192 268.874 193.546C271.584 195.9 275.363 202.58 275.363 202.58C275.363 202.58 283.587 204.259 287.678 204.487C291.769 204.716 295.517 203.705 295.517 203.705C295.517 203.705 300.731 224.993 297.045 235.14C293.359 245.286 280.983 243.712 280.983 243.712L285.365 281.686C285.365 281.686 280.156 285.132 277.309 289.452C274.463 293.774 273.32 299.969 273.32 299.969L281.78 415.46C281.78 415.46 284.269 421.463 289.615 423.743C294.961 426.022 307.005 426.216 307.005 426.216C307.005 426.216 306.576 437.862 307.005 442.874C307.435 447.885 307.818 450.631 307.818 450.631L316.886 541.517C316.886 541.517 308.072 543.761 299.351 546.724C290.629 549.686 273.32 556.314 273.32 556.314C273.32 556.314 267.218 560.208 266.428 566.497C265.637 572.785 268.874 591.683 268.874 591.683L171.703 602.053C171.703 602.053 162.247 602.302 158.994 599.433C155.741 596.564 154.85 587.187 154.85 587.187L141.707 421.687C141.707 421.687 120.703 422.407 114.569 417.504C108.435 412.6 107.693 394.499 107.693 394.499C107.693 394.499 108.712 384.239 107.693 377.118C107.353 374.743 102.911 348.989 101.419 324.484C100.574 310.617 112.229 299.969 112.229 299.969L102.185 229.745Z" fill="#025F73"/>
<path fill-rule="evenodd" clip-rule="evenodd" d="M170.752 191.643C169.996 193.134 170.629 195.358 171.721 196.362C172.813 197.365 174.189 197.478 175.494 197.56C189.67 198.453 203.845 199.347 218.021 200.24C219.402 200.327 220.932 200.346 221.978 199.081C223.025 197.816 222.886 194.798 221.521 194.495C205.758 190.986 189.762 189.529 173.807 190.149C172.687 190.191 171.401 190.363 170.752 191.643Z" fill="white"/>
<path fill-rule="evenodd" clip-rule="evenodd" d="M233.82 333.891L230.136 309.689C230.136 309.689 229.964 314.68 228.014 316.71C226.063 318.74 222.207 317.942 222.207 317.942C222.207 317.942 221.597 301.041 224.311 295.894C227.025 290.748 229.699 295.609 234.855 293.963C240.007 292.318 238.939 286.9 244.925 289.313C250.911 291.725 255.334 309.66 255.334 309.66C255.334 309.66 250.641 311.862 248.643 311.297C246.647 310.733 247.133 307.341 247.133 307.341C247.133 307.341 245.718 306.498 246.079 312.444C246.254 315.333 247.816 319.677 248.643 325.36C248.952 327.476 248.643 332.231 248.643 332.231C248.643 332.231 243.317 332.992 238.715 334.371C234.112 335.751 233.82 333.891 233.82 333.891Z" fill="white"/>
<path fill-rule="evenodd" clip-rule="evenodd" d="M103.037 273.688C101.265 272.353 99.8225 270.314 98.4092 268.306C94.7639 263.126 91.0732 257.862 88.5445 251.511C88.3032 250.906 88.0666 250.211 88.2052 249.547C88.3446 248.882 89.0692 248.505 89.3399 249.084C93.7365 258.48 99.2879 266.814 105.677 273.607C105.103 274.689 103.885 274.328 103.037 273.688Z" fill="#FFC411"/>
<path fill-rule="evenodd" clip-rule="evenodd" d="M108.346 154.766C109.394 153.255 109.952 151.223 110.434 149.228C111.938 143.01 112.963 136.566 113.486 130.042C113.58 128.867 113.734 127.513 114.462 126.914C115.281 132.508 114.266 138.274 113.258 143.806C112.371 148.67 111.389 153.777 108.874 157.356C108.62 157.718 108.294 158.086 107.937 158.003C107.454 157.89 107.261 156.993 107.433 156.351C107.606 155.711 108.006 155.257 108.346 154.766Z" fill="#FFC411"/>
<path fill-rule="evenodd" clip-rule="evenodd" d="M361.147 203.558C361.646 203.372 362.153 203.922 362.37 204.578C362.588 205.233 362.604 205.977 362.7 206.687C363.079 209.459 364.864 211.734 366.871 212.001C367.121 212.816 366.568 213.631 366.13 214.272C365.134 215.73 364.506 217.671 364.378 219.681C364.295 220.985 364.099 222.8 363.164 222.783C362.412 222.769 362.082 221.497 361.812 220.515C361.15 218.117 359.658 216.199 357.896 215.481C357.526 215.33 357.37 214.668 357.472 214.147C357.574 213.627 357.856 213.22 358.125 212.834C359.283 211.17 360.458 209.2 360.446 206.877C360.439 205.621 360.28 203.883 361.147 203.558Z" fill="#FFB61D"/>
<path fill-rule="evenodd" clip-rule="evenodd" d="M396.255 421.772C394.7 424.01 394.149 427.511 394.889 430.456C394.07 430.969 393.457 429.388 393.051 428.266C392.443 426.584 391.292 425.303 389.984 424.852C391.879 423.179 393.058 420.03 392.964 416.896C393.726 416.2 394.578 417.649 394.797 418.886C395.016 420.121 395.346 421.728 396.255 421.772Z" fill="white"/>
<path fill-rule="evenodd" clip-rule="evenodd" d="M382.981 425.969C383.883 427.972 385.165 429.636 386.66 430.744C387.197 431.141 386.71 432.248 386.267 432.83C385.149 434.292 384.441 436.354 384.323 438.489C383.345 437.117 382.368 435.746 381.391 434.374C381.001 433.826 380.589 432.977 380.925 432.364C381.951 430.493 382.66 428.284 382.981 425.969Z" fill="white"/>
<path fill-rule="evenodd" clip-rule="evenodd" d="M317.685 184.747C318.574 176.815 320.725 169.02 324.502 162.98C328.28 156.939 333.795 152.816 339.53 152.822C345.265 152.829 351.057 157.376 353.44 164.678C354.673 168.457 354.975 172.711 354.891 176.863C354.732 184.761 353.217 192.599 350.509 199.531C348.067 205.781 344.557 211.405 340.001 214.575C335.443 217.747 329.764 218.172 325.334 214.667C321.826 211.891 319.372 206.909 318.203 201.511C317.033 196.112 317.059 190.32 317.685 184.747ZM352.735 178.745C352.839 173.827 352.259 168.749 350.412 164.564C349.289 162.019 347.716 159.867 345.873 158.353C339.93 153.474 331.841 156.095 326.904 162.825C321.968 169.554 319.828 179.499 319.607 189.14C319.49 194.283 319.885 199.556 321.447 204.213C323.009 208.871 325.866 212.855 329.426 214.135C334.083 215.809 338.999 212.656 342.651 208.276C348.744 200.969 352.499 189.973 352.735 178.745Z" fill="#FFB61D"/>
<path fill-rule="evenodd" clip-rule="evenodd" d="M376.369 179.24C375.421 180.976 374.429 183.256 375.157 185.189C375.417 185.881 374.744 186.685 374.208 186.468C373.671 186.249 373.367 185.456 373.224 184.7C373.081 183.944 373.035 183.134 372.749 182.463C372.462 181.792 371.811 181.325 371.337 181.739C370.663 181.627 370.594 180.204 370.986 179.428C371.378 178.651 372.022 178.117 372.263 177.229C372.453 176.524 372.351 175.734 372.441 174.992C372.532 174.25 372.983 173.458 373.503 173.648C373.486 174.951 373.594 176.306 374.067 177.429C374.539 178.554 375.444 179.395 376.369 179.24Z" fill="#FFB61D"/>
<path fill-rule="evenodd" clip-rule="evenodd" d="M291.536 176.67C292.277 175.463 293.209 174.43 294.301 173.99C295.394 173.55 296.662 173.783 297.515 174.835C298.444 175.979 298.735 177.891 298.537 179.601C298.34 181.311 297.724 182.865 297.076 184.34C296.235 186.254 295.322 188.107 294.341 189.887C294.035 190.442 293.699 191.015 293.23 191.263C292.611 191.59 291.92 191.272 291.309 190.914C289.162 189.658 287.166 187.895 285.432 185.723C283.844 183.734 282.379 180.819 283.023 177.975C283.433 176.163 284.685 174.852 286.027 174.572C287.37 174.292 288.762 174.955 289.829 176.129C290.341 176.69 291.113 177.359 291.536 176.67ZM284.753 177.722C283.739 179.675 284.84 182.412 286.117 184.033C287.712 186.056 289.605 187.55 291.48 189.028C291.721 189.218 291.99 189.414 292.26 189.333C292.501 189.26 292.68 188.984 292.839 188.72C294.109 186.612 295.247 184.349 296.235 181.964C296.995 180.13 297.553 177.433 296.328 176.184C295.359 175.196 293.947 175.992 293.126 177.215C292.305 178.436 291.788 180.032 290.89 181.145C290.189 179.598 289.444 177.991 288.307 177.083C287.171 176.176 285.523 176.24 284.753 177.722Z" fill="#FFB61D"/>
<path fill-rule="evenodd" clip-rule="evenodd" d="M277.015 123.296C279.34 120.759 281.924 118.689 284.665 117.169C286.345 116.238 288.262 115.521 289.923 116.519C292.584 118.117 293.102 123.467 291.702 127.014C290.302 130.563 287.647 132.714 285.119 134.691C280.162 138.567 275.204 142.443 270.248 146.319C271.224 143.592 270.122 140.39 269.22 137.612C267.189 131.357 266.126 124.49 266.125 117.618C266.124 115.447 266.24 113.212 266.92 111.261C267.601 109.311 268.958 107.692 270.508 107.642C272.988 107.56 274.638 111.177 275.474 114.446C276.207 117.309 276.724 120.281 277.015 123.296ZM287.521 118.323C283.512 119.464 279.776 122.417 277.008 126.633C276.736 127.049 276.206 126.866 275.956 126.423C275.708 125.979 275.66 125.384 275.612 124.824C275.3 121.115 274.607 117.468 273.562 114.031C272.978 112.115 272.002 110 270.515 109.966C269.413 109.941 268.454 111.177 268.047 112.611C267.641 114.046 267.675 115.643 267.753 117.183C268.188 125.768 269.802 134.235 272.48 141.983C276.865 138.543 281.25 135.103 285.636 131.662C287.004 130.588 288.397 129.489 289.46 127.875C290.524 126.261 291.224 124.019 290.915 121.867C290.606 119.714 289.058 117.886 287.521 118.323Z" fill="#FFB61D"/>
<path fill-rule="evenodd" clip-rule="evenodd" d="M246.328 548.582C259.127 546.541 272.01 545.513 284.892 545.505C287.255 545.504 289.311 542.934 290.271 539.911C291.231 536.888 291.308 533.478 291.309 530.17C291.314 517.878 290.488 505.617 289.663 493.379C289.328 488.417 288.994 483.454 288.66 478.491C288.456 475.48 288.241 472.401 287.336 469.655C285.764 464.889 282.283 461.791 278.657 460.456C275.031 459.121 271.22 459.303 267.473 459.496C255.033 460.133 242.593 460.772 230.152 461.409C237.324 457.727 245.134 457.554 252.772 457.424C258.627 457.324 264.482 457.224 270.338 457.123C276.322 457.021 283.161 457.441 286.979 463.895C289.446 468.065 289.99 473.773 290.402 479.155C291.7 496.103 292.651 513.104 293.253 530.127C293.453 535.769 293.292 542.399 290.01 545.686C288.175 547.524 285.794 547.8 283.543 548.014C269.834 549.314 256.124 550.613 242.415 551.913C239.196 552.219 235.804 552.48 232.908 550.488C231.902 549.796 230.869 548.231 231.409 546.857C235.866 550.254 241.286 549.387 246.328 548.582Z" fill="#FFC411"/>
<path fill-rule="evenodd" clip-rule="evenodd" d="M192.108 276.719C192.365 277.257 192.423 277.927 192.475 278.569C192.595 280.064 192.715 281.56 192.835 283.056C192.977 284.831 193.007 286.977 191.955 287.99C191.395 288.529 190.673 288.573 189.993 288.6C175.692 289.141 161.391 289.681 147.091 290.223C146.171 290.257 145.106 290.201 144.542 289.183C144.188 288.544 144.133 287.685 144.101 286.877C143.996 284.341 143.967 281.799 144.013 279.26C144.021 278.872 144.037 278.457 144.208 278.154C144.413 277.79 144.775 277.701 145.103 277.638C159.88 274.836 174.855 274.096 189.736 275.433C190.615 275.512 191.619 275.695 192.108 276.719ZM191.521 286.45C190.068 285.351 191.531 282.131 191.003 279.942C190.549 278.061 188.825 277.616 187.409 277.503C173.925 276.428 160.371 277.099 146.974 279.503C146.481 279.592 145.933 279.724 145.634 280.281C145.338 280.83 145.391 281.593 145.459 282.274C145.563 283.329 145.667 284.384 145.771 285.439C145.854 286.27 145.979 287.202 146.478 287.668C146.84 288.006 147.306 288.002 147.74 287.987C162.333 287.475 176.927 286.962 191.521 286.45Z" fill="#FFC411"/>
<path fill-rule="evenodd" clip-rule="evenodd" d="M219.013 312.163C219.081 309.942 219.15 307.719 219.218 305.497C219.35 301.164 219.512 296.669 220.951 292.828C222.39 288.986 225.495 286.002 228.51 286.999C230.396 287.624 232.134 289.699 234.031 289.142C235.682 288.657 236.696 286.371 238.09 285.042C241.416 281.874 246.052 284.817 248.802 288.927C251.766 293.356 253.694 299.124 254.221 305.149C254.266 305.66 254.288 306.234 254.053 306.631C253.859 306.959 253.54 307.072 253.243 307.168C252.098 307.535 250.953 307.902 249.808 308.269C248.833 308.582 247.822 308.895 246.842 308.612C245.863 308.328 244.922 307.27 244.843 305.875C244.551 313.676 248.724 321.128 247.561 328.768C247.128 328.437 246.696 328.106 246.264 327.776C247.284 320.114 242.407 312.697 243.425 305.035C243.56 304.02 243.85 302.942 244.498 302.449C245.146 301.957 246.17 302.516 246.144 303.547C246.104 305.198 247.377 306.432 248.557 306.418C249.737 306.404 250.81 305.518 251.819 304.659C252.178 304.354 252.08 303.597 251.93 303.047C250.814 298.949 249.347 295.038 247.57 291.425C246.37 288.984 244.922 286.57 242.927 285.579C240.932 284.587 238.296 285.598 237.562 288.379C236.702 291.633 233.452 291.853 231.066 290.915C228.68 289.976 226.002 288.511 223.874 290.287C222.093 291.773 221.498 294.939 221.164 297.803C220.592 302.716 220.328 307.699 220.376 312.676C220.472 313.436 221.164 313.68 221.715 313.661C224.617 313.555 227.312 310.35 227.856 306.358C228.638 307.617 228.917 309.323 229.17 310.953C230.046 316.601 230.922 322.248 231.798 327.896C232.068 329.635 231.753 332.307 230.503 331.991C229.936 325.831 229.097 319.721 227.991 313.707C225.901 314.372 223.81 315.037 221.72 315.702C221.078 315.906 220.361 316.095 219.8 315.615C219.025 314.953 218.974 313.433 219.013 312.163Z" fill="#FFC411"/>
<path fill-rule="evenodd" clip-rule="evenodd" d="M280.164 465.549C281.231 467.167 279.574 470.154 280.55 471.88C281.058 472.775 280.696 474.195 280.024 474.844C279.353 475.493 278.492 475.58 277.678 475.647C263.673 476.785 249.668 477.925 235.664 479.065C234.712 479.142 233.574 479.096 233.054 477.978C232.827 477.489 232.772 476.887 232.723 476.308C232.595 474.802 232.467 473.295 232.339 471.788C232.299 471.315 232.263 470.808 232.422 470.387C232.684 469.693 233.334 469.543 233.893 469.474C248.612 467.655 263.347 466.117 278.096 464.861C278.828 464.799 279.666 464.793 280.164 465.549ZM278.557 468.094C278.512 467.722 278.452 467.315 278.239 467.082C278.028 466.851 277.732 466.868 277.464 466.895C264.405 468.228 251.346 469.56 238.288 470.893C237.232 471.001 236.138 471.125 235.216 471.852C234.294 472.58 233.599 474.097 233.876 475.527C233.961 475.97 234.144 476.391 234.424 476.629C234.768 476.921 235.197 476.899 235.598 476.868C249.386 475.821 263.172 474.775 276.96 473.728C278.598 473.603 278.834 470.358 278.557 468.094Z" fill="#FFC411"/>
<path fill-rule="evenodd" clip-rule="evenodd" d="M291.214 447.992C293.692 457.124 294.483 466.955 295.253 476.664C297.042 499.222 298.831 521.779 300.62 544.336C299.289 544.49 298.676 542.097 298.51 540.242C295.8 509.891 294.927 479.149 290.344 449.242C290.634 448.826 290.924 448.408 291.214 447.992Z" fill="#FFC411"/>
<path fill-rule="evenodd" clip-rule="evenodd" d="M211.255 290.862C210.869 290.632 210.877 289.789 211.172 289.373C211.468 288.957 211.916 288.856 212.332 288.783C215.446 288.228 218.586 287.959 221.725 287.975C221.558 289.85 219.829 290.398 218.481 290.485C216.215 290.632 213.95 290.778 211.685 290.925C211.539 290.934 211.388 290.942 211.255 290.862Z" fill="#FFC411"/>
<path fill-rule="evenodd" clip-rule="evenodd" d="M228.825 520.26C228.567 513.546 228.308 506.832 228.049 500.119C227.353 482.047 226.635 463.791 223.042 446.407C222.583 444.188 222.059 441.935 221.043 440.115C218.499 435.557 213.789 435.033 209.658 435.033C193.729 435.034 177.8 437.155 162.156 441.358C160.567 441.785 158.914 442.275 157.645 443.683C155.63 445.92 155.099 449.852 154.911 453.443C154.569 459.999 154.908 466.625 155.913 473.046C155.337 472.912 154.763 472.778 154.188 472.644C152.08 466.497 151.119 459.588 151.427 452.784C151.561 449.829 151.949 446.82 153.037 444.28C155.742 437.964 161.696 436.449 166.926 435.665C180.196 433.675 193.515 432.335 206.852 431.648C212.221 431.371 218.286 431.582 221.971 437.055C223.823 439.808 224.762 443.508 225.499 447.147C228.058 459.791 228.764 473.002 229.457 486.108C230.135 498.914 230.812 511.719 231.489 524.523C231.649 527.533 231.806 530.59 231.371 533.546C229.954 543.177 222.627 549.035 215.653 550.2C208.678 551.365 201.657 549.133 194.633 548.97C185.189 548.75 175.688 552.266 166.373 550.07C163.691 549.437 160.838 548.106 159.363 544.905C158.34 542.685 158.155 539.933 157.999 537.3C156.894 518.727 155.789 500.154 154.685 481.582C154.611 480.338 155.271 478.484 155.954 479.287C157.172 497.177 158.39 515.067 159.608 532.956C159.773 535.378 159.952 537.87 160.756 540.027C161.923 543.157 164.279 545.148 166.72 546.034C169.162 546.921 171.721 546.849 174.244 546.802C184.915 546.607 195.592 546.979 206.243 547.917C209.806 548.231 213.406 548.605 216.925 547.769C220.443 546.932 223.935 544.737 226.119 540.785C229.23 535.157 229.099 527.366 228.825 520.26Z" fill="#FFC411"/>
<path fill-rule="evenodd" clip-rule="evenodd" d="M210.715 283.603C211.708 282.518 210.873 280.296 211.068 278.554C211.346 276.09 213.536 275.243 215.306 274.956C226.677 273.117 238.127 272.246 249.573 272.352C250.526 272.362 251.651 272.51 252.131 273.662C252.707 275.045 252.17 277.46 253.26 277.944C253.772 278.171 254.428 277.751 254.816 278.27C255.457 279.129 254.262 280.291 253.378 280.402C239.984 282.085 226.56 283.316 213.124 284.096C212.302 284.143 211.43 284.173 210.715 283.603ZM250.726 275.838C250.412 274.736 249.366 274.575 248.519 274.592C237.728 274.822 226.942 275.57 216.187 276.832C214.926 276.979 213.438 277.348 212.912 278.959C212.66 279.875 213.142 280.929 213.777 281.344C214.412 281.76 215.147 281.706 215.847 281.645C226.59 280.691 237.334 279.736 248.078 278.782C248.738 278.723 249.428 278.653 249.998 278.18C250.568 277.708 250.97 276.699 250.726 275.838Z" fill="#FFC411"/>
<path fill-rule="evenodd" clip-rule="evenodd" d="M265.206 496.545C266.863 498.388 266.154 502.426 267.595 504.596C268.265 505.604 269.269 505.998 270.213 506.385C270.821 506.633 271.572 507.258 271.379 508.1C271.181 508.964 270.283 508.825 269.679 508.494C267.711 507.414 265.491 505.619 265.381 502.662C265.302 500.504 264.844 498.375 264.059 496.515C264.28 495.991 264.865 496.167 265.206 496.545Z" fill="#FFC411"/>
<path fill-rule="evenodd" clip-rule="evenodd" d="M273.041 527.121C272.502 517.392 271.962 507.662 271.422 497.932C271.343 496.502 271.252 495.019 270.746 493.772C270.241 492.524 269.193 491.584 268.203 491.957C263.726 493.638 259.077 494.417 254.443 494.264C250.391 494.13 246.246 493.301 242.348 494.854C242.42 497.557 242.492 500.259 242.565 502.961C242.586 503.75 242.618 504.588 242.939 505.237C243.838 507.058 246.07 505.67 246.576 503.573C247.083 501.477 246.626 499.183 246.712 496.972C246.728 496.581 246.784 496.136 247.022 495.929C247.528 495.488 248.014 496.539 248.143 497.353C248.515 499.685 248.886 502.125 248.447 504.435C248.008 506.744 246.478 508.835 244.786 508.53C243.032 508.214 242.315 511.569 242.272 514.044C242.188 518.983 242.103 523.922 242.018 528.861C241.992 530.416 242.391 532.563 243.495 532.388C246.344 531.936 249.193 531.483 252.042 531.032C252.73 530.922 253.471 530.826 254.077 531.298C254.682 531.769 255.002 533.053 254.506 533.73C251.16 534.141 247.814 534.551 244.467 534.962C243.49 535.081 242.476 535.195 241.554 534.726C240.632 534.257 239.828 533.029 239.912 531.661C240.736 518.224 240.92 504.713 240.463 491.242C240.366 488.377 242.86 486.921 244.874 486.393C251.266 484.715 257.786 483.987 264.288 484.226C266.468 484.306 268.844 484.609 270.425 486.711C272.034 488.852 272.35 492.226 272.572 495.318C273.404 506.909 274.236 518.499 275.067 530.089C275.112 530.714 275.123 531.457 274.766 531.838C274.552 532.065 274.266 532.089 273.999 532.105C271.224 532.266 268.45 532.428 265.674 532.589C264.204 532.675 262.622 532.719 261.398 531.576C260.558 530.792 260.004 529.546 259.516 528.309C258.346 525.341 257.411 522.193 256.734 518.939C255.673 522.659 255.001 526.596 254.746 530.586C253.406 530.789 253.156 527.972 253.468 526.135C254.111 522.343 254.754 518.553 255.398 514.762C255.496 514.184 255.652 513.515 256.056 513.338C256.651 513.075 257.108 514.072 257.325 514.891C258.231 518.3 259.138 521.71 260.044 525.119C260.824 528.053 263.074 529.817 265.295 530.179C267.516 530.54 269.743 529.758 271.91 528.981C272.338 528.827 272.824 528.606 272.991 528.032C273.074 527.747 273.058 527.428 273.041 527.121ZM242.853 491.497C244.862 491.533 246.872 491.569 248.882 491.606C250.391 491.634 251.901 491.661 253.411 491.621C258.86 491.477 264.298 490.454 269.582 488.578C268.403 486.884 266.512 486.789 264.824 486.831C258.78 486.982 252.741 487.475 246.726 488.306C245.116 488.529 243.116 489.262 242.853 491.497Z" fill="#FFC411"/>
<path fill-rule="evenodd" clip-rule="evenodd" d="M233.859 484.209C233.744 483.33 234.559 482.85 235.19 482.712C242.481 481.13 249.868 480.431 257.245 480.625C257.35 480.628 257.459 480.632 257.557 480.689C257.903 480.891 257.887 481.654 257.612 482.011C257.337 482.369 256.933 482.43 256.559 482.469C249.535 483.206 242.408 482.827 235.527 484.93C234.888 485.126 233.977 485.11 233.859 484.209Z" fill="#FFC411"/>
<path fill-rule="evenodd" clip-rule="evenodd" d="M396.898 463.077C397.301 461.748 397.745 460.344 398.599 459.536C399.32 458.854 400.223 458.703 401.089 458.572C403.655 458.182 406.222 457.792 408.789 457.401C410.058 457.208 411.697 456.46 411.648 454.673C411.493 448.904 411.811 442.261 415.085 438.75C418.079 435.538 422.563 436.419 425.635 439.482C428.708 442.547 430.655 447.319 432.333 452.048C433.077 454.142 435.113 454.524 436.759 454.12C438.404 453.717 440.072 452.81 441.695 453.362C444.195 454.211 445.458 458.033 446.317 461.428C450.627 478.46 453.553 496.218 458.915 512.656C460.92 518.804 460.285 526.476 457.329 531.819C456.965 527.576 457.473 523.193 458.777 519.328C459.391 517.508 457.346 516.311 455.907 516.316C441.251 516.369 426.531 516.427 412.036 519.471C411.593 519.564 411.123 519.678 410.793 520.102C410.472 520.513 410.347 521.136 410.236 521.725C409.787 524.115 409.337 526.505 408.888 528.895C408.606 530.392 408.783 532.717 409.883 532.561C424.229 530.527 438.651 529.557 453.07 529.656C454.587 529.667 456.657 530.509 456.46 532.614C441.1 532.868 425.683 533.127 410.489 536.293C408.07 536.797 406.399 532.603 406.673 529.2C406.948 525.797 408.342 522.745 408.735 519.365C409.073 516.452 408.65 513.481 408.194 510.599C407.469 506.018 406.659 501.463 405.766 496.941C404.894 492.527 403.942 488.146 402.99 483.765C401.551 477.14 400.111 470.513 398.671 463.886C396.691 467.945 395.809 473.027 396.238 477.906C396.537 481.301 397.436 484.527 398.11 487.817C399.073 492.519 399.579 497.377 400.082 502.218C401.073 511.753 402.064 521.288 403.055 530.824C403.201 532.227 402.913 534.294 401.911 534.087C397.456 514.794 398.679 493.464 393.422 474.571C394.581 470.74 395.739 466.908 396.898 463.077ZM430.076 466.577C431.527 465.447 432.279 462.808 431.781 460.59C431.284 458.37 429.59 456.807 427.937 457.041C423.884 457.616 419.831 458.191 415.779 458.766C415.404 458.819 414.985 458.906 414.761 459.328C414.583 459.661 414.58 460.111 414.597 460.525C414.705 463.118 415.347 465.663 416.427 467.775C417.267 469.415 418.427 471.379 417.772 473.177C416.953 475.422 414.262 474.163 413.595 471.821C412.927 469.48 413.402 466.837 413.278 464.321C413.154 461.805 411.863 458.91 410.086 459.328C407.173 460.015 404.261 460.701 401.347 461.388C400.929 461.487 400.383 461.848 400.506 462.416C404.053 478.853 407.6 495.29 411.147 511.728C411.589 513.777 412.586 516.312 414.074 515.825C427.737 511.358 442.142 515.583 456.015 512.647C451.859 494.404 447.559 476.227 443.116 458.116C442.985 457.583 442.837 457.014 442.511 456.681C442.15 456.311 441.665 456.323 441.219 456.349C439.137 456.473 437.057 456.596 434.976 456.719C434.153 456.768 433.03 457.317 433.211 458.443C433.776 461.972 434.341 465.502 434.907 469.031C435.005 469.637 435.1 470.288 434.938 470.868C434.498 472.445 432.839 472.047 431.732 471.364C431.006 470.917 430.242 470.426 429.793 469.51C429.345 468.594 429.382 467.117 430.076 466.577ZM424.713 440.972C423.117 439.333 421.018 438.151 419.177 439.166C418.535 439.52 417.977 440.114 417.429 440.701C416.454 441.748 415.449 442.841 414.873 444.361C414.337 445.775 414.227 447.419 414.127 449.014C414.039 450.407 413.952 451.801 413.864 453.194C413.81 454.058 413.788 455.051 414.235 455.651C414.665 456.227 415.339 456.185 415.931 456.107C420.169 455.542 424.408 454.978 428.647 454.413C429.251 454.333 429.989 454.103 430.149 453.283C430.211 452.96 430.161 452.615 430.104 452.29C429.323 447.793 427.378 443.71 424.713 440.972ZM423.125 455.715C422.699 455.884 423.173 457.004 423.483 456.561C423.88 456.333 423.44 455.289 423.106 455.665L423.125 455.715Z" fill="#FFB61D"/>
<path fill-rule="evenodd" clip-rule="evenodd" d="M288.731 322.307C288.657 321.959 288.804 321.596 288.978 321.328C289.832 320.011 291.262 319.913 292.532 319.909C300.234 319.885 307.936 319.859 315.639 319.834C316.181 319.832 316.761 319.847 317.204 320.286C317.646 320.725 317.819 321.758 317.394 322.229C317.168 322.479 316.856 322.495 316.567 322.5C307.62 322.639 298.672 322.778 289.724 322.917C289.335 322.923 288.842 322.83 288.731 322.307Z" fill="#FFC411"/>
<path fill-rule="evenodd" clip-rule="evenodd" d="M291.587 333.44C291.123 333.066 291.187 332.019 291.577 331.505C291.968 330.993 292.537 330.872 293.068 330.782C296.257 330.245 299.463 329.949 302.667 329.653C304.433 329.49 306.198 329.327 307.963 329.165C310.259 328.953 312.554 328.741 314.849 328.529C315.579 328.462 316.393 328.433 316.941 329.108C317.491 329.783 317.357 331.407 316.627 331.469C308.527 332.172 300.425 332.875 292.325 333.577C292.073 333.599 291.805 333.616 291.587 333.44Z" fill="#FFC411"/>
<path fill-rule="evenodd" clip-rule="evenodd" d="M335.01 348.104C335.623 346.476 336.287 344.768 337.413 343.818C338.539 342.869 340.267 343.065 340.873 344.698C341.518 346.435 340.558 348.53 339.431 349.69C338.304 350.85 336.918 351.668 336.186 353.336C340.144 356.988 344.102 360.639 348.06 364.29C351.16 367.15 354.668 371.234 354.033 376.355C353.661 379.358 351.843 381.692 349.818 382.812C347.794 383.933 345.568 384.05 343.392 384.137C328.769 384.727 314.131 384.623 299.512 383.826C298.498 383.771 297.367 383.638 296.692 382.578C296.168 381.756 296.06 380.585 295.976 379.49C295.134 368.597 294.292 357.704 293.451 346.811C293.42 346.408 293.39 345.988 293.494 345.609C293.926 344.02 295.626 344.999 296.576 346.061C303.306 353.581 314.064 352.697 320.119 344.127C321.582 342.057 324.073 342.325 325.953 343.573C327.832 344.822 329.405 346.853 331.291 348.083C331.09 346.557 332.051 344.946 333.16 344.952C334.268 344.959 335.22 346.58 335.01 348.104ZM335.838 355.122C335.358 352.65 332.748 352.132 331.308 353.714C329.869 355.296 329.403 358.052 329.278 360.607C329.231 361.561 328.111 361.656 327.728 360.866C327.344 360.075 327.5 359.01 327.712 358.102C328.274 355.706 329.14 353.45 330.257 351.472C330.81 350.492 329.999 349.166 329.27 348.448C326.695 345.914 323.049 343.413 320.687 346.325C314.215 354.306 303.892 355.369 296.655 348.8C296.741 356.977 297.172 365.148 297.943 373.254C298.021 374.07 298.12 374.942 298.524 375.543C299.057 376.338 299.93 376.393 300.708 376.394C313.28 376.417 325.851 376.439 338.422 376.462C339.646 376.464 341.309 375.852 341.214 374.145C340.991 370.171 342.248 366.092 344.464 363.591C342.721 361.819 340.978 360.045 339.234 358.272C338.702 357.732 338.146 357.175 337.498 357.019C335.542 356.55 334.234 359.69 333.543 362.294C332.482 359.64 333.718 355.78 335.838 355.122ZM302.982 382.254C316.074 382.398 329.166 382.367 342.256 382.163C345.972 382.104 350.312 381.575 352.327 377.204C334.25 378.315 316.147 378.591 298.058 378.029C297.832 381.069 300.8 382.231 302.982 382.254ZM347.784 365.918C347.394 365.572 346.992 365.219 346.537 365.11C345.166 364.78 344.085 366.697 343.49 368.456C343.146 369.474 342.846 370.522 342.594 371.591C342.402 372.405 342.236 373.272 342.357 374.113C342.478 374.954 342.97 375.75 343.583 375.759C345.809 375.794 348.036 375.762 350.26 375.66C350.786 375.636 351.356 375.583 351.749 375.096C352.212 374.522 352.268 373.532 352.152 372.683C351.733 369.606 349.674 367.594 347.784 365.918ZM339.92 346.022C339.896 345.073 338.991 344.59 338.365 344.957C337.739 345.323 337.354 346.194 337.011 347.013C336.596 348.003 336.18 348.993 335.765 349.982C335.547 350.501 335.429 351.384 335.848 351.515C336.954 350.228 338.059 348.941 339.164 347.655C339.534 347.225 339.938 346.695 339.92 346.022ZM332.758 347.569C332.57 348.848 333.039 350.263 333.858 350.888C334.142 349.57 333.976 348.076 333.419 346.942C333.384 346.621 333.074 346.435 332.884 346.623C332.738 346.882 332.686 347.238 332.748 347.555L332.758 347.569Z" fill="#FFC411"/>
<path fill-rule="evenodd" clip-rule="evenodd" d="M287.746 309.828C287.413 307.577 287.081 305.325 286.749 303.073C286.62 302.198 286.501 301.227 286.829 300.459C287.276 299.414 288.299 299.275 289.169 299.253C310.537 298.734 331.913 298.847 353.278 299.595C354.735 299.646 355.932 301.409 356.375 303.353C356.818 305.298 356.673 307.397 356.522 309.427C356.441 310.524 356.312 311.748 355.687 312.419C355.175 312.97 354.476 312.983 353.831 312.973C332.372 312.646 310.913 312.317 289.454 311.99C289.101 311.984 288.727 311.97 288.428 311.707C287.991 311.321 287.85 310.537 287.746 309.828ZM290.697 301.229C289.118 301.213 287.998 303.84 288.392 305.981C288.787 308.122 290.264 309.596 291.8 310.117C293.335 310.637 294.942 310.386 296.514 310.18C315.894 307.644 335.49 312.491 354.855 309.755C354.956 308.106 355.053 306.401 354.674 304.833C354.294 303.265 353.305 301.86 352.123 301.848C331.648 301.642 311.172 301.436 290.697 301.229Z" fill="#FFC411"/>
<path fill-rule="evenodd" clip-rule="evenodd" d="M158.9 375.051C158.184 376.95 157.198 378.877 155.72 379.442C152.903 380.517 150.574 376.139 149.806 372.197C148.606 366.042 148.91 359.332 150.654 353.438C151.588 350.285 150.81 346.557 149.346 343.827C146.586 338.678 141.436 336.424 137.011 338.176C132.586 339.927 129.094 345.437 128.169 351.744C128.024 352.73 128.126 354.117 128.839 354.257C132.396 354.955 134.028 360.797 134.57 365.767C134.983 369.562 135.162 373.538 134.243 377.154C133.324 380.771 131.074 383.947 128.34 384.238C125.886 381.925 124.039 378.379 123.215 374.402C121.682 367.006 123.673 359.165 125.728 352.021C126.983 347.662 128.329 343.196 130.712 339.886C135.805 332.808 145.316 333.648 149.732 341.566C151.432 344.612 152.407 348.396 154.29 351.222C155.709 353.353 157.586 354.844 158.88 357.125C161.693 362.078 161.009 369.455 158.9 375.051ZM124.773 361.377C123.484 366.352 123.843 372.114 125.729 376.701C126.038 377.455 126.407 378.205 126.948 378.631C127.49 379.058 128.244 379.064 128.672 378.434C129.955 376.546 130.115 373.691 130.111 371.086C130.106 368.005 129.97 364.924 129.705 361.866C129.596 360.614 129.411 359.23 128.688 358.478C127.964 357.727 126.607 358.356 126.72 359.606C127.051 363.247 127.382 366.887 127.712 370.528C127.787 371.356 127.853 372.252 127.557 372.976C127.26 373.701 126.442 374.038 126.066 373.389C125.094 370.611 124.8 367.377 125.246 364.347C125.407 363.258 125.517 361.766 124.773 361.377ZM154.542 375.814C154.871 375.454 155.024 374.871 155.147 374.314C156.111 369.931 156.122 365.147 155.176 360.755C154.817 359.086 153.843 357.133 152.664 357.692C151.982 358.015 151.636 359.06 151.42 360.021C150.433 364.386 150.564 369.228 151.784 373.476C152.018 374.29 152.306 375.113 152.802 375.65C153.296 376.188 154.048 376.353 154.542 375.814ZM131.396 360.061C132.256 366.157 132.073 372.537 130.868 378.518C130.757 379.068 131.203 379.498 131.576 379.729C133.384 373.59 133.613 366.566 132.212 360.222C131.98 359.991 131.666 359.928 131.396 360.061ZM156.479 358.414C156.212 359.012 155.945 359.608 155.678 360.205C156.558 359.996 156.961 361.678 157.008 362.926C157.117 365.812 157.226 368.697 157.335 371.583C158.155 371.152 158.303 369.645 158.318 368.419C158.353 365.658 158.387 362.898 158.422 360.137C158.126 360.089 157.831 360.04 157.536 359.992C157.506 359.21 157.034 358.507 156.479 358.414Z" fill="#FFC411"/>
<path fill-rule="evenodd" clip-rule="evenodd" d="M253.144 363.651C247.27 363.259 241.37 363.616 235.54 364.716C235.025 364.813 234.448 364.895 234.033 364.455C233.619 364.014 233.664 362.845 234.181 362.766C240.01 361.869 245.865 361.292 251.727 361.037C252.364 361.009 253.077 361.025 253.532 361.651C253.986 362.278 253.782 363.694 253.144 363.651Z" fill="#FFC411"/>
<path fill-rule="evenodd" clip-rule="evenodd" d="M116.681 330.811C118.349 330.592 120.017 330.373 121.684 330.153C122.525 330.043 123.365 329.932 124.205 329.822C129.549 329.119 134.893 328.417 140.241 327.791C140.451 327.767 140.671 327.745 140.865 327.857C141.445 328.193 141.355 329.503 140.851 330.024C140.347 330.545 139.664 330.515 139.038 330.486C131.161 330.119 123.31 333.433 115.469 332.312C114.96 332.239 114.293 331.872 114.383 331.166C115.146 331.013 115.914 330.912 116.681 330.811Z" fill="#FFC411"/>
<path fill-rule="evenodd" clip-rule="evenodd" d="M296.311 573.161C296.049 569.95 295.861 566.454 294.318 564.049C293.134 562.203 293.747 558.772 295.411 557.923C297.076 557.074 299.121 559.148 299.064 561.627C299.044 562.478 298.823 563.291 298.651 564.108C297.474 569.686 298.567 575.688 300.005 581.144C301.461 586.67 303.691 592.55 307.693 594.367C312.323 596.469 317.446 591.818 319.498 585.64C321.551 579.461 321.238 572.288 320.521 565.549C320.449 564.872 320.32 564.092 319.877 563.806C318.076 562.642 317.803 558.552 319.418 556.94C321.033 555.329 323.705 557.026 323.903 559.79C323.97 560.727 323.799 561.66 323.672 562.585C322.787 569.002 323.957 575.732 322.988 582.125C322.381 586.129 320.925 589.873 318.853 592.76C316.657 595.822 313.69 597.933 310.591 598.007C306.417 598.106 302.514 594.482 300.155 589.661C297.797 584.84 296.785 578.967 296.311 573.161Z" fill="#FFC411"/>
<path fill-rule="evenodd" clip-rule="evenodd" d="M174.608 309.48C174.724 311.68 174.835 313.946 174.345 316.044C173.856 318.14 172.612 320.05 171.042 320.239C162.949 321.213 154.855 322.187 146.746 322.859C135.69 323.775 124.615 324.128 113.542 324.481C113.147 324.493 112.724 324.496 112.394 324.191C111.9 323.733 111.807 322.788 111.762 321.961C111.642 319.794 111.522 317.627 111.402 315.46C111.366 314.8 111.338 314.088 111.592 313.531C111.964 312.714 112.759 312.574 113.45 312.517C133.815 310.827 154.208 309.815 174.608 309.48ZM171.201 317.082C172.502 316.96 172.766 314.094 171.812 312.849C170.858 311.605 169.409 311.577 168.105 311.622C151.345 312.205 134.578 312.789 117.851 314.381C116.647 314.496 115.394 314.636 114.352 315.492C113.311 316.348 112.559 318.146 112.957 319.742C113.522 322.01 115.707 322.259 117.418 322.099C135.346 320.427 153.274 318.754 171.201 317.082Z" fill="#FFC411"/>
<path fill-rule="evenodd" clip-rule="evenodd" d="M153.802 364.238C153.818 364.834 153.834 365.429 153.85 366.026C153.884 367.266 153.916 368.515 153.788 369.743C152.677 369.578 152.333 367.577 152.268 366.016C152.237 365.273 152.226 364.442 152.582 363.889C152.938 363.336 153.782 363.494 153.802 364.238Z" fill="#FFC411"/>
<path fill-rule="evenodd" clip-rule="evenodd" d="M233.82 369.316C234.911 367.907 236.569 367.951 238.052 368.01C242.744 368.196 247.451 367.689 252.068 366.498C252.612 366.358 252.905 367.543 252.566 368.155C252.227 368.768 251.614 368.895 251.064 368.974C245.86 369.715 240.635 370.154 235.406 370.29C234.782 370.306 233.992 370.155 233.82 369.316Z" fill="#FFC411"/>
<path fill-rule="evenodd" clip-rule="evenodd" d="M409.007 393.948C408.492 396.384 406.783 397.891 405.153 399.007C396.993 404.595 387.4 405.962 378.603 402.794C375.649 401.729 372.282 399.267 372.156 394.998C372.063 391.862 373.851 389.232 375.746 387.55C378.651 384.972 382.039 383.669 385.417 382.75C391.933 380.978 398.996 380.612 404.894 384.875C407.365 386.66 409.795 390.214 409.007 393.948ZM374.17 394.524C374.175 397.971 376.922 399.989 379.303 400.864C387.573 403.901 396.619 402.59 404.27 397.247C405.498 396.389 406.793 395.259 407.183 393.417C407.707 390.944 406.339 388.452 404.819 386.991C400.248 382.594 394.201 383.195 388.686 384.022C384.247 384.687 379.518 385.556 376.135 389.632C375.089 390.892 374.167 392.593 374.17 394.524Z" fill="#FFC411"/>
<path fill-rule="evenodd" clip-rule="evenodd" d="M168.915 192.057C168.637 189.842 169.728 187.64 171.135 186.552C172.541 185.463 174.199 185.253 175.803 185.121C190.106 183.943 204.386 187.159 218.694 188.216C220.535 188.352 222.477 188.495 224.026 189.895C225.575 191.296 226.485 194.439 225.413 196.54C224.895 197.556 224.037 198.12 223.187 198.496C220.734 199.581 218.102 199.437 215.532 199.282C202.157 198.478 188.781 197.672 175.405 196.868C172.749 196.708 169.375 195.723 168.915 192.057ZM170.751 188.847C169.995 190.337 170.627 192.562 171.719 193.566C172.811 194.569 174.187 194.682 175.492 194.764C189.668 195.657 203.843 196.55 218.019 197.444C219.401 197.53 220.93 197.549 221.977 196.284C223.023 195.019 222.885 192.002 221.519 191.698C205.757 188.19 189.761 186.733 173.805 187.351C172.685 187.395 171.399 187.567 170.751 188.847Z" fill="#FFC411"/>
<path fill-rule="evenodd" clip-rule="evenodd" d="M325.758 172.827C327.933 166.48 331.462 159.937 336.475 159.396C339.815 159.036 343.358 159.853 346.002 162.734C350.796 167.959 351.13 178.091 349.417 186.252C347.398 195.871 342.891 204.779 336.427 209.093C334.885 210.123 333.208 210.892 331.502 210.798C326.966 210.548 323.664 204.311 322.687 198.105C321.349 189.601 323.066 180.678 325.758 172.827ZM331.398 208.475C334.75 209.114 337.909 206.124 340.274 202.737C344.706 196.389 347.682 188.076 348.663 179.305C348.946 176.778 349.062 174.155 348.572 171.69C347.605 166.843 344.324 163.34 340.802 162.332C337.415 161.364 333.694 162.52 331.083 165.691C329.828 167.217 328.854 169.142 328.003 171.139C325.228 177.656 323.65 185.238 323.844 192.82C323.931 196.245 324.394 199.726 325.633 202.683C326.872 205.639 328.972 208.013 331.398 208.475Z" fill="#FFB61D"/>
<path fill-rule="evenodd" clip-rule="evenodd" d="M215.815 442.203C216.261 442.17 216.739 442.148 217.117 442.482C217.583 442.895 217.754 443.716 217.888 444.464C218.182 446.105 218.478 447.811 218.241 449.47C218.004 451.128 217.07 452.721 215.863 452.794C212.785 452.983 209.707 453.171 206.629 453.359C205.421 453.433 204.007 453.675 203.407 455.143C203.001 456.138 203.122 457.373 203.255 458.505C203.633 461.711 204.699 465.763 207.019 465.646C208.561 465.567 209.937 467.207 210.601 469.158C211.265 471.109 211.364 473.33 211.452 475.488C211.535 477.518 211.165 480.294 209.712 480.345C208.541 480.386 208.217 482.602 208.255 484.242C208.513 495.648 208.772 507.054 209.031 518.459C209.073 520.297 207.391 521.07 206.084 521.254C195.133 522.802 184.069 522.761 173.125 521.133C172.733 521.074 172.231 520.86 172.223 520.307C172.02 507.42 171.817 494.532 171.615 481.645C171.603 480.893 171.34 479.855 170.822 480.052C169.191 480.677 167.551 478.558 167.213 476.239C166.876 473.919 167.455 471.552 168.026 469.323C168.29 468.293 168.586 467.201 169.217 466.556C170.565 465.178 173.057 466.159 173.661 463.98C173.761 463.62 173.78 463.225 173.77 462.839C173.686 459.473 171.447 456.818 169.089 456.153C166.731 455.487 164.301 456.363 162.004 457.365C161.478 454.585 161.343 451.66 161.609 448.809C161.673 448.136 161.77 447.429 162.093 446.923C162.554 446.2 163.321 446.101 164.011 446.049C181.279 444.767 198.547 443.485 215.815 442.203ZM169.775 468.314C169.443 468.853 169.37 469.607 169.31 470.314C169.154 472.157 168.998 474.002 168.843 475.845C168.809 476.233 168.779 476.643 168.891 477C169.129 477.767 169.853 477.899 170.45 477.92C173.62 478.03 176.79 478.14 179.96 478.251C180.495 478.269 181.055 478.28 181.53 477.936C182.293 477.381 182.607 475.876 182.177 474.834C182.564 474.778 182.952 474.723 183.34 474.667C183.169 476.275 184.339 477.621 185.489 477.858C186.637 478.094 187.792 477.603 188.949 477.475C191.377 477.207 193.801 478.54 196.218 478.139C196.473 478.097 196.744 478.023 196.923 477.765C197.155 477.428 197.151 476.901 197.131 476.432C197.04 474.185 196.949 471.938 196.857 469.691C196.828 468.983 196.785 468.222 196.46 467.678C195.996 466.902 195.165 466.878 194.443 466.917C190.953 467.106 187.463 467.295 183.973 467.484C183.729 467.497 183.459 467.526 183.291 467.773C183.101 468.048 183.115 468.482 183.14 468.863C183.257 470.611 183.375 472.36 183.492 474.108C183.029 474.171 182.575 474.361 182.163 474.663C182.059 473.286 181.957 471.908 181.853 470.53C181.759 469.273 181.408 467.664 180.506 467.647C177.625 467.593 174.745 467.54 171.865 467.486C171.116 467.472 170.264 467.52 169.775 468.314ZM186.371 481.87C186.323 480.942 186.035 479.714 185.375 479.814C181.267 480.431 177.11 480.396 173.009 479.708C173.11 492.22 173.277 504.732 173.508 517.241C173.538 518.851 174.989 519.495 176.134 519.659C179.533 520.147 182.956 520.314 186.371 520.158C186.651 520.145 186.955 520.118 187.168 519.864C187.449 519.53 187.467 518.943 187.463 518.427C187.365 506.23 187.001 494.037 186.371 481.87ZM206.911 481.18C206.799 480.91 206.543 480.854 206.321 480.828C202.787 480.409 199.235 480.291 195.692 480.476C195.371 480.493 195.027 480.523 194.773 480.798C194.387 481.216 194.363 482.006 194.373 482.69C194.569 495.178 194.764 507.666 194.959 520.155C198.861 520.682 202.833 520.166 206.598 518.643C206.832 518.549 207.081 518.436 207.232 518.169C207.395 517.88 207.406 517.482 207.409 517.114C207.483 509.079 207.335 501.044 207.187 493.012C207.117 489.227 207.047 485.442 206.977 481.659C206.975 481.494 206.97 481.322 206.911 481.18ZM163.099 449.522C162.422 451.013 163.15 453.118 164.263 453.951C165.377 454.784 166.711 454.703 167.971 454.601C175.596 453.983 183.221 453.364 190.845 452.746C198.117 452.156 205.389 451.565 212.649 450.738C213.712 450.617 214.829 450.465 215.708 449.617C216.587 448.77 217.097 446.98 216.507 445.735C215.917 444.486 214.645 444.428 213.577 444.506C197.733 445.65 181.89 446.794 166.047 447.937C164.952 448.017 163.687 448.228 163.099 449.522ZM193.575 519.864C193.039 507.673 192.933 495.445 193.257 483.24C193.276 482.539 193.293 481.809 193.093 481.166C192.509 479.287 190.632 479.293 189.186 479.605C188.525 479.749 187.68 480.192 187.73 481.126C188.35 492.801 188.971 504.495 188.831 516.2C188.813 517.75 189.447 519.281 190.416 520.03C191.385 520.778 192.649 520.712 193.575 519.864ZM209.939 474.858C209.75 473.248 209.553 471.601 208.992 470.17C208.431 468.74 207.426 467.541 206.262 467.46C204.049 467.305 201.837 467.151 199.625 466.997C199.049 466.957 198.253 467.199 198.281 468.006C198.365 470.457 198.449 472.909 198.533 475.36C198.57 476.429 198.713 477.721 199.421 478.127C199.649 478.258 199.902 478.268 200.149 478.275C203.033 478.368 205.918 478.46 208.803 478.553C209.353 478.57 209.815 477.893 209.965 477.151C210.115 476.41 210.027 475.619 209.939 474.858ZM195.972 462.779C195.683 461.078 195.383 459.335 194.691 457.878C194 456.42 192.827 455.282 191.581 455.411C189.661 455.608 187.74 455.805 185.819 456.003C184.623 456.126 183.267 456.367 182.566 457.73C181.718 459.378 182.3 461.678 182.071 463.685C181.99 464.389 182.383 465.064 182.854 465.338C183.325 465.612 183.854 465.579 184.363 465.543C187.801 465.296 191.239 465.047 194.677 464.8C195.182 464.764 195.788 464.635 195.989 463.985C196.105 463.61 196.04 463.178 195.972 462.779ZM201.997 459.696C201.343 458.442 201.359 456.584 202.035 455.352C200.83 454.304 199.142 454.498 198.075 455.806C197.008 457.115 196.649 459.432 197.232 461.242C197.437 461.88 197.319 462.636 197.465 463.307C197.67 464.259 198.381 464.857 199.087 464.979C199.791 465.101 200.499 464.842 201.185 464.585C202.085 464.248 203.181 463.574 203.173 462.27C203.165 461.229 202.436 460.537 201.997 459.696ZM180.511 464.163C180.911 462.335 180.373 460.25 179.348 458.986C178.323 457.723 176.887 457.231 175.527 457.402C174.981 457.47 174.411 457.66 174.015 458.193C173.619 458.726 173.478 459.684 173.834 460.268C174.097 460.7 174.548 460.826 174.824 461.242C175.245 461.877 175.103 462.892 175.295 463.715C175.731 465.575 177.534 465.75 178.925 465.572C179.402 465.511 179.927 465.417 180.241 464.911C180.373 464.698 180.453 464.432 180.511 464.163ZM180.737 458.012C181.059 457.575 181.118 456.807 180.868 456.284C180.313 456.053 179.691 456.516 179.399 457.217C179.616 457.913 180.227 458.315 180.749 458.106M196.593 456.07C196.674 455.765 196.626 455.4 196.473 455.155C195.946 454.922 195.332 455.131 194.94 455.677C195.343 456.317 196.077 456.489 196.607 456.069L196.593 456.07Z" fill="#FFC411"/>
<path fill-rule="evenodd" clip-rule="evenodd" d="M409.157 404.246C392.254 413.5 375.35 422.754 358.447 432.008C351.175 435.989 342.763 441.963 341.983 452.839C351.861 442.2 364.063 435.851 376.506 434.876C367.909 450.038 357.055 462.68 344.841 471.754C333.871 479.903 319.984 488.595 319.043 505.929C330.823 486.29 348.936 474.4 367.254 474.282C355.535 498.312 336.743 515.358 316.287 520.511C316.989 527.895 317.691 535.28 318.393 542.664C325.343 542.319 332.336 543.712 338.942 546.755C343.647 575.051 348.351 603.346 353.056 631.642C354.213 638.605 355.233 646.606 352.187 652.345C349.166 658.037 343.46 659.017 338.407 659.52C318.491 661.502 298.575 663.484 278.659 665.466C276.275 650.342 273.891 635.218 271.506 620.094C237.913 624.461 204.319 628.828 170.725 633.195C163.651 634.115 156.169 634.939 149.767 630.625C126.548 614.974 98.3933 645.267 73.8686 634.184C95.416 633.616 116.897 628.354 137.302 618.646C144.702 615.126 153.563 605.481 149.696 595.973C130.773 614.457 106.493 621.837 83.7986 616.001C85.1306 585.146 84.274 554.106 81.244 523.486C97.392 520.252 113.307 514.732 128.665 507.039C132.937 504.899 137.333 502.436 140.375 497.723C143.417 493.009 144.647 485.395 141.974 480.262C118.613 497.689 91.6413 505.489 65.2608 502.445C66.6374 544.234 68.014 586.024 69.3906 627.813C65.4911 586.054 63.4232 543.96 63.2022 501.846C76.782 500.16 90.3613 498.475 103.941 496.788C101.757 483.219 99.56 469.338 100.682 455.516C101.803 441.695 106.885 427.698 115.816 421.603C109.059 401.427 98.8473 383.538 86.28 369.864C71.5473 353.833 52.6062 341.747 45.8785 317.381C41.4302 301.271 43.6121 282.532 49.7715 267.566C55.931 252.601 65.6911 241.073 76.2993 232.255C61.6944 226.999 50.6319 206.617 50.9279 185.509C51.2238 164.402 62.8492 144.643 77.59 140.195C70.64 128.599 59.6964 123.285 51.7028 113.093C42.3907 101.22 37.7114 82.0681 41.1034 65.0866C44.4954 48.105 56.4382 34.7443 69.022 35.4971C79.358 36.1155 88.454 45.268 95.6693 55.6485C106.859 71.7475 115.181 91.7241 119.68 113.286C122.679 127.658 133.669 134.969 142.951 142.406C152.233 149.844 161.872 162.8 159.257 177.317C155.799 157.451 144.19 140.799 130.088 135.478C122.74 132.706 120.062 120.465 117.698 110.337C113.099 90.629 105.247 72.4245 94.9306 57.5497C87.1773 46.371 77.0413 36.6164 65.9279 37.4562C54.4875 38.3207 44.4024 51.3493 41.7869 66.9657C39.1714 82.5819 43.5567 99.6932 51.9044 110.679C60.407 121.87 72.5706 127.352 79.426 140.573C64.5585 144.803 52.8045 164.834 52.7264 186.073C52.6483 207.313 64.2544 227.512 79.09 231.956C68.6353 240.524 58.8522 251.407 52.402 265.763C45.9517 280.12 43.1867 298.34 47.0462 314.416C55.973 351.6 93.1806 360.475 106.311 395.129C109.867 378.777 104.655 361.583 101.975 344.905C99.296 328.228 100.81 306.812 111.917 299.71C108.671 277.808 105.425 255.906 102.179 234.004C99.76 217.683 98.5466 197.006 108.575 188.022C101.509 184.954 95.238 178.419 91.1106 169.824C95.568 179.375 104.152 184.794 112.216 183.147C102.026 152.222 90.7273 122.012 78.3766 92.6709C91.6846 120.763 103.462 150.276 113.574 180.868C160.343 179.097 207.185 181.113 253.788 186.907C259.975 187.676 266.635 188.795 271.208 194.679C277.781 203.135 287.65 206.22 296.167 202.48C298.877 211.885 300.871 222.45 298.567 232.065C296.264 241.68 288.104 249.019 281.581 244.608C283.284 256.871 284.987 269.135 286.689 281.398C303.367 281.679 320.042 282.156 336.714 282.829C345.55 283.186 354.785 283.748 362.465 289.877C370.145 296.006 375.564 309.581 372.143 320.993C374.325 311.563 376.507 302.131 378.689 292.701C386.379 309.79 390.156 330.274 389.335 350.439C391.999 344.764 394.663 339.089 397.327 333.415C387.862 312.56 386.657 284.842 394.245 262.535C401.688 279.79 405.88 299.765 406.287 319.914C409.063 283.601 427.44 250.497 451.889 237.765C447.647 251.449 443.406 265.133 439.164 278.817C435.532 290.533 430.919 303.528 422.192 307.25C416.435 309.704 408.1 309.556 407.056 317.853C423.59 311.783 441.189 311.482 457.823 316.986C445.005 338.562 420.303 343.875 403.45 328.68C395.499 341.094 388.611 354.84 382.978 369.532C392.546 352.884 407.436 342.474 422.69 341.766C414.495 355.327 405.251 367.644 395.172 378.434C400.521 379.154 406.305 380.14 410.185 385.345C414.066 390.551 414.163 401.506 409.157 404.246ZM186.03 267.589C190.463 267.517 195.429 267.738 198.523 272.183C200.885 275.573 201.517 280.575 202.032 285.255C204.386 306.658 206.589 328.093 208.643 349.556C209.158 354.939 205.934 359.907 202.251 361.615C198.567 363.322 194.563 362.572 190.722 361.806C193.925 357.935 199.331 360.709 202.778 357.275C205.869 354.196 205.851 347.873 205.481 342.587C204.093 322.767 202.204 303.016 199.817 283.384C199.395 279.914 198.878 276.222 197.122 273.703C194.784 270.347 191.047 270.124 187.699 270.118C173.955 270.094 160.21 270.07 146.465 270.046C144.097 270.042 141.604 270.082 139.547 271.727C133.629 276.463 135.811 288.97 138.753 297.579C147.087 295.214 155.603 294.105 164.106 294.278C171.639 294.431 181.032 297.856 182.303 308.251C185.093 331.091 187.883 353.929 190.674 376.768C192.137 388.744 192.944 403.293 186.108 410.777C182.693 414.517 178.159 415.408 173.857 416.17C163.28 418.042 152.702 419.914 142.125 421.786C146.53 475.79 150.935 529.795 155.341 583.798C155.833 589.822 156.732 596.746 160.515 599.697C162.753 601.442 165.468 601.299 168.026 601.104C201.729 598.531 235.4 595.123 269.017 590.883C267.673 586.594 267.646 581.531 268.945 577.214C272.351 605.121 275.755 633.029 279.161 660.936C285.122 655.183 284.205 642.695 282.623 632.804C278.615 607.76 274.609 582.716 270.601 557.671C268.979 561.838 267.357 566.004 265.735 570.171C264.938 564.969 267.167 559.587 270.26 556.495C273.352 553.401 277.163 552.133 280.879 551.018C292.303 547.589 303.851 544.97 315.464 543.174C312.089 509.845 308.715 476.516 305.339 443.187C284.591 451.165 262.619 448.654 241.181 446.081C234.832 445.32 226.763 442.327 226.157 433.446C224.635 411.118 223.113 388.791 221.591 366.464C221.392 363.553 220.187 359.633 218.204 360.55C213.331 362.803 210.432 353.082 210.033 345.918C208.782 323.45 207.531 300.98 206.279 278.511C206.115 275.565 206.073 272.164 207.642 270.187C208.741 268.803 210.324 268.549 211.796 268.361C222.297 267.017 232.799 265.673 243.301 264.329C249.297 263.56 256.109 263.164 260.473 268.974C263.553 273.074 264.586 279.292 265.236 285.172C266.434 296.01 266.831 307.02 266.418 317.971C265.585 307.267 264.753 296.562 263.921 285.858C263.547 281.041 263.089 275.934 260.916 272.164C257.207 265.729 250.305 265.837 244.419 266.514C233.903 267.726 223.387 268.937 212.871 270.149C211.455 270.312 209.921 270.546 208.891 271.917C207.552 273.702 207.59 276.655 207.724 279.236C208.851 300.951 209.977 322.665 211.104 344.38C211.317 348.478 211.606 352.859 213.457 356.048C215.307 359.238 219.323 360.24 221.052 356.919C218.683 349.628 221.96 340.699 226.811 336.45C231.661 332.201 237.614 331.453 243.318 330.815C253.155 329.717 262.991 328.618 272.829 327.52C272.155 299.015 269.959 270.582 266.266 242.534C262.863 241.202 259.765 238.387 257.511 234.579C255.824 240.662 250.799 244.529 246.227 243.261C241.654 241.994 238.061 235.739 238.157 229.214C237.614 236.722 232.942 243.235 227.576 243.961C222.211 244.688 216.733 239.549 215.173 232.325C212.604 236.337 209.27 239.794 205.437 240.283C201.604 240.771 197.364 237.382 196.741 232.065C191.707 241.208 180.007 240.28 175.743 230.4C171.357 240.534 158.869 240.285 154.691 229.98C152.815 239.507 142.342 240.269 137.315 233.332C132.288 226.394 131.309 215.707 130.61 205.874C122.312 217.067 120.815 235.049 122.39 251.029C123.965 267.011 128.069 282.405 129.065 298.477C131.338 299.277 133.831 298.772 135.849 297.103C133.669 287.88 132.236 275.49 138.153 270.418C140.527 268.383 143.464 268.279 146.247 268.234C159.508 268.019 172.769 267.804 186.03 267.589ZM317.398 422.789C334.793 421.579 352.738 424.754 369.269 417.079C371.827 415.891 374.448 414.325 376.096 411.34C371.873 408.623 367.389 403.938 367.492 397.433C367.56 393.161 369.675 389.469 372.057 386.798C374.557 383.993 377.469 381.911 380.557 380.717C380.807 379.647 379.463 379.415 378.797 380.047C378.132 380.68 377.121 381.462 376.679 380.522C376.559 380.269 376.535 379.954 376.514 379.654C374.855 356.014 372.396 332.486 369.149 309.171C368.173 302.162 366.722 294.354 362.309 290.772C359.926 288.837 357.07 288.512 354.322 288.246C333.637 286.242 312.913 285.016 292.18 284.566C287.281 284.46 281.799 284.715 278.364 289.608C275.759 293.32 275.012 298.832 274.736 304.022C273.882 320.092 276.34 336.09 277.939 352.048C279.855 371.165 280.544 390.475 281.808 409.698C281.976 412.256 282.18 414.922 283.168 417.086C284.863 420.796 288.303 421.96 291.418 422.571C296.02 423.475 300.674 423.857 305.32 423.713C309.351 423.588 313.371 423.069 317.398 422.789ZM174.636 298.786C168.747 295.162 162.003 296.133 155.613 297.172C145.947 298.742 136.282 300.313 126.617 301.884C121.971 302.639 117.321 303.395 112.725 304.608C111.617 304.901 110.506 305.223 109.461 305.814C105.364 308.133 102.922 314.316 102.354 320.451C101.785 326.585 102.759 332.769 103.693 338.815C106.595 357.605 109.168 376.57 109.866 395.77C110.004 399.57 110.073 403.421 110.82 407.081C111.566 410.74 113.089 414.261 115.472 416.094C117.304 417.504 119.457 417.797 121.544 417.989C140.669 419.748 159.785 415.431 178.703 411.127C181.395 410.515 184.227 409.816 186.325 407.378C189.566 403.612 190.051 396.986 190.027 391.089C189.984 380.2 189.043 369.318 187.227 358.729C185.103 346.344 181.769 334.161 181.681 321.426C181.641 315.808 182.168 309.756 180.075 304.963C178.838 302.131 176.807 300.122 174.636 298.786ZM83.6266 534.615C86.1973 560.478 87.0613 586.672 86.2033 612.756C86.158 614.132 87.3513 614.832 88.3173 615.09C100.685 618.4 113.422 614.159 125.423 608.824C132.245 605.791 139.073 602.335 144.973 596.661C147.672 594.066 150.403 590.155 149.899 585.626C146.656 556.526 144.873 527.109 144.566 497.661C133.646 509.607 119.789 514.676 106.359 519.459C99.9926 521.726 93.5413 524.008 86.9733 523.931C85.3853 523.913 84.0673 525.865 83.6233 528C83.18 530.134 83.408 532.414 83.6266 534.615ZM334.631 547.689C314.175 544.9 293.309 548.175 273.803 557.235C274.974 569.709 276.575 582.102 278.597 594.361C279.406 599.269 280.283 604.155 281.161 609.041C282.869 618.557 284.577 628.071 286.285 637.586C286.523 638.911 286.821 640.358 287.636 641.107C288.363 641.776 289.305 641.699 290.173 641.599C310.371 639.24 330.557 636.686 350.73 633.934C346.32 606.413 341.91 578.892 337.5 551.371C337.331 550.314 337.127 549.174 336.526 548.491C336.005 547.9 335.297 547.78 334.631 547.689ZM304.478 426.878C300.027 427.195 295.509 427.505 291.163 426.123C286.817 424.741 282.588 421.424 280.356 416.023C279.075 418.088 276.529 418.243 275.125 416.341C273.721 414.44 273.746 410.872 275.177 409.01C269.523 409.082 263.869 409.153 258.214 409.225C260.798 411.356 260.586 417.639 257.915 419.547C255.243 421.456 251.546 418.232 251.484 414.034C251.457 412.151 252.282 410.035 253.623 409.866C253.067 408.532 251.623 409.322 250.525 409.176C248.871 408.957 247.967 406.433 247.386 404.253C245.032 395.41 242.89 386.461 240.749 377.514C242.249 380.949 245.625 382.495 248.285 380.963C249.225 380.422 249.253 378.53 248.853 377.223C248.155 374.94 246.563 373.179 244.794 372.985C243.025 372.791 241.185 374.304 240.587 376.642C239.7 375.714 240.078 373.569 241.008 372.728C241.938 371.888 243.129 371.961 244.234 372.055C254.663 372.937 265.13 372.923 275.557 372.013C276.032 371.972 276.555 371.897 276.879 371.41C277.245 370.858 277.209 370.007 277.151 369.259C276.753 364.123 276.354 358.988 275.955 353.853C275.911 353.284 275.849 352.661 275.545 352.277C275.21 351.855 274.705 351.874 274.256 351.919C261.185 353.223 248.147 355.193 235.179 357.823C233.798 358.103 232.514 356.481 232.079 354.626C231.643 352.771 231.844 350.755 232.05 348.823C232.122 348.146 232.214 347.412 232.573 346.945C232.903 346.516 233.381 346.415 233.829 346.335C247.321 343.924 260.902 342.477 274.5 342.002C274.17 343.883 272.418 344.288 271.035 344.323C258.415 344.636 245.809 346.053 233.314 348.561C232.317 350.949 233.684 354.167 235.525 355.171C237.367 356.175 239.43 355.638 241.373 355.127C252.077 352.306 262.938 350.644 273.826 350.16C275.38 350.091 275.566 346.959 275.239 344.83C274.481 339.887 273.722 334.943 272.963 330C265.423 331.998 257.721 332.796 250.054 332.372C245.517 332.121 241.004 333.231 236.532 334.337C232.732 335.277 228.682 336.39 225.936 340.186C222.726 344.622 222.151 351.56 222.345 357.869C222.665 368.22 224.541 378.344 225.467 388.623C226.599 401.183 226.308 413.914 227.177 426.514C227.411 429.908 227.745 433.366 228.832 436.418C229.919 439.47 231.895 442.09 234.305 442.593C254.103 446.726 274.289 447.196 294.175 443.986C296.012 443.689 297.865 443.355 299.599 442.457C302.336 441.039 304.683 438.197 306.079 434.611C306.639 433.17 307.058 431.524 306.853 429.909C306.649 428.295 305.647 426.795 304.478 426.878ZM146.198 497.686C148.269 529.6 150.341 561.513 152.413 593.427C152.786 599.163 153.145 605.089 151.864 610.562C150.583 616.036 147.215 620.983 143.103 621.172C145.517 626.115 149.683 628.942 153.896 629.977C158.109 631.012 162.429 630.464 166.687 629.913C201.782 625.374 236.876 620.834 271.97 616.295C271.217 610.155 270.463 604.015 269.71 597.876C269.541 596.498 269.058 594.75 268.062 594.855C243.933 597.372 219.803 599.889 195.674 602.406C185.766 603.44 175.809 604.474 165.906 603.34C160.895 602.766 154.706 599.979 154.212 592.974C150.256 536.93 145.677 480.972 140.475 425.128C140.395 424.269 140.296 423.351 139.876 422.713C139.316 421.863 138.389 421.799 137.563 421.793C132.629 421.758 127.695 421.722 122.761 421.687C124.202 433.131 126.073 444.469 128.363 455.639C128.786 457.704 129.49 460.114 131.001 460.485C136.426 461.819 140.708 468.067 142.94 475.117C145.172 482.168 145.699 490.007 146.198 497.686ZM127.241 299.038C123.005 268.966 119.423 238.715 116.497 208.339C116.332 206.621 116.172 204.84 116.533 203.181C117.277 199.763 119.947 197.973 122.431 197.148C127.285 195.536 132.355 196.074 137.331 196.587C182.825 201.284 228.467 203.163 274.079 202.218C272.265 197.066 268.616 193.553 264.736 191.69C260.855 189.827 256.709 189.413 252.616 189.017C212.465 185.132 172.254 181.492 132.01 182.171C127.087 182.254 122.105 182.413 117.351 184.207C112.597 186.002 108.023 189.617 105.28 195.342C100.958 204.364 102.003 216.281 103.341 226.981C106.474 252.039 110.285 276.931 114.764 301.584C118.923 300.736 123.082 299.888 127.241 299.038ZM225.197 240.263C227.371 240.295 229.63 240.124 231.554 238.707C234.942 236.21 236.446 230.457 236.67 225.106C236.894 219.754 236.139 214.391 236.382 209.042C236.438 207.823 236.924 206.206 237.769 206.512C238.381 212.671 238.993 218.829 239.605 224.988C239.943 228.388 240.294 231.851 241.358 234.944C242.422 238.037 244.335 240.755 246.743 241.403C248.126 241.775 249.57 241.441 250.888 240.748C254.044 239.087 256.689 234.859 256.569 230.141C256.403 223.629 256.237 217.115 256.072 210.602C256.007 208.026 255.322 204.592 253.483 204.728C241.221 205.627 228.923 205.547 216.669 204.49C215.775 204.412 215.539 206.185 215.634 207.432C216.125 213.891 216.615 220.352 217.105 226.811C217.476 231.689 218.267 237.421 221.463 239.429C222.621 240.156 223.927 240.245 225.197 240.263ZM288.084 645.629C287.497 646.205 287.109 647.091 286.751 647.962C284.891 652.494 283.397 657.32 282.305 662.318C303.769 660.219 325.215 657.779 346.639 655C347.444 654.896 348.317 654.748 348.895 653.956C349.27 653.442 349.463 652.728 349.644 652.038C350.446 648.988 351.247 645.939 352.049 642.889C352.44 641.405 352.787 639.558 352.023 638.392C351.389 637.423 350.311 637.454 349.376 637.558C329.788 639.755 310.21 642.121 290.643 644.655C289.753 644.771 288.817 644.909 288.084 645.629ZM325.919 460.497C325.339 451.017 324.157 440.377 318.631 434.838C316.474 443.151 314.297 451.591 313.804 460.409C313.311 469.227 314.703 478.625 318.927 485.201C319.521 486.125 320.181 487.022 320.496 488.184C320.811 489.346 320.651 490.88 319.881 491.497C314.137 484.501 311.761 473.281 311.895 462.625C312.029 451.971 314.362 441.638 316.673 431.485C317.181 429.254 315.729 426.907 314.098 426.387C312.467 425.867 310.783 426.63 309.2 427.384C308.892 427.53 308.756 428.023 308.659 428.458C307.563 433.342 306.459 438.521 307.307 443.5C310.961 464.957 310.489 487.475 314.208 508.909C314.345 509.701 314.494 510.509 314.823 511.18C317.29 504.428 319.757 497.676 322.223 490.923C323.383 487.751 324.548 484.555 325.272 481.138C326.679 474.495 326.342 467.401 325.919 460.497ZM413.179 304.756C413.655 305.306 414.295 305.48 414.909 305.576C421.884 306.668 428.467 300.021 432.329 291.816C436.192 283.612 438.017 273.919 440.549 264.754C442.926 256.153 445.965 247.911 449.599 240.218C442.325 249.773 433.37 256.464 425.777 265.521C418.185 274.578 411.723 287.281 412.259 301.225C412.309 302.514 412.467 303.934 413.179 304.756ZM133.811 212.349C134.802 218.435 134.392 225.197 136.8 230.449C139.135 235.541 144.059 237.967 148.157 236.046C152.255 234.124 155.142 228.033 154.814 222C154.739 220.629 154.519 219.283 154.298 217.943C153.435 212.693 152.571 207.443 151.708 202.193C151.622 201.67 151.526 201.12 151.261 200.733C150.882 200.178 150.275 200.113 149.726 200.083C144.451 199.802 139.177 199.519 133.901 199.236C133.394 199.209 132.837 199.203 132.443 199.65C131.943 200.218 131.915 201.259 131.98 202.154C132.233 205.644 133.253 208.928 133.811 212.349ZM276.598 218.025C276.724 226.431 280.635 233.739 284.761 239.849C285.163 240.445 285.577 241.045 286.08 241.467C286.894 242.148 287.885 242.308 288.829 242.195C292.016 241.812 294.742 238.438 296.087 234.375C297.432 230.312 297.584 225.665 297.294 221.206C297.005 216.746 296.299 212.354 296.015 207.895C295.958 206.999 295.723 205.832 295.082 205.836C289.443 205.865 283.803 205.895 278.164 205.926C277.443 205.93 276.678 205.95 276.069 206.491C275.459 207.031 275.119 208.294 275.571 209.081C276.952 211.486 276.551 214.94 276.598 218.025ZM362.355 478.028C346.905 477.647 332.741 490.471 321.934 505.934C320.113 508.541 318.334 511.275 317.121 514.503C316.907 515.074 316.737 515.869 317.089 516.287C317.276 516.509 317.544 516.522 317.789 516.521C326.778 516.476 335.423 511.161 342.726 503.824C350.029 496.487 356.183 487.176 362.355 478.028ZM171.174 234.52C173.381 232.741 174.802 229.199 174.737 225.634C174.705 223.827 174.323 222.073 174.017 220.316C173.227 215.796 172.92 211.112 173.109 206.467C173.149 205.477 173.209 204.461 172.997 203.515C172.785 202.57 172.221 201.701 171.514 201.647C165.676 201.201 159.837 200.754 153.999 200.307C153.789 200.292 153.559 200.283 153.39 200.457C153.127 200.727 153.142 201.274 153.191 201.725C153.909 208.377 156.208 214.643 156.355 221.367C156.41 223.841 156.173 226.376 156.669 228.753C157.302 231.796 159.113 234.199 161.213 235.382C163.313 236.567 165.67 236.634 167.899 236.071C169.039 235.783 170.17 235.328 171.174 234.52ZM404.797 325.584C409.026 327.254 412.765 330.745 416.867 332.948C425.961 337.831 436.785 335.793 444.634 327.719C448.005 324.251 451.375 320.784 454.745 317.317C450.637 318.678 446.387 319.199 442.173 318.859C435.13 318.291 428.175 315.338 421.141 316.078C415.157 316.707 409.338 320.091 404.797 325.584ZM284.049 280.028C283.217 273.583 282.387 267.137 281.555 260.691C280.441 252.052 279.327 243.414 278.213 234.775C278.135 234.162 278.039 233.505 277.715 233.079C277.39 232.652 276.757 232.651 276.581 233.222C275.468 236.818 273.19 239.667 270.514 240.812C268.89 241.507 268.751 244.608 268.94 246.97C270.271 263.638 271.848 280.266 273.667 296.843C274.197 290.063 278.347 284.176 283.182 283.344C284.123 283.183 284.217 281.334 284.049 280.028ZM195.212 227.602C194.695 220.653 194.044 213.724 193.258 206.825C193.096 205.403 192.663 203.629 191.635 203.566C186.321 203.239 181.007 202.913 175.693 202.587C175.503 202.575 175.303 202.566 175.135 202.691C174.707 203.009 174.777 203.885 174.903 204.541C176.129 210.912 176.779 217.499 176.834 224.095C176.847 225.718 176.834 227.404 177.319 228.879C178.034 231.049 179.66 232.294 181.205 233.307C183.898 235.073 186.843 236.626 189.781 235.985C192.72 235.344 195.52 231.743 195.212 227.602ZM197.51 227.641C198.046 231.276 199.029 235.505 201.573 236.551C203.72 237.433 206.041 237.676 208.195 236.826C210.349 235.976 212.313 233.951 213.277 231.124C213.963 229.112 214.117 226.834 214.207 224.608C214.451 218.509 214.283 212.377 213.705 206.323C213.673 205.999 213.639 205.666 213.522 205.382C213.212 204.631 212.481 204.525 211.861 204.507C206.45 204.341 201.039 204.176 195.627 204.011C195.185 203.998 194.568 204.641 194.942 204.971C195.547 212.578 196.405 220.145 197.51 227.641ZM379.34 302.881C375.113 316.261 373.868 331.452 375.821 345.824C376.601 351.566 378.135 357.659 381.685 360.734C382.729 361.64 384.471 361.907 384.857 360.274C389.348 341.306 387.253 319.511 379.34 302.881ZM105.345 470.871C107.138 472.593 109.159 473.849 111.275 474.554C113.949 475.447 116.725 475.457 119.472 475.549C125.893 475.766 132.305 476.455 138.673 477.612C139.561 477.772 140.296 476.427 140.273 475.173C140.249 473.919 139.704 472.812 139.139 471.837C135.743 465.98 130.783 461.942 125.466 460.707C121.699 459.833 117.849 460.323 114.032 460.17C110.216 460.016 106.233 459.111 103.189 455.884C103.028 458.953 103.015 462.037 103.151 465.109C103.205 466.352 103.295 467.641 103.748 468.714C104.127 469.612 104.73 470.28 105.345 470.871ZM259.806 232.479C260.405 234 261.367 235.173 262.352 236.23C263.419 237.375 264.573 238.447 265.884 238.867C269.112 239.902 272.413 236.553 273.774 232.326C275.135 228.098 274.997 223.253 274.682 218.637C274.443 215.147 274.119 211.669 273.709 208.21C273.641 207.634 273.562 207.031 273.303 206.572C272.849 205.767 272.017 205.674 271.285 205.647C267.349 205.501 263.413 205.354 259.477 205.207C258.606 205.176 257.369 205.759 257.627 206.924C258.785 212.141 259.291 217.641 259.113 223.099C259.009 226.284 258.707 229.686 259.806 232.479ZM399.092 329.344C403.271 319.904 404.521 308.017 402.465 297.291C400.647 287.807 396.421 279.406 395.081 269.767C391.958 283.033 388.813 297.314 391.638 310.711C393.086 317.576 396.011 323.632 399.092 329.344ZM329.867 477.871C342.294 473.39 353.766 463.836 362.51 450.684C365.126 446.749 367.804 442.896 370.542 439.126C363.835 440.413 357.288 443.317 351.276 447.671C342.103 454.313 334.055 464.656 329.867 477.871ZM405.584 362.384C410.155 356.37 414.725 350.356 419.297 344.341C403.839 347.1 389.403 359.605 380.741 377.74C382.973 380.148 386.177 378.73 388.781 377.222C392.403 375.124 396.057 373.004 399.281 369.885C401.552 367.688 403.573 365.031 405.584 362.384ZM104.95 493.823C104.988 494.378 105.035 494.966 105.275 495.412C105.802 496.387 106.875 496.147 107.712 495.805C117.304 491.881 126.762 487.311 136.041 482.118C136.71 481.744 137.49 481.151 137.503 480.143C130.385 479.452 123.267 478.761 116.148 478.069C114.407 477.9 112.659 477.73 110.952 477.22C108.384 476.453 105.936 474.912 103.822 472.732C103.977 479.78 104.463 486.804 104.95 493.823ZM329.822 426.393C329.247 426.973 329.015 427.998 328.818 428.95C328.14 432.219 327.459 435.688 328.089 438.976C328.409 440.651 329.053 442.164 329.689 443.653C331.448 447.771 333.208 451.887 334.967 456.005C335.131 456.388 335.309 456.79 335.591 456.998C336.431 457.615 337.261 456.165 337.651 454.953C340.183 447.09 342.773 438.775 342.199 430.187C342.11 428.867 341.854 427.368 341.011 426.763C340.624 426.485 340.175 426.449 339.74 426.419C337.131 426.238 334.523 426.057 331.915 425.875C331.193 425.825 330.407 425.799 329.822 426.393ZM369.691 397.281C369.625 402.816 373.073 407.443 376.856 409.054C380.639 410.665 384.698 409.971 388.629 409.381C395.541 408.342 402.852 407.485 408.535 401.878C409.795 400.633 410.987 399.098 411.55 397.088C412.429 393.951 411.545 390.247 409.894 387.796C408.242 385.345 405.953 383.945 403.661 382.917C395.47 379.246 386.377 379.67 378.379 384.093C374.159 386.426 369.768 390.93 369.691 397.281ZM104.299 453.816C105.043 454.788 106.553 455.037 106.843 453.67C107.837 448.989 110.074 444.974 112.708 441.771C115.343 438.568 118.379 436.094 121.397 433.641C122.211 432.979 122.159 431.337 122.002 430.038C121.697 427.522 121.393 425.006 121.088 422.489C121.011 421.852 120.859 421.092 120.413 420.921C120.048 420.782 119.688 421.127 119.39 421.452C117.225 423.819 115.061 426.185 112.897 428.551C108.56 433.293 103.913 438.732 102.972 446.322C102.645 448.966 102.897 451.985 104.299 453.816ZM121.182 436.878C116.321 441.127 111.176 445.832 108.967 453.235C108.829 453.696 108.703 454.181 108.713 454.68C108.735 455.665 109.302 456.495 109.952 456.873C110.601 457.252 111.325 457.269 112.029 457.28C116.191 457.349 120.352 457.417 124.513 457.487C124.715 457.489 124.935 457.486 125.095 457.311C125.347 457.036 125.321 456.5 125.271 456.058C124.607 450.185 123.943 444.312 123.28 438.439C123.185 437.604 122.993 436.605 122.411 436.377C121.987 436.211 121.555 436.551 121.182 436.878ZM327.919 426.753C324.855 425.647 321.551 425.888 318.586 427.434C319.16 430.072 320.177 432.519 321.533 434.519C326.101 441.261 327.451 451.05 327.97 460.315C328.247 465.262 328.344 470.23 328.262 475.193C330.269 470.859 332.275 466.526 334.281 462.192C334.481 461.762 334.687 461.306 334.708 460.793C334.73 460.28 334.564 459.792 334.395 459.335C332.415 453.983 329.506 449.367 327.669 443.916C325.832 438.464 325.269 431.503 327.919 426.753ZM122.655 199.923C120.965 200.299 119.037 200.9 118.235 203.015C117.68 204.478 117.844 206.247 118.022 207.884C118.757 214.627 119.491 221.37 120.225 228.112C123.984 218.65 127.503 209.007 131.021 199.367C130.37 198.335 129.216 198.466 128.245 198.682C126.382 199.096 124.518 199.509 122.655 199.923ZM353.987 428.863C354.508 429.829 355.866 428.759 355.547 427.635C360.566 429.653 366.038 428.216 370.779 425.151C375.521 422.085 379.66 417.492 383.734 412.918C382.023 412.583 380.312 412.249 378.601 411.914C378.252 411.846 377.799 411.855 377.666 412.311C376.745 415.469 374.761 417.834 372.571 419.327C370.381 420.82 367.971 421.544 365.588 422.255C363.935 422.748 362.281 423.242 360.627 423.734C358.066 424.498 355.178 425.598 353.987 428.863ZM263.177 379.969C263.499 379.856 263.844 379.72 264.049 379.355C264.369 378.791 264.209 377.978 264.125 377.266C264.042 376.555 264.17 375.609 264.677 375.486C265.139 375.615 265.353 376.382 265.364 377.042C265.375 377.701 265.271 378.389 265.442 379.004C265.821 380.374 267.172 380.429 268.213 380.243C268.829 380.133 269.445 380.023 270.061 379.913C270.253 379.879 270.459 379.836 270.603 379.652C271.059 379.068 270.425 378.114 270.283 377.272C270.175 376.621 270.392 375.917 270.249 375.279C270.007 374.193 268.975 374.026 268.161 374.064C261.945 374.353 255.728 374.642 249.511 374.93C249.617 376.578 249.939 378.197 250.456 379.684C250.567 380.005 250.698 380.335 250.919 380.513C251.143 380.693 251.417 380.681 251.675 380.664C253.221 380.564 254.766 380.463 256.311 380.362C256.443 380.354 256.581 380.343 256.691 380.241C256.973 379.98 256.875 379.378 256.746 378.941C256.523 378.188 256.299 377.435 256.077 376.683C255.882 376.028 256.729 375.641 257.085 376.144C257.441 376.648 257.455 377.437 257.623 378.106C257.971 379.493 259.025 380.34 260.068 380.518C261.111 380.697 262.159 380.332 263.177 379.969ZM353.466 426.044C353.805 425.539 353.057 425.012 352.567 425.096C349.767 425.577 346.967 426.057 344.168 426.538C343.794 426.603 343.299 426.89 343.389 427.402C344.308 432.676 343.963 438.366 342.421 443.346C342.128 444.296 341.935 445.744 342.638 446.062C345.557 438.727 349.213 431.966 353.466 426.044ZM258.081 383.947C257.993 383.521 257.894 383.074 257.663 382.772C257.399 382.429 257.019 382.342 256.662 382.287C254.828 382.006 252.959 382.182 251.167 382.805C251.728 385.349 252.288 387.893 252.848 390.437C252.955 390.918 253.097 391.46 253.431 391.648C253.603 391.745 253.794 391.729 253.978 391.711C255.789 391.533 257.6 391.355 259.411 391.177C259.017 388.749 258.574 386.339 258.081 383.947ZM246.29 392.842C246.491 392.996 246.737 392.949 246.963 392.897C248.603 392.523 250.243 392.149 251.882 391.775C251.291 389.121 250.699 386.466 250.107 383.812C250.021 383.423 249.913 382.995 249.656 382.801C249.453 382.648 249.207 382.681 248.978 382.718C247.517 382.956 246.055 383.194 244.593 383.432C244.318 383.477 243.993 383.573 243.891 383.933C243.821 384.178 243.887 384.452 243.952 384.699C244.596 387.132 245.24 389.565 245.884 391.998C245.97 392.323 246.072 392.676 246.29 392.842ZM264.711 382.238C264.364 381.816 263.851 381.845 263.393 381.899C261.949 382.065 260.505 382.231 259.061 382.397C259.493 384.987 260.037 387.542 260.688 390.04C260.773 390.368 260.87 390.713 261.069 390.923C261.317 391.185 261.657 391.17 261.967 391.144C262.953 391.061 263.939 390.978 264.924 390.895C265.378 390.857 265.93 390.72 266.083 390.121C266.155 389.833 266.108 389.515 266.061 389.216C265.761 387.346 265.461 385.477 265.161 383.609C265.081 383.109 264.987 382.574 264.711 382.238ZM256.097 400.848C255.954 400.88 255.802 400.917 255.698 401.058C255.495 401.332 255.588 401.802 255.695 402.167C256.074 403.466 256.453 404.766 256.833 406.065C256.973 406.548 257.132 407.06 257.446 407.339C257.737 407.597 258.102 407.603 258.445 407.6C259.756 407.589 261.066 407.577 262.376 407.567C262.568 407.565 262.776 407.556 262.924 407.384C263.192 407.074 263.092 406.479 262.969 406.024C262.465 404.164 261.961 402.304 261.457 400.444C261.295 399.847 260.701 399.838 260.251 399.937C258.866 400.241 257.481 400.545 256.097 400.848ZM267.12 381.871C266.845 381.872 266.535 381.893 266.349 382.179C266.125 382.522 266.197 383.06 266.281 383.51C266.654 385.481 267.027 387.453 267.399 389.424C267.465 389.77 267.541 390.141 267.739 390.368C268.003 390.669 268.385 390.612 268.721 390.54C269.963 390.275 271.205 390.009 272.447 389.744C272.314 387.725 272.085 385.721 271.763 383.745C271.662 383.127 271.523 382.453 271.141 382.113C270.855 381.859 270.495 381.853 270.156 381.855C269.144 381.86 268.132 381.865 267.12 381.871ZM269.648 407.335C269.246 405.289 268.843 403.242 268.441 401.195C268.287 400.414 268.069 399.528 267.529 399.233C267.263 399.089 266.967 399.12 266.683 399.155C265.358 399.316 264.032 399.478 262.707 399.639C263.056 401.473 263.47 403.281 263.946 405.057C264.186 405.952 264.549 406.965 265.223 407.117C266.684 407.449 268.175 407.521 269.648 407.335ZM271.955 407.193C273.157 407.33 274.475 407.423 275.447 406.424C275.025 404.132 274.605 401.839 274.183 399.547C274.089 399.031 273.962 398.456 273.624 398.211C273.376 398.029 273.078 398.079 272.801 398.133C271.611 398.365 270.421 398.597 269.23 398.829C269.513 401.256 269.993 403.637 270.659 405.912C270.761 406.262 270.876 406.625 271.089 406.854C271.331 407.115 271.653 407.158 271.955 407.193ZM379.014 374.56C379.931 371.923 380.849 369.286 381.767 366.65C381.863 366.373 381.962 366.073 381.927 365.769C381.893 365.473 381.739 365.236 381.591 365.017C380.285 363.085 378.979 361.151 377.673 359.217C377.13 360.255 377.193 361.665 377.279 362.946C377.563 367.149 377.848 371.353 378.132 375.557C378.532 375.681 378.835 375.075 379.014 374.56ZM273.275 381.565C273.104 381.549 272.909 381.544 272.789 381.717C272.655 381.911 272.684 382.223 272.723 382.488C272.982 384.233 273.24 385.978 273.499 387.724C273.595 388.37 273.708 389.062 274.057 389.507C275.185 390.948 277.358 388.47 278.407 390.024C278.591 387.545 278.459 385.022 278.017 382.608C277.986 382.438 277.949 382.259 277.857 382.142C277.749 382.007 277.593 381.986 277.449 381.972C276.058 381.837 274.667 381.702 273.275 381.565ZM247.321 394.51C247.17 394.539 247.013 394.57 246.889 394.694C246.615 394.966 246.626 395.532 246.665 395.999C246.77 397.248 246.886 398.54 247.352 399.613C247.819 400.688 248.74 401.483 249.607 401.158C250.849 400.691 252.092 400.225 253.335 399.758C253.281 398.096 253.04 396.446 252.625 394.886C252.521 394.497 252.391 394.087 252.135 393.876C251.87 393.658 251.539 393.709 251.233 393.767C249.929 394.014 248.625 394.263 247.321 394.51ZM276.299 379.923C276.673 379.843 277.072 379.748 277.35 379.389C278.177 378.318 277.231 376.143 277.902 374.876C278.164 374.382 277.523 373.938 277.083 373.964C275.121 374.08 273.158 374.197 271.195 374.312C271.271 375.449 271.413 376.578 271.617 377.683C271.845 378.915 272.703 379.758 273.591 380.031C274.478 380.304 275.401 380.114 276.299 379.923ZM260.437 394.723C260.184 393.023 258.559 392.625 257.339 392.944C256.121 393.262 254.759 393.878 253.723 392.924C253.789 394.718 254.088 396.496 254.602 398.142C254.71 398.488 254.841 398.849 255.075 399.035C255.34 399.244 255.667 399.177 255.967 399.105C257.169 398.814 258.371 398.524 259.573 398.233C260.168 398.089 260.953 397.429 260.64 396.705C260.39 396.128 260.535 395.383 260.437 394.723ZM253.013 401.7C252.031 401.933 251.049 402.166 250.067 402.398C249.535 402.524 248.88 402.823 248.823 403.573C248.68 405.472 250.031 407.002 251.367 407.38C252.703 407.758 254.089 407.388 255.446 407.576C255.39 405.963 255.149 404.362 254.735 402.855C254.636 402.496 254.519 402.126 254.301 401.892C253.949 401.511 253.451 401.596 253.013 401.7ZM278.889 398.018C277.587 397.825 276.262 397.922 274.98 398.304C275.689 400.665 276.191 403.147 276.475 405.677C276.605 406.837 277.787 406.86 278.6 406.57C278.903 406.462 279.234 406.328 279.407 405.963C279.556 405.648 279.549 405.242 279.537 404.865C279.467 402.782 279.397 400.698 279.327 398.615C279.323 398.483 279.317 398.344 279.263 398.236C279.183 398.076 279.028 398.039 278.889 398.018ZM257.613 416.686C258.841 414.969 258.211 411.503 256.546 410.817C254.881 410.13 253.011 412.566 253.379 414.941C253.76 417.396 256.342 418.46 257.613 416.686ZM267.27 396.559C268.051 395.131 266.881 393.023 265.615 392.712C264.349 392.401 263.067 393.081 261.781 393.055C261.308 393.044 261.288 394.042 261.442 394.669C261.641 395.48 261.84 396.291 262.039 397.102C262.121 397.434 262.268 397.832 262.518 397.81C263.435 397.73 264.351 397.65 265.267 397.569C265.999 397.505 266.824 397.374 267.27 396.559ZM279.936 410.349C279.841 409.99 279.701 409.64 279.481 409.414C279.283 409.213 279.035 409.127 278.792 409.086C276.869 408.761 275.002 411.447 275.286 414.129C276.105 415.492 277.646 415.868 278.745 414.974C279.845 414.08 280.375 412.019 279.936 410.349ZM268.064 394.13C268.022 395.31 268.763 396.317 269.575 396.635C270.388 396.953 271.253 396.748 272.083 396.541C272.509 396.434 272.985 396.281 273.208 395.762C273.683 394.657 272.74 392.631 273.61 392.207C273.026 392.094 272.443 391.982 271.859 391.87C271.087 391.722 270.29 391.575 269.542 391.875C268.794 392.174 268.103 393.042 268.064 394.13ZM275.043 395.64C275.928 396.716 277.409 396.568 278.231 395.398C279.053 394.228 279.159 392.246 278.54 390.852C276.991 391.254 275.443 391.657 273.895 392.058C274.09 393.363 274.325 394.765 275.043 395.64ZM394.679 374.922C393.473 375.547 392.267 376.173 391.061 376.798C390.463 377.109 389.855 377.425 389.337 377.947C391.309 379.024 393.796 377.616 394.679 374.922ZM282.618 240.962C282.587 240.216 282.023 239.606 281.5 239.752C281.533 240.511 282.074 241.148 282.614 241.067L282.618 240.962Z" fill="#FFC411"/>
</g>
<defs>
<clipPath id="clip0_2456_6209">
<rect width="500" height="700" fill="white"/>
</clipPath>
</defs>
</svg>
