<?xml version="1.0" encoding="UTF-8"?>
<svg id="Logo_icon_3" data-name="Logo icon 3" xmlns="http://www.w3.org/2000/svg" viewBox="1100 350 1800 1300">
  <defs>
    <style>
      .cls-1 {
        fill: #025f73;
      }

      .cls-2 {
        fill: #ffc300;
      }

      .cls-3 {
        fill: #ff684a;
      }
    </style>
  </defs>
  <g id="ICON">
    <path class="cls-2" d="M2730.25,703.43l-122.96,70.99c-139.81,80.72-314.29,70.28-443.48-26.54l-69.54-52.12-295.16,131.36c-107.77,47.96-231.13,46.35-337.61-4.42l-273.77-130.53,719.54-344.44c137.37-65.76,300.08-48.48,420.58,44.66l402.39,311.04Z"/>
    <path class="cls-1" d="M1776.61,410.37c34.17,8.18,65.28,23.82,91.02,47.74,13.61,12.65,25.42,27.07,37.45,41.23,51.81,60.99,108.26,117.8,165.16,174,28.39,28.04,61.58,50.56,93.57,74.54,129.19,96.82,303.67,107.26,443.48,26.54l122.96-70.99-402.39-311.04c-120.5-93.14-283.21-110.42-420.58-44.66"/>
    <g>
      <path class="cls-2" d="M1244.97,1194.41l122.96-70.99c139.81-80.72,314.29-70.28,443.48,26.54l69.54,52.12,295.16-131.36c107.77-47.96,231.13-46.35,337.61,4.42l273.77,130.53-719.54,344.44c-137.37,65.76-300.08,48.48-420.58-44.66l-402.39-311.04Z"/>
      <path class="cls-1" d="M2198.61,1487.47c-34.17-8.18-65.28-23.82-91.02-47.74-13.61-12.65-25.42-27.07-37.45-41.23-51.81-60.99-108.26-117.8-165.16-174-28.39-28.04-61.58-50.56-93.57-74.54-129.19-96.82-303.67-107.26-443.48-26.54l-122.96,70.99,402.39,311.04c120.5,93.14,283.21,110.42,420.58,44.66"/>
    </g>
    <circle class="cls-3" cx="2756.35" cy="950.18" r="146.12"/>
    <circle class="cls-3" cx="1113.29" cy="956.25" r="146.12"/>
  </g>
</svg>
